<svg xmlns="http://www.w3.org/2000/svg" viewBox="0 0 500 500"><defs><style>.cls-1{isolation:isolate;}.cls-2{fill:#b1bbc4;mix-blend-mode:multiply;}.cls-3{fill:#ffc764;}.cls-4{fill:#8acdff;}.cls-5{fill:#fffae6;}.cls-6{fill:#ffc0c0;}.cls-7{fill:#ff6679;}</style></defs><title>Prancheta 6</title><g class="cls-1"><g id="Camada_1" data-name="Camada 1"><path class="cls-2" d="M300.34,394c-21-5.25-43.18-4.69-64.61-3.19-1.19.09-2.37.2-3.56.3a199.2,199.2,0,0,0-38,2.76,57.48,57.48,0,0,0-15.34,3.24,6.58,6.58,0,0,0-1.66,1c-5.57,1.63-16.07,5.25-11.75,10.82,5.15,6.63,18.88,7.08,26.6,8.1,21.69,2.85,43.11,4.54,65,3.86,11.33-.36,22.72-1,34-2.26,7.49-.82,18.14-1.47,24.56-5.87C331.12,402.06,309,396.13,300.34,394Z"/><path class="cls-3" d="M253,244.11c-9.28,5.1-19.43,8.44-29.32,12.12-11.3,4.2-22.92,8.57-32.79,15.65a54.47,54.47,0,0,0-12.81,12.72,40.56,40.56,0,0,0-4.87,8.32c-1.26,3.18-1.2,6.54-2.29,9.72a1.24,1.24,0,0,1-.1.2,139.46,139.46,0,0,0-1,14.86c3.47-7.42,9.66-14,15.42-19,9.22-8,20.1-14.19,31-19.49,11.94-5.78,24.44-10.7,35.67-17.86,9.91-6.32,23.77-16.6,24.38-29.6-1.8-2-3.62-3.95-5.44-5.93C267.64,234.08,260.76,239.88,253,244.11Z"/><path class="cls-4" d="M258.77,258.84c-10.73,7.84-22.89,13.24-34.89,18.79s-23.74,11.43-34.13,19.49a65.56,65.56,0,0,0-13.67,13.71A56.66,56.66,0,0,0,169.81,323a117.83,117.83,0,0,0,2.77,23,96.63,96.63,0,0,0,3.62,12.26,27.34,27.34,0,0,1,3.42-7.19c3.84-5.78,9.63-9.83,15.48-13.38,6.47-3.92,13.34-7.17,20.05-10.65,14-7.28,28-14.53,41.86-22.23,8.95-5,18.07-9.83,26.13-16.23C291.39,282,298.09,274,297.8,263a115.39,115.39,0,0,0-7.59-13.77A125.26,125.26,0,0,0,278.34,234C276.19,244.3,266.73,253,258.77,258.84Z"/><path class="cls-5" d="M330.66,136.37a144.55,144.55,0,0,0-11-28.5c-3.72-7-8.51-14.7-15.47-18.94-19.4-11.82-34.32,17-40.85,30.7-6.33,13.24-11.95,26.48-15.81,40.7a204.92,204.92,0,0,0-7.38,48.41,40.75,40.75,0,0,1,4.56.3,180.47,180.47,0,0,1,1.78-21.52,170.88,170.88,0,0,1,3.81-21.18,151.25,151.25,0,0,1,15.52-38.46c4.33-7.47,9.17-15.39,15.65-21.23,2.15-1.94,5-4.42,8.14-4.39,2.75,0,4.09,2.29,4.89,4.59.22-.12.42-.12.42.17.11,11,.82,22.23,1.89,33.22a152.05,152.05,0,0,0,5.54,29.31c2,6.44,4.38,13.28,8.84,18.46s11.85,8.48,18.74,5.47c10.07-4.41,7.44-18.49,6.53-27.13A179.9,179.9,0,0,0,330.66,136.37Z"/><path class="cls-6" d="M287.05,104.52c-3.19,1.42-5.75,4.15-8,6.77-5.72,6.69-10.18,14.45-14,22.34a162.81,162.81,0,0,0-12.61,35.59,185,185,0,0,0-4.59,38.52,2.4,2.4,0,0,1-1,1.58,42,42,0,0,1,9.38,2.76c0-2.85,1.06-6,1.7-8.61.94-3.77,2-7.5,3.19-11.2a212.25,212.25,0,0,1,9-23,202,202,0,0,1,11.24-21.23c3.35-5.43,6.88-11.39,11.48-15.9v-.11a199.78,199.78,0,0,1,1.1-23.83C292.7,105.43,290.32,103.07,287.05,104.52Z"/><path class="cls-7" d="M234,211.17a43.17,43.17,0,0,0-7.5,1.81c-.7.6-1.55,1-2,.71-.53.2-1.05.44-1.57.66-.63.74-1.57,1.25-2.13,1a55.86,55.86,0,0,0-10.24,6.53c-16.66,13.35-27.62,33.83-33.84,54-1.27,4.12-2.39,8.32-3.34,12.57.19-.31.33-.63.52-.93a61.58,61.58,0,0,1,11.71-13.78c8.91-7.65,19.85-12.62,30.7-16.85,10.31-4,20.94-7.34,31-11.95,9.2-4.23,18.76-10.1,23-19.69l-2.36-2.59a.71.71,0,0,1-.17-.58,92.08,92.08,0,0,0-8.24-5.35C251.77,212.3,242.87,209.93,234,211.17Z"/><path class="cls-5" d="M168.46,68.13c3-4.14,8.07-6.8,12.64-3.39,6.27,4.69,9.28,13.88,11.76,21,3.08,8.79,5.54,17.73,8,26.73C205.34,129.17,209.6,146,213,163c3.3,16.38,5.06,33.11,10.24,49.06l.78-.33c-.14-23.77-4.31-47.7-8.48-71-1.92-10.79-3.79-21.7-6.48-32.33a200.7,200.7,0,0,0-12.55-35.55c-4.22-9.06-9.14-19.34-16.94-25.93-3.72-3.15-8.69-4.76-12.08-.84-2.75,3.18-3.61,8.4-4,12.57a100.81,100.81,0,0,0,.53,20.47c.25,2.29.55,4.57.87,6.86C164.54,79.84,164.86,73.08,168.46,68.13Z"/><path class="cls-3" d="M271.54,358.65c-10.86,6.51-22,12.51-32.63,19.42-5.52,3.59-10.94,7.34-16.12,11.42-4.11,3.24-8,6.6-10.17,11.37a60.48,60.48,0,0,0,26.93,6.05c2.55-7,8.15-12,13.7-16.73,6-5.18,12.53-9.78,19-14.39,6.86-4.89,13.78-9.79,20-15.46a94,94,0,0,0,8.92-9.15c2-2.35,3.67-4.87,5.46-7.34a119,119,0,0,0,3.15-23.51C303.36,337.63,286.87,349.47,271.54,358.65Z"/><path class="cls-7" d="M249.89,320.9c-14.21,8.18-29.2,15.58-42.57,25.12-5.91,4.21-11.13,9.06-14.88,15.33a32.44,32.44,0,0,0-4.12,9.83c-.7,3.33-.08,6.27,0,9.51A67.64,67.64,0,0,0,210.78,400c1.27-3.66,4.71-6.73,7.49-9.11A164.34,164.34,0,0,1,232.49,380c10.66-7.28,21.86-13.71,33.08-20.08,9.37-5.32,18.77-11,26.87-18.21a64.39,64.39,0,0,0,17.46-24.46,120.75,120.75,0,0,0-5.34-36.82c-.66-2.14-1.39-4.26-2.15-6.36C293.29,296.91,270.21,309.21,249.89,320.9Z"/><path class="cls-3" d="M278.47,294.26c-8.3,5.71-17.25,10.4-26,15.4-14.41,8.25-29.3,15.72-44.08,23.27-6.89,3.53-14,7-20.06,11.85a26.29,26.29,0,0,0-7.66,8.69c-1.42,2.83-1.94,5.83-2.91,8.79a87.74,87.74,0,0,0,7,13.26A30.79,30.79,0,0,1,188.81,363a52,52,0,0,1,12.39-15c11.85-9.86,26.27-16.85,39.66-24.34,22.7-12.7,50.46-25.4,61-50.89-.82-2.18-1.69-4.32-2.62-6.45a18,18,0,0,1-1.09,6.33C294.89,281.85,286.33,288.86,278.47,294.26Z"/><path class="cls-4" d="M295.15,359.92a178,178,0,0,1-18.43,14.89c-6.55,4.74-13.22,9.34-19.49,14.45-6,4.9-12.57,10.13-15.34,17.58a57.93,57.93,0,0,0,27.82-8.68c18-11.23,30.13-29.85,35.84-50A72,72,0,0,1,295.15,359.92Z"/><path class="cls-6" d="M212.42,218.14A59.82,59.82,0,0,1,220,213.6c-3.15-10-5-20.39-6.7-30.76-1.84-11.46-3.85-22.85-6.45-34.16-4.07-17.73-8.43-35.55-14-52.88-2.54-7.94-5.36-16.42-10.2-23.29-1.61-2.28-4-5.78-7.13-6-3.71-.3-5.7,3.71-6.47,6.78-2.57,10.33.3,21.89,2.51,32,1,4.8,2.11,9.52,2.68,14.41s1.18,9.9,2,14.81a448.38,448.38,0,0,0,18,50c4.92,11.39,10.18,23.58,18.08,33.29A.81.81,0,0,1,212.42,218.14Z"/><path class="cls-2" d="M335.1,189.74c-2.36-.93-2.72-.62-5.42-.05-5.89,1.25-10.53.18-15.17-3.54-8.45-6.78-10.54-23.17-11.82-33-1.94-14.89,0-36.65-10-49.08-1-2.41-5-1.35-7.46.23a24.15,24.15,0,0,0-4.83,4.35c-2.73,2.49-4.81,5.8-6.95,8.67-3.5,4.69-6.79,9.36-8.84,14.87a1.15,1.15,0,0,0-.06.29,1.54,1.54,0,0,0-.17.19c-11.08,13.43-15,32.59-15.42,49.6,0,.69,1-.06,1.06-.39,2.87-10.19,4.76-20.63,7.93-30.73,4.43-14.1,19.34-33.18,34.28-18.23.64.64,1.65-.69,1.54-1.3a11.24,11.24,0,0,0-1.16-3.33,2.76,2.76,0,0,0,1.11-2.08c0-.73,0-1.46,0-2.19.67,4.9,1.29,9.81,1.6,14.76.71,11.73,1.57,23.3,4.61,34.69,2.5,9.4,7,18.63,16.42,22.3a17.53,17.53,0,0,0,18.51-4.35C335.22,191,335.86,190,335.1,189.74Z"/><path class="cls-2" d="M221,206.84c1.49-7.12-2.67-14.25-3.81-21.35-1.43-8.89-2.89-17.77-4.48-26.63a416.55,416.55,0,0,0-16.81-64.45c-2.28-6.51-7.13-30.62-17.6-29-8.42,1.28-11.15,9.7-11.78,17.29-.06.8,1.22,0,1.32-.48,1.2-5.51,4.7-16.72,11.8-10.6,4.25,3.67,5.9,11.09,7.51,16.2,4.25,13.42,8.75,26.67,12,40.38,3.64,15.11,6.52,30.36,9,45.69,1.62,9.87,2.76,20.67,5.81,30.45-.33,3.67.23,7.38,2.56,10.41.94,2.07,5.24-1.16,5.21-3.31A17.43,17.43,0,0,0,221,206.84Z"/><path class="cls-2" d="M310.22,319.25a.83.83,0,0,0-1,.25c2.05-10.1,1.88-20.42-2-29.17-.08-.18-.35.09-.32.23,9,41-24.81,83.79-63.62,92.79-15.51,3.59-32.23,1.16-46.4-5.85-16.06-7.95-24-21.74-26.8-38.87-.09-.59-.88.06-.89.43-.47,13.15,4.22,23.65,11.85,31.54-.69,3.71,3.57,8.65,5.36,11.42,5.08,7.83,13.3,12.76,21.3,17.14,13.53,7.4,31,11.76,45.52,6.23,21.31-3.78,35.39-21.23,45.81-39.48C302.89,359.26,320.53,325.21,310.22,319.25Z"/><path d="M269.21,221.27a47.58,47.58,0,0,0-20.67-11.11,39.77,39.77,0,0,0-20.29.66c-14.73,4.35-26.45,15.81-35.12,28.07-10.72,15.17-17.84,32.92-21.83,51-4.16,18.84-4.88,38.74-.67,57.64,4.15,18.56,13.7,36.21,28.87,48,13.1,10.19,29.75,15.27,46.29,13,17.51-2.37,32.81-12.71,43.88-26.15s17.94-30.35,20.72-47.61A127.62,127.62,0,0,0,307,280.21a121.66,121.66,0,0,0-27.16-49.46c-1.56-1.7-3.18-3.35-4.84-4.95s-3.8-3.07-5.68-4.65c-.41-.35-1.3.57-.91.91,1.85,1.55,3.46,3.45,5.2,5.12s3.28,3.25,4.85,4.95a119.1,119.1,0,0,1,8.87,10.92,120.59,120.59,0,0,1,13.58,24.46,127.59,127.59,0,0,1,9.6,53.31c-.65,17.4-5,34.84-13.88,49.93-8.71,14.87-22.11,27.77-38.52,33.64A59.56,59.56,0,0,1,211,401.08c-16.08-8.25-27.95-23-34.58-39.66-7.13-17.88-8.56-37.8-6.43-56.81a147.23,147.23,0,0,1,16.56-53.49c7.53-13.9,17.93-27.46,32-35.23A43.06,43.06,0,0,1,238,210.25a41,41,0,0,1,20.22,4.9,67.74,67.74,0,0,1,10.29,6.78C268.85,222.17,269.49,221.53,269.21,221.27Z"/><path d="M211.78,218.37c-5.05-5.75-8.7-12.91-12.09-19.72a335.54,335.54,0,0,1-13.47-31.53q-6.93-18.47-12.36-37.47a362.12,362.12,0,0,1-8.7-37.05C163.4,82.54,162,72.2,162.53,62c.28-5.69,1-13.67,5.76-17.43,7.83-6.23,16.42,5.81,20.12,11.42a133.94,133.94,0,0,1,11.28,21.68,211.8,211.8,0,0,1,8.72,24.71c2,7.13,3.46,14.38,4.9,21.65q2.41,12.3,4.54,24.65c3,17.58,5.71,35.32,6.79,53.14.22,3.57.35,7.14.35,10.71,0,1,1.6,0,1.6-.76,0-17.3-2.59-34.66-5.29-51.7-2.57-16.18-5.47-32.34-9-48.35A189.89,189.89,0,0,0,205,86.83a179.57,179.57,0,0,0-10.57-23.92c-3.23-6-6.9-12.1-11.84-16.86-2.94-2.82-6.93-5.56-11.2-4.33-5.94,1.72-8.45,8.08-9.49,13.62-1.72,9.15-.88,18.79.29,28a296.79,296.79,0,0,0,7.31,36.42c3.36,13,7.31,25.86,11.76,38.53,4.07,11.62,8.53,23.13,13.68,34.32,3.72,8.07,7.68,16.3,13,23.43a31.84,31.84,0,0,0,2.86,3.28c.37.37,1.25-.51.9-.9Z"/><path d="M240,209.63a198.84,198.84,0,0,1,7.84-52.14A227.1,227.1,0,0,1,265.55,114,95,95,0,0,1,277.47,95.7c3.1-3.56,6.69-6.92,11-8.9a16.42,16.42,0,0,1,10.24-1.24,21.81,21.81,0,0,1,9.44,5c7,6.07,11.71,14.69,15.46,23A168.68,168.68,0,0,1,334,145.41c1.19,5.28,2.17,10.62,2.89,16,.33,2.5.51,5,.87,7.51a58.13,58.13,0,0,1,.63,8.23c0,5.13-.81,11.05-4.7,14.78s-10.75,4.44-15.74,2.49-8.43-6.25-10.94-10.73a70.65,70.65,0,0,1-5.83-14.8,148.2,148.2,0,0,1-4.63-23.07c-1.08-8.76-1.35-17.55-1.75-26.36-.19-4.1-.13-8.22-.06-12.31,0-.28-.43,0-.44.21a217,217,0,0,0-.4,27.35,171.28,171.28,0,0,0,3.64,27,107.67,107.67,0,0,0,5.17,17.25c2,5,4.73,10.07,8.83,13.7a17.34,17.34,0,0,0,14.78,4.1,15.4,15.4,0,0,0,12-10c2-5.26,1.89-11.15,1.26-16.65-.61-5.33-1.2-10.66-2.11-15.94a185,185,0,0,0-8.95-33.52c-3.6-9.59-8.11-19.3-14.82-27.14-4.86-5.67-11.6-10.63-19.46-9.67-10,1.22-17.53,10.32-22.8,18.11-4.6,6.8-8.19,14.15-11.79,21.5a185.82,185.82,0,0,0-8.78,21.32,198.44,198.44,0,0,0-10.74,51.49c-.29,4.49-.41,9-.38,13.5,0,.17.27,0,.27-.13Z"/><path d="M293.49,131.92a88.52,88.52,0,0,0-9.31,12.62c-3.22,5-6.15,10.15-8.87,15.42a207.79,207.79,0,0,0-14.15,34.49c-1,3.22-1.87,6.48-2.64,9.77-.69,2.94-1.58,6.05-1.56,9.09,0,.64.88-.07,1-.35.81-2.72,1.18-5.57,1.8-8.35s1.33-5.5,2.1-8.22c1.69-5.9,3.7-11.71,5.95-17.42a206.87,206.87,0,0,1,16.12-32.41c3.08-5,6.54-9.65,10-14.37.27-.38-.15-.56-.42-.27Z"/><path d="M178.1,144.78a95.73,95.73,0,0,1-3.54-16.32c-.64-4.7-1-9.48-1.93-14.14-1.27-6.31-2.87-12.53-4-18.88-1.16-6.8-2.16-14.16-.69-21,.84-3.87,3.7-10.09,8.72-8.72,4.34,1.19,7.19,6.4,9.14,10.06a104.49,104.49,0,0,1,6.61,16c1.63,4.87,3.09,9.78,4.45,14.73,3,11.1,6,22.24,8.71,33.43s5.19,22.56,7.1,34c1.82,10.9,3.38,21.86,6.18,32.57.7,2.63,1.47,5.25,2.32,7.84.25.74,1.66-.36,1.44-1-3.69-11.1-5.64-22.63-7.56-34.14s-4.21-22.95-6.87-34.32c-2.69-11.55-5.7-23-8.8-34.47-1.63-6-3.27-12-5.19-17.93a126.53,126.53,0,0,0-6.41-16.54c-2-4.11-4.66-9.28-9-11.29s-8.69,1.65-10.65,5.41c-3.07,5.91-2.65,13.35-1.94,19.76a186,186,0,0,0,4.06,21.17c2,8.68,2.61,17.63,4.82,26.26a48,48,0,0,0,2.72,7.83c.08.16.36-.09.31-.23Z"/><path d="M294.71,108.2c-.66-2.21-1.75-4.76-4.24-5.35-2.09-.49-4.3.72-6,1.86-5,3.42-8.79,8.66-12.14,13.58a151.47,151.47,0,0,0-22.63,53.88c-1.23,5.82-2,11.7-2.71,17.6a160.06,160.06,0,0,0-1.45,19.06c0,.89,1.45,0,1.45-.7a143,143,0,0,1,1.07-15.74c.6-5.28,1.21-10.57,2.12-15.81a155.28,155.28,0,0,1,8.2-29.32,157.49,157.49,0,0,1,13-26.1A68.75,68.75,0,0,1,281.62,108c1.9-1.83,4.36-4.08,7.11-4.36,3-.32,4.71,2.33,5.61,4.83.07.2.42-.09.37-.26Z"/><path d="M271,223.9c-2.77,8-9.38,13.68-16.47,17.81s-14.88,7-22.57,9.82c-16.76,6.23-35,11.93-48.27,24.48a58.25,58.25,0,0,0-9.77,12.33,31.89,31.89,0,0,0-3.23,7c-.74,2.42-1.34,5.17-.76,7.68.08.34.62-.14.65-.31a50.8,50.8,0,0,1,1.27-7.66,30.48,30.48,0,0,1,3.14-6.75A56.78,56.78,0,0,1,183.92,277c6.72-6.49,15.05-11.07,23.52-14.87,8.16-3.65,16.6-6.62,25-9.73,7.65-2.85,15.36-5.71,22.42-9.88,7.37-4.36,14-10.33,16.57-18.72.09-.29-.34-.07-.4.1Z"/><path d="M167.87,327.39a56.62,56.62,0,0,1,5.81-13.77,57.5,57.5,0,0,1,9.07-11.08c7.07-6.81,15.45-12.12,24-16.92,17.83-10.06,37.94-16.11,54.14-29a60.46,60.46,0,0,0,11.73-11.86c3.22-4.51,5.89-10,5.55-15.64,0-.7-1.17,0-1.14.55.33,5.51-2.3,10.77-5.47,15.11a58.71,58.71,0,0,1-11.13,11.14c-8.06,6.41-17.24,11.19-26.52,15.58-17.74,8.38-36.33,16.14-50.87,29.73-7.38,6.9-14.1,16-15.65,26.26-.06.39.44.09.51-.12Z"/><path d="M298,262.63c1,8.78-3.63,16.17-9.72,22.07-6.62,6.4-14.6,11.31-22.56,15.84-9.26,5.27-18.53,10.53-28,15.47-12.43,6.52-25.09,12.65-37.43,19.34-6,3.27-12.31,6.91-17.06,11.93-4,4.22-7.17,10.24-7.12,16.15,0,.56.8,0,.87-.32a44,44,0,0,1,2.43-8.51,24.55,24.55,0,0,1,5-7.2c4.62-4.64,10.54-8,16.26-11.13,12.37-6.69,25-12.86,37.47-19.42,9.41-5,18.67-10.21,27.9-15.5,7.83-4.48,15.62-9.33,22.19-15.58,6.23-5.92,12.26-14.31,10.11-23.37-.05-.21-.41.08-.4.23Z"/><path d="M302.75,271.34c-7.26,19.93-25.49,32.1-43.08,42.22-10.76,6.19-21.63,12.2-32.42,18.35-10,5.68-20.58,11.27-28.88,19.32a47.12,47.12,0,0,0-10.16,14.4,29.91,29.91,0,0,0-2.49,8.37c-.34,2.76-.34,5.83,1.42,8.11.25.34.8-.35.74-.62a22.1,22.1,0,0,1-.68-8.4,28.94,28.94,0,0,1,2.44-7.81A44.85,44.85,0,0,1,199.1,352a80.36,80.36,0,0,1,13.21-10c5.3-3.36,10.75-6.49,16.21-9.6,10.6-6,21.25-12,31.79-18.11,8.52-4.95,16.93-10.2,24.38-16.68,8.25-7.19,15-15.94,18.57-26.38.12-.35-.43-.09-.51.13Z"/><path d="M311.06,314.77a58.29,58.29,0,0,1-12.66,21.77A99.82,99.82,0,0,1,279.58,352c-7.53,5-15.43,9.32-23.24,13.83-8.79,5.09-17.49,10.34-25.8,16.19a146.32,146.32,0,0,0-12.35,9.56c-3,2.64-6.69,6-7.33,10.18-.11.72.82.16.94-.24,1.26-4.11,4.39-7.08,7.55-9.81,3.67-3.15,7.55-6,11.51-8.83,8.4-5.91,17.21-11.23,26.1-16.37,14.53-8.4,29.93-16.43,41.45-28.93a54.22,54.22,0,0,0,13-22.89c.06-.24-.28-.06-.32.08Z"/><path d="M308.44,341.71a96.79,96.79,0,0,1-11.78,15.06,131.08,131.08,0,0,1-14.39,12.33c-10.08,7.61-20.77,14.42-30.24,22.79-5.29,4.68-10.44,9.51-12.4,16.52-.23.83,1,.23,1.17-.29a22.52,22.52,0,0,1,4.66-8.68,76.6,76.6,0,0,1,6.9-6.7c4.7-4.19,9.75-8,14.84-11.68,10-7.27,20.41-14.21,29.22-23,4.75-4.75,9.44-10.2,12.31-16.32.1-.23-.2-.19-.29-.05Z"/></g></g></svg>