<svg xmlns="http://www.w3.org/2000/svg" viewBox="0 0 500 500"><defs><style>.cls-1{isolation:isolate;}.cls-2{fill:#b1bbc4;mix-blend-mode:multiply;}.cls-3{fill:#fffae6;}.cls-4{fill:#ffc0c0;}.cls-5{fill:#ffc764;}</style></defs><title>Prancheta 4</title><g class="cls-1"><g id="Camada_1" data-name="Camada 1"><path class="cls-2" d="M311.71,380.09a263.3,263.3,0,0,0-42.17-6.29,224.12,224.12,0,0,0-43.25,1.37c-3.35.42-6.69.89-10,1.38.25-.57.21-1.07-.4-1.19-13.58-2.65-37.19.79-48.11,10.22-9.23,8,4,14.64,10.34,16.57,32,9.81,70,8.79,102.85,5.68,10.73-1,21.48-2.4,32.16-3.79,6.66-.87,14.55-2.54,18.71-8.35C339.23,385.33,317.42,381.43,311.71,380.09Z"/><path class="cls-3" d="M276,213.17c-.42.07-.14-.48.08-.58,11.13-4.76,23.26-7.45,35.23-9.93.26-.95.48-1.91.68-2.87-11-15.38-22.17-30.63-34.17-45.25a63.44,63.44,0,0,1-10.13-.08,47.41,47.41,0,0,1-14.07-3.09,31.84,31.84,0,0,1-5.58-2.84c-1.83-1.25-3.22-2.94-5-4.25-2.38-1.78-5.21,1.64-6.85,3.24s-3.32,3.38-4.88,5.15c-3.11,3.54-6.09,7.19-9.32,10.61-.56.59-1.72,1.16-2.25.27a24.21,24.21,0,0,1-2.46-6.11q-13.05,23.69-26.69,47c11.66,2.65,23.42,4.71,35.43,5.14.48,0,0,.74-.36.75-12.12.6-24.25-1.42-36.13-4.09l-.31.54a48.31,48.31,0,0,0,2.75,7c2.14,0,4.27.06,6.41.11,7.26.17,14.89-.18,22.08,1,.61.1-.09.86-.44.9-7.73.81-15.83.26-23.6.05l-3.45-.11a54.48,54.48,0,0,0,4.26,6.76c3.71-.64,7.44-1.24,11.17-1.75a84.39,84.39,0,0,1,12-1.26c.56,0-.05.77-.31.85-6.95,1.95-14.34,2.71-21.56,3.73a64.41,64.41,0,0,0,11.75,11.4c17.79,13.34,41.61,15.88,62.24,7.93a67.79,67.79,0,0,0,27.69-19.48c-6-.76-12.07-1.59-18.12-2.21-.59-.06,0-1,.46-.94q9.33.8,18.64,1.92a57.51,57.51,0,0,0,4.93-7.32c-9.74.76-19.5,1.4-29.26,1.35-.21,0,0-.31.12-.33,10-1.7,20.19-2.47,30.34-3.24a55,55,0,0,0,3.16-7.64c-4.26.9-8.52,1.8-12.76,2.76C290.46,209.9,283.28,211.84,276,213.17Zm-50.58-15c-3.09-1.24-2.1-6.79-.44-8.52,2.48-2.57,5.3-.41,5.31,3.31C230.29,195.85,228.45,199.37,225.41,198.14Zm27.54,22a4.28,4.28,0,0,1-1.61.39,46.71,46.71,0,0,1-.06,6.16c0,2.24.28,4.7-.56,6.8-.06.14-.36.39-.48.17-1-1.86-.23-5.2-.18-7.3.05-1.93-.07-3.95.11-5.89-3.55-.53-7.3-4.17-7.21-7.35a.89.89,0,0,1,.17-.46c-3.3-2.89,1.21-8.44,4.19-9.65,4.35-1.77,12-.8,12.92,4.86C261,212.43,257,218.31,253,220.17Zm17.41-26.39c.17-3.71,3.08-5.76,5.45-3.08,1.59,1.8,2.34,7.38-.8,8.49S270.23,196.69,270.36,193.78Z"/><path class="cls-3" d="M315.32,307.6c7.2-1.12,14.61-2.26,21.6-4.4,1.24-.38,7.31-1.83,6.72-4.1-.66-2.52-3.65-4.2-5.77-5.33a68.81,68.81,0,0,0-11.38-4.69,110.19,110.19,0,0,0-23.81-4.75,65.69,65.69,0,0,1,6.56,24.15C311.27,308.21,313.29,307.92,315.32,307.6Z"/><path class="cls-3" d="M164.17,302.2c7.65,4.28,17.32,4.43,25.85,5.24,1,.09.81,1.09.21,1.88-.45,1.44.42,3.93.69,5.2a33.9,33.9,0,0,1,.69,5.94c.1,3.21.11,6.42.19,9.63.48-1.82.94-3.64,1.3-5.49.62-3.13.67-6.69,2.14-9.59a8.93,8.93,0,0,1,4.59-4.24,145.81,145.81,0,0,1,7.53-27.57c-5.41.65-10.83,1.2-16.22,2-7.87,1.17-16.19,2.42-23.55,5.58-2.29,1-5.6,2.35-6.7,4.8C159.7,298.25,161.94,301,164.17,302.2Z"/><path class="cls-3" d="M304.61,262.85c1.52-.59,3.08-1.09,4.64-1.56A2.88,2.88,0,0,1,309,261c-1-1.45-.55-3.37.1-4.84,1.45-3.33,5.84-5.24,9.1-6.12s9-1.9,11.47,1.21a4.52,4.52,0,0,1,.55.87c1.28-2.21,1.6-4.91-.23-7-5-5.83-15.06-4.51-21.16-1.47-8.39,4.19-14.43,11.37-19.73,18.9,1.57,2.12,3.12,4.26,4.61,6.43C296.56,266,300.91,264.26,304.61,262.85Z"/><path class="cls-3" d="M271.4,246.71a69.27,69.27,0,0,1-32.46,3.93,63.19,63.19,0,0,1-10.23-2.19c-7.87,6.65-11.8,16.47-15.61,25.79-4.68,11.46-9.41,23.26-10.45,35.72a1.94,1.94,0,0,1-.12.39,5.79,5.79,0,0,1,3.37,1.39c3.74,3.15,5.67,7.94,7.45,12.37.92,2.29,2,4.52,3.09,6.73.58-.75,1.26-1.44,1.66-1.94,2-2.47,4-4.88,6.12-7.27s3.88-4.53,6-6.62c.78-.77,2.18-2.44,3.5-2.47a2.47,2.47,0,0,1,1.68-1.07c10.43.21,20.87.27,31.3,0,8.62-.21,17.25-.6,25.85-1.28-.79-1.62-1.24-3.48-2.1-5.06a40.91,40.91,0,0,0-4.33-6.51,47,47,0,0,0-8.94-8.6,47.74,47.74,0,0,0-23.82-9c-8.76-.69-17.65,1.28-24.47,7.07A38.92,38.92,0,0,0,220,299.21c-2.16,4-3.35,8.46-6,12.16-.19.27-.72.38-.55-.09,1.84-5,3-9.94,5.76-14.54a41.35,41.35,0,0,1,9-10.61,36.63,36.63,0,0,1,25.17-8.26,48.93,48.93,0,0,1,25.33,8.59,47.76,47.76,0,0,1,10.79,10.11c2.72,3.51,6.75,8.7,6.44,13.37,3.27-.29,6.54-.64,9.8-1-1-12.14-6.17-23.62-12.74-33.77-3.4-5.25-7.12-10.28-11-15.2-3.37-4.28-7.45-8.41-10.29-13.06A.89.89,0,0,1,271.4,246.71Z"/><path class="cls-4" d="M317.68,252.24c-2.11.58-4.62,1.46-6.11,3.17-.88,1-1.48,2.79-.7,4a4,4,0,0,0,1.1,1.06c1.53-.42,3.06-.82,4.59-1.21,3.74-1,7.91-1.92,11.1-4.24C329.27,251.16,319.65,251.69,317.68,252.24Z"/><path class="cls-3" d="M215.84,263.36c-2.54-1.43-4.6-4.1-6.79-5.94a59.1,59.1,0,0,0-9.4-6.53c-5.14-2.84-13.93-6.71-18.08-.1a7.49,7.49,0,0,0,.38,8.8c1.66-2,5-1.23,7.1-.51,3.4,1.15,7.33,2.56,10,5.05,1,1,1.87,2.87,1.24,4.11a52.25,52.25,0,0,0,12.63,1.44C213.84,267.59,214.8,265.46,215.84,263.36Z"/><path class="cls-3" d="M174.45,214.65c-.37,0,0-.54.26-.55,2.46-.13,4.92-.21,7.39-.26.05-.08.09-.16.14-.23,1.58-2.65,3.13-5.3,4.69-8-2.6-.61-5.2-1.23-7.78-1.86-5.83-1.43-11.62-3-17.41-4.56-.82,1.72-1.65,3.44-2.45,5.18-8.45,18.32-16,38.89-12.56,59.32a229,229,0,0,0,18-22.22c2.87-4.07,5.57-8.27,8.2-12.51-1.42.34-2.84.68-4.26,1-.4.11-.08-.46.13-.53,1.58-.56,3.18-1.05,4.78-1.54,2.6-4.24,5.14-8.52,7.68-12.78C179,215.05,176.72,214.88,174.45,214.65Z"/><path class="cls-5" d="M191.46,148.65h0a1.89,1.89,0,0,1,1.71-.74,28.78,28.78,0,0,0,3.51-2.31c5.67-4.22,11.34-8.68,17.72-11.79.51-.24,1.12-.28,1.4.27,2.21,4.23,1.73,9.15,2.8,13.68.35,1.48.64,3,1,4.5a.61.61,0,0,1,.14.67,30.88,30.88,0,0,0,2.24,7.14c2.86-3.16,5.55-6.46,8.41-9.63s6.35-7.61,10.38-9.27,5.57,1.51,8.5,3.72a32.59,32.59,0,0,0,13.23,5.51,61.24,61.24,0,0,0,16.67.86,1.3,1.3,0,0,1,1.11-.09A80.66,80.66,0,0,0,292.84,149c4.15-1.07,8.21-2.44,12.24-3.89,3.17-1.14,7.27-2.32,9.61-4.89a1.68,1.68,0,0,1,.29-.25c-1.73-1.8-3.55-3.51-5.12-5.44-1.75-2.13-3.41-4.32-5.21-6.4a103.75,103.75,0,0,0-10.25-10.4c-16.34-14.22-37.73-21.86-59.29-16.91-22.7,5.21-39.74,21.31-53.71,39.12a.87.87,0,0,1-.08.84c1.27,3.15,3.09,7.53,6.74,8.21A6.76,6.76,0,0,0,191.46,148.65Z"/><path class="cls-4" d="M196.28,265.7a30.2,30.2,0,0,0-6.52-3.59c-1.6-.69-3.66-1.85-5.45-1.88-.85,0-1.29.18-1.47.48a19.54,19.54,0,0,0,7.71,5.12,49.41,49.41,0,0,0,7.26,1.91A4.17,4.17,0,0,0,196.28,265.7Z"/><path class="cls-3" d="M296.22,151.09A89.06,89.06,0,0,1,282.71,154c11.37,14,22.05,28.54,32.5,43.25l0,0c.94,1.31,1.89,2.62,2.83,3.94l2.79-.59c8.13-1.72,16.24-3.49,24.29-5.49a214,214,0,0,0-39.33-47.38C302.65,149,299.45,150.13,296.22,151.09Z"/><path class="cls-3" d="M216.49,154c-.33-1.64-.62-3.28-.91-4.86-.76-4.06-.51-8.45-2.17-12.28a90.11,90.11,0,0,0-11.61,7.49c-2.75,2-5.39,4.38-8.47,5.92a1,1,0,0,1-.09.13c-13.08,13.86-22.46,30-30.66,47,8.47,2.15,16.93,4.41,25.43,6.4Q202.58,179.12,216.49,154Z"/><path d="M248.3,204.67c-4.14,1.09-4.36,4.05-4.53,7.59a.74.74,0,0,1,.26,0c3.19.58,4.32,5.35,7.81,5.53,2.89.14,6-4.77,5.89-7.36C257.6,206.05,252.17,203.65,248.3,204.67Z"/><path class="cls-5" d="M307.14,311.81a1.36,1.36,0,0,1-.61.08c-24,3.06-48.43,3.26-72.59,2.69a99.58,99.58,0,0,0-9.55,9.61c-1.93,2.2-3.85,4.41-5.84,6.56-.34.36-.85,1-1.41,1.47,2.6,5,5.44,9.92,7.75,15.06.16.37-.54,1-.86.73-5.77-5.34-9-13-12.15-20.11-1.68-3.81-2.87-7.92-5.23-11.4-1.11-1.64-2.57-3.57-4.63-4-3.15-.68-5,2.09-5.62,4.81-.66,3.05-.86,6.15-1.58,9.18-.89,3.81-1.92,7.58-2.63,11.42-.16.87-2.29,2.46-2.46.9-.71-6.65-.33-13.34-.63-20-.11-2.36-1.1-6-.26-8.55-.06,0-.12,0-.17,0-3.3-.41-6.61-.75-9.89-1.27-4.67-.75-9.56-1.58-13.89-3.56a14.5,14.5,0,0,1-4.37-2.86,110.44,110.44,0,0,0,8.47,33c9.53,21.55,25.51,40.41,47.87,49.08,17.48,6.78,36.94,7.23,54.95,2.25a99.1,99.1,0,0,0,48.28-30.29A94.68,94.68,0,0,0,336,331a96,96,0,0,0,4.87-15.16c.93-4,1.42-8,2.07-12.06-4.52,2.7-11.6,3.84-14.52,4.46C321.35,309.73,314.26,310.89,307.14,311.81Z"/><path class="cls-3" d="M353.54,209.77a265.1,265.1,0,0,1-26.42,3.82c5.41,7.19,11,14.25,17,20.95,2.39,2.68,17.94,19.41,20.42,9.41,1.66-6.66-1.93-14.69-4.48-20.67C358.11,218.68,355.89,214.19,353.54,209.77Z"/><path class="cls-3" d="M347.66,199.28c-.51-.87-1.06-1.72-1.58-2.58q-12.81,3.86-25.9,6.71l-.48.1q2.93,4.06,5.93,8.08c9.18-.82,18.35-1.69,27.51-2.55Q350.5,204.11,347.66,199.28Z"/><path class="cls-2" d="M365.64,246.22c-2.26-2.84-5-3.65-7.94-6a128.33,128.33,0,0,1-10.36-9.84,308.27,308.27,0,0,1-21.8-25c-6.88-8.58-13.5-17.36-20.32-26-5.5-6.95-10.58-15.34-16.83-21.93,1.58-.36,3.07-.76,4.32-1.05,5.25-1.22,12.25-4.25,15.21-9,.11-.17.32-.56.09-.74l-.51-.39a1.58,1.58,0,0,0-1.71,0c-5.37,2.23-9.87,4.86-15.75,5.85-3.12.52-5.86.64-8.52,1.39-.11-.47-.51-.82-1.36-.9-6.52-.61-13-.3-19.45-1.45-4.77-.84-7.64-3.07-11.61-5.57a19.85,19.85,0,0,0-3.4-1.49,1,1,0,0,0,0-.55l-.29-.86c-.28-.85-1.18-.84-1.89-.74-9.8,1.37-16.87,13.33-22,21.6l-.07-.07a10.22,10.22,0,0,0-1-6.89,1.55,1.55,0,0,0-1.91-.79c-.35-.34-1.36,0-1.79.57-.13.17-.23.34-.36.51,1-3-1.06-7-.6-10.22.12-.84-.42-.87-1-.61.13-3.49.12-7,.15-10.55,0-.64-.91,0-1,.26s-.22.64-.34,1a3,3,0,0,0-1.45.22c-1.83.72-2.88,2.19-4.38,3.41a59.72,59.72,0,0,1-8.21,5.18c-5,2.84-10.89,5.59-14.7,9.9-.39.45-1.14,1.4-.76,2.06a1,1,0,0,0,.08.14c1,1.51,17.07-8,19.4-9.17a42,42,0,0,0,8.08-5c-1.39,6.26-2,12.6-4,18.76q-.53.66-1.08,1.41c-5.23,7-9.06,15.09-13,22.83-.57,1.12-1.19,2.23-1.78,3.35-3.38,4.84-6.86,9.62-10.27,14.4-6.71,9.42-12.78,19.08-18.55,29.1a204.83,204.83,0,0,1-11.35,18.15c-2.82,3.9-6.14,7.07-6.87,11.91-.3,2,1.73,1.27,2.64.48a60.89,60.89,0,0,0,11.1-13.53c.2.42,1.16.1,1.54-.38,13.23-17,23.86-36.61,34-55.63,4.47-6.45,8.79-13,12.65-19.81-1.48,3.41-2.91,6.85-4.48,10.22-4.16,5.58-8.29,11.12-10.76,17.62-1.55,1.85-3.1,3.71-4.62,5.6-.64.79-.17,1.63.81,1.25.75-.28,1.48-.63,2.2-1-1.23,9,4.78,16.49,11.27,22.33a83.53,83.53,0,0,0,32.86,17.8,14.55,14.55,0,0,1-3.36-.05,2.19,2.19,0,0,0-1.44.45.57.57,0,0,0-.54,0c-5.59,1.88-10.16,8.27-13,13.14-1,1.67.93,2.25,2.11,1.35.35-.26.68-.55,1-.83a56.51,56.51,0,0,0-6,7.13,1,1,0,0,0-.07-1c-1.78-2.34-3.13-2.21-6-2.82-4.42-.93-7.83-3.33-11.51-5.84a42.89,42.89,0,0,0-11.65-6c-3.15-.95-7.63,1.08-4.29,3.95a2.82,2.82,0,0,0-.38,2.28,6.7,6.7,0,0,0,1.83,2.58,9.25,9.25,0,0,0,3.73,2.17,21.85,21.85,0,0,0,3.39,2.72c5.2,3.48,10.14,4.07,16.05,2.64a19.14,19.14,0,0,0,7.55.52,1.76,1.76,0,0,0,.94-.54c-8.36,12.08-12.64,27.52-10.79,40.65.18,1.24,1.78.15,2-.51,4.13-10.68,4.82-22.22,9.33-32.89,6.38-15.12,20.67-23.52,36.76-22.49C276,256.66,297.05,288.78,302,312c.5,2.39,5.07-1,4.81-2.87a68,68,0,0,0-7.72-22.8,105.68,105.68,0,0,0-4.48-10.59,11.92,11.92,0,0,0-2.13-6.44c5.5-.58,9.79-3.61,14.56-6.32,4.15-2.35,9.75-2.83,14.37-3.68,3.93-.74,7.61-2.53,11.19-4.27.41-.2,1.57-1.83.43-1.75l-1.83.14a2.76,2.76,0,0,0,.72-1c2.66-6.81-12.87-2-15.44-1.13-8.48,2.93-21,7.33-25.59,15.71-1.14-1.5-2.36-2.91-3.37-4.21-.88-1.13-1.82-2.29-2.81-3.42a72.05,72.05,0,0,0-9.5-10.53c-.05,0-.12,0-.18,0a27.86,27.86,0,0,1-3-2.75c9.82-4.6,18.36-12.54,25.76-20.11,5.38-5.52,15.45-16.68,14.66-25.86a1.66,1.66,0,0,0,.89-.52c2.64,3.37,5.26,6.75,7.91,10.11a319,319,0,0,0,24.38,27.57c5.25,5.28,10.76,12.17,18.71,11.16C365.11,248.36,366.27,247,365.64,246.22Zm-62.57-32.17c-3.36,5.11-8.49,9.54-13,13.66-7,6.43-15.07,11.36-23.09,16.36-4.27-.2-8.16.54-12.54.93-7.25.62-14.46-.88-21.36-3-9.16-2.76-18.05-8.16-25.66-13.84-7.43-5.53-13.81-13.23-13.34-22.63,10.15-7.43,17.69-21.3,24.74-30.37,3.91-5,7.06-10.66,10.65-15.92a66,66,0,0,1,7-8.65,17.46,17.46,0,0,1,5.19-3.29c1.73,2.81,6.64,5.33,8.88,6.7,6.67,4.08,17.91,4.49,25.81,4,5.41,5,9.52,13.47,13.85,18.69q5.48,6.6,10.9,13.26a71.47,71.47,0,0,0,6.26,7.44C307.22,203.34,306.68,208.57,303.07,214.05Z"/><path class="cls-2" d="M315.32,307.6c7.2-1.12,14.61-2.26,21.6-4.4,1.24-.38,7.31-1.83,6.72-4.1-.66-2.52-3.65-4.2-5.77-5.33a68.81,68.81,0,0,0-11.38-4.69,110.19,110.19,0,0,0-23.81-4.75,65.69,65.69,0,0,1,6.56,24.15C311.27,308.21,313.29,307.92,315.32,307.6Z"/><path class="cls-2" d="M164.17,302.2c7.65,4.28,17.32,4.43,25.85,5.24,1,.09.81,1.09.21,1.88-.45,1.44.42,3.93.69,5.2a33.9,33.9,0,0,1,.69,5.94c.1,3.21.11,6.42.19,9.63.48-1.82.94-3.64,1.3-5.49.62-3.13.67-6.69,2.14-9.59a8.93,8.93,0,0,1,4.59-4.24,145.81,145.81,0,0,1,7.53-27.57c-5.41.65-10.83,1.2-16.22,2-7.87,1.17-16.19,2.42-23.55,5.58-2.29,1-5.6,2.35-6.7,4.8C159.7,298.25,161.94,301,164.17,302.2Z"/><path class="cls-4" d="M294.79,307.06h0c0-.05-.06-.09-.08-.14a1.27,1.27,0,0,0-.07-.12,6.53,6.53,0,0,0-5-3.46,12,12,0,0,0-1-5.46c-2.53-5.62-10.9-11.41-16.15-14.27a40.34,40.34,0,0,0-23.31-5c-10.82.91-26.87,9-30,20.46a30.59,30.59,0,0,0-4.06,8.32,54.07,54.07,0,0,0-3.51,19.28,1.58,1.58,0,0,0,2,1.75c.21.92.42,1.84.59,2.77.41,2.2,3.66-.43,4.17-1,4.36-5.21,9-10.12,13.25-15.29a1.54,1.54,0,0,0,1.17.55,219.16,219.16,0,0,0,26.88,0c7.25-.42,13.65.47,19.64-3.1l.69.36a17.19,17.19,0,0,0,8.75,1.61,7.38,7.38,0,0,0,6.19-5.3A2.88,2.88,0,0,0,294.79,307.06Z"/><path class="cls-2" d="M337,328a68,68,0,0,0,6.82-25.23c.11-1.5-2.34.12-2.45,1.17-4.06,39.91-38.21,63.52-75.88,68.2-20.13,2.51-41.77,1.1-60.54-6.84-9.45-4-17.75-10.24-25-17.43S169.74,331.31,164.11,323c-.14-.2-.52.21-.46.39A74.11,74.11,0,0,0,169.1,336c-.32.17-.62.59-.53.89,6.85,22.31,29.1,46.52,53.81,49.32a.21.21,0,0,0,0,.13,2,2,0,0,0,.78.63l-.55-.05c-.34,0-.93.63-.52.87,8.92,5.3,21.75,3.15,31.81,2.25,6.21,2.36,11.82.59,18.41-2,9.58-3.77,19.18-7.66,28-13.13,13.34-8.31,30.2-22.8,33.4-39.14,1.33-2.29,2.61-4.6,3.8-6.93C337.81,328.19,337.48,328,337,328Z"/><path d="M187.08,207.36c3.69,13.11,12.83,24.16,23.94,31.82A63.14,63.14,0,0,0,241.34,250a70.92,70.92,0,0,0,31.16-4.48,71.86,71.86,0,0,0,26-16.87,59.85,59.85,0,0,0,15.24-26.33c.33-1.24.61-2.5.85-3.76s-1.43-.35-1.57.4a56.33,56.33,0,0,1-13.16,26.5,68.49,68.49,0,0,1-24.29,17.44,70.54,70.54,0,0,1-30.15,5.81,62.89,62.89,0,0,1-30.16-8.8c-11.1-6.66-20.78-16.9-25.48-29.07-.56-1.43-1-2.9-1.46-4.38-.18-.62-1.37.3-1.21.87Z"/><path d="M243.66,212.8c-.65-3-.26-6.07,2.55-7.8a9.34,9.34,0,0,1,9.89.63c2.69,2,2.76,5,1.24,7.76-1.14,2.05-3,5.44-5.84,5.12a6.56,6.56,0,0,1-3.47-1.85,18,18,0,0,1-1.73-1.76c-.35-.4-.69-.83-1.05-1.22s-1-.67-1.4-1.09c-.2-.2-.67.25-.55.47.29.53.34,1.07.68,1.59a11.25,11.25,0,0,0,1.15,1.43,17.87,17.87,0,0,0,2.2,2.15,6.49,6.49,0,0,0,3.73,1.64c3.27.13,5.54-3.24,7-5.71a9.13,9.13,0,0,0,1.62-5.06,5.93,5.93,0,0,0-2.53-4.5,10.12,10.12,0,0,0-10.92-.47c-2.88,1.79-5,5.77-2.68,8.78,0,.06.14-.06.13-.11Z"/><path d="M270.36,193.78c-.13,2.91,1.56,6.51,4.65,5.41s2.39-6.69.8-8.49C273.44,188,270.53,190.07,270.36,193.78Z"/><path d="M230.28,192.93c0,2.92-1.83,6.44-4.87,5.21s-2.1-6.79-.44-8.52C227.45,187.05,230.27,189.21,230.28,192.93Z"/><path d="M250.52,219.08a58.77,58.77,0,0,0-.14,7.15c0,1.29-.07,2.58-.1,3.87a10.27,10.27,0,0,0,.09,3.5c0,.13.22-.06.24-.12a13.71,13.71,0,0,0,.27-3.45c0-1.36.07-2.72.09-4.08s.05-2.5,0-3.76a13.68,13.68,0,0,0-.19-3.26c0-.15-.29.07-.3.15Z"/><path d="M276,213c11.55-2.89,23.08-5.74,34.73-8.25,11.85-2.56,23.66-5.17,35.33-8.49,7.08-2,14.09-4.33,21-6.93.12-.05.23-.35,0-.28-23.14,8.07-47.27,12.08-71,17.84a186.29,186.29,0,0,0-20,5.82c-.12,0-.29.34-.08.29Z"/><path d="M276.87,216.62c10.2-.46,20.39-1.17,30.58-1.94,10.4-.78,20.81-1.59,31.17-2.86,5.69-.69,11.38-1.56,17-2.61.1,0,.26-.3.1-.28-20.39,2.56-40.86,4.13-61.34,5.78-5.83.47-11.65,1-17.45,1.75-.07,0-.18.17-.08.16Z"/><path d="M282.18,221.45c13.41,1.31,26.73,3.58,40.18,4.39.09,0,.23-.2.1-.21-13.34-1.58-26.67-3.44-40.06-4.63-.2,0-.5.43-.22.45Z"/><path d="M225.94,209.79c-12.1-.12-24.18-2.39-36-5-12.7-2.85-25.23-6.43-37.9-9.41-6.3-1.48-12.6-3-19-4.06-.13,0-.35.29-.19.32,24.52,5.06,48.3,13.45,73.12,17.17a111.52,111.52,0,0,0,19.74,1.38c.16,0,.4-.36.17-.37Z"/><path d="M220.36,215.12a108.31,108.31,0,0,0-11.4-.46q-5.66-.15-11.32-.27c-7.65-.17-15.35-.38-23-.15-.11,0-.3.25-.13.26,7.53.57,15.14.67,22.69.82q5.55.12,11.1.21c3.92.06,7.95.34,11.86,0,.17,0,.49-.4.2-.44Z"/><path d="M220.26,219.7c-4.11.22-8.24,1-12.32,1.57q-6.57.93-13.12,2.09a188.94,188.94,0,0,0-26,6.3c-.11,0-.25.31-.07.26a242,242,0,0,1,25.65-5.68c4.29-.74,8.6-1.4,12.9-2.06s8.62-1.1,12.83-2.07c.14,0,.41-.42.15-.41Z"/><path d="M308.41,309.82c-.76-20.45-13.21-38.1-25.47-53.56q-2.62-3.31-5.3-6.6l-2.5-3.09c-.53-.66-1.22-2-2.18-1.85-.38.06-1.45,1.28-.69,1.43a3.42,3.42,0,0,1,1.54.53c.51.36,1.57-.65,1.1-1.1a3.85,3.85,0,0,0-1.62-.86l-.87,1.45a28.36,28.36,0,0,1,1.82,2.41l2.25,2.79c1.48,1.83,3,3.66,4.42,5.5,3,3.78,6,7.6,8.78,11.54,5.6,7.88,10.62,16.29,13.8,25.46a57.37,57.37,0,0,1,3.29,16.73c0,1,1.66,0,1.63-.78Z"/><path d="M229,247.3c-6.77,4.48-10.84,12.23-14.16,19.4a204.78,204.78,0,0,0-10.39,26.24,117.69,117.69,0,0,0-3.91,17.89c-.14,1,1.29.21,1.36-.5,1.05-10.29,4.23-20.42,8.1-30,3.06-7.57,6-15.43,10.3-22.43a35.3,35.3,0,0,1,8.87-10.17c.29-.22.24-.71-.17-.44Z"/><path d="M180.61,140.32C193.38,122.91,210,107.19,231.13,101a64.1,64.1,0,0,1,28-1.88A68.86,68.86,0,0,1,287.2,110.7a92.13,92.13,0,0,1,14.58,12.6c2.49,2.61,4.83,5.35,7.06,8.18,2.37,3,4.84,6,7.19,9,.17.22.67-.25.55-.47a74.69,74.69,0,0,0-5.48-8.8c-2-2.64-4.15-5.19-6.38-7.64a96.46,96.46,0,0,0-13.28-12.19,72,72,0,0,0-28.35-13.28,64.75,64.75,0,0,0-28.75.59,80.34,80.34,0,0,0-27.52,13.08,106,106,0,0,0-24.32,24.53c-.89,1.24-1.7,2.53-2.54,3.8-.39.6.32.68.65.24Z"/><path d="M234.29,313.76c15.53.36,31.08.36,46.6-.46a309.15,309.15,0,0,0,46.1-5.56c5.14-1.05,10.79-2,15.38-4.65,2-1.16,4.25-3.19,3.57-5.75s-3.27-4.07-5.27-5.26a57.84,57.84,0,0,0-10.77-4.76A97.81,97.81,0,0,0,306,282c-2.07-.18-4.13-.34-6.2-.5-.71,0-1.73,1.5-.75,1.57a124.41,124.41,0,0,1,14.67,1.62,116.39,116.39,0,0,1,11.45,2.92,83.79,83.79,0,0,1,11.15,4.23c2.57,1.22,5.46,2.67,7.26,4.95,1.33,1.7,1,3.3-.71,4.53-3.77,2.68-9,3.47-13.37,4.43a295.48,295.48,0,0,1-44.45,5.78c-16.68,1-33.4,1.08-50.09.73-.67,0-1.62,1.45-.71,1.47Z"/><path d="M208.75,282.19c-11.21,1-22.47,2.06-33.38,4.91a55.25,55.25,0,0,0-8.88,3,16.74,16.74,0,0,0-5.74,3.82,5.63,5.63,0,0,0-1.56,4.92c.57,2.78,2.92,4.5,5.34,5.66,4.06,2,8.65,2.84,13.07,3.56,3.79.62,7.61,1,11.42,1.44.61.07,1.47-1.25.64-1.33-7.13-.74-14.4-1.22-21.27-3.45-2.77-.89-6.29-2.2-7.7-5a4.59,4.59,0,0,1,.21-5,13.31,13.31,0,0,1,5.25-3.79,49.12,49.12,0,0,1,8.34-2.93,151.75,151.75,0,0,1,19.62-3.7c4.78-.63,9.57-1.08,14.36-1.61.25,0,.63-.61.28-.58Z"/><path d="M159.31,297.89c-.38,12.51,2.38,25.27,6.9,36.89a100.92,100.92,0,0,0,19.27,31.4,80.75,80.75,0,0,0,45.83,25.16,94.11,94.11,0,0,0,49.37-5.21,103.07,103.07,0,0,0,42-29.86A100,100,0,0,0,345,305.92a53.12,53.12,0,0,0,.56-7.13c0-.73-1.14,0-1.2.44-.69,4.95-1.23,9.91-2.3,14.8A96.43,96.43,0,0,1,325.42,351a100,100,0,0,1-39.73,31.76,94.65,94.65,0,0,1-48.18,7.89,80.16,80.16,0,0,1-45-19.91A96,96,0,0,1,171,342a105.29,105.29,0,0,1-10.63-35.32c-.33-3-.51-6-.62-9,0-.3-.47,0-.48.23Z"/><path d="M217.54,153.41q-13,23.57-26.62,46.83Q184.05,212,177,223.62c-4.45,7.34-8.93,14.6-14,21.51a244,244,0,0,1-18,21.48l1.21-.14c-3.53-16.63.71-33.76,6.78-49.28,3-7.66,6.5-15.1,10.15-22.47a228.76,228.76,0,0,1,12.08-22.26,151.54,151.54,0,0,1,17.54-22.52c.82-.87,0-1.72-.84-.84a153.24,153.24,0,0,0-16.2,20.35A206.15,206.15,0,0,0,163.09,192c-7.57,15.18-15,30.82-18.24,47.58a70.65,70.65,0,0,0-.2,28c.13.58,1,.05,1.21-.14,5.68-6.09,11.11-12.42,16.16-19a240.4,240.4,0,0,0,14.26-21.22Q190.41,204,203.8,180.3q7.6-13.4,15-26.88c.55-1-.92-.66-1.27,0Z"/><path d="M314.47,198.1c-11.14-15.65-22.48-31.13-34.67-46-.5-.6-1.93.76-1.4,1.4,12.2,14.84,23.52,30.32,34.68,45.95.44.62,1.87-.71,1.39-1.38Z"/><path d="M306.06,146.63a211.92,211.92,0,0,1,21.17,21.73,171.18,171.18,0,0,1,13.83,18.22c5.2,8.15,10.18,16.46,14.62,25.06a136,136,0,0,1,7.14,15.87c1.55,4.25,3,8.84,2.94,13.41-.05,3-1.09,6.23-4.39,6.82-2.26.41-4.61-.78-6.47-1.92a41.91,41.91,0,0,1-7.14-5.88,160.26,160.26,0,0,1-11.52-13.18c-5.92-7.28-11.69-14.6-17.17-22.23q-2.31-3.21-4.6-6.44c-.44-.62-1.88.72-1.4,1.4,6.5,9.09,13,18.2,20.23,26.74,3.55,4.18,6.88,8.53,10.64,12.53a59.74,59.74,0,0,0,7.32,6.82,17.83,17.83,0,0,0,6.94,3.64,7.51,7.51,0,0,0,8.47-5.05c1.37-3.79.49-8.2-.5-12a91.54,91.54,0,0,0-6.09-15.81,275.21,275.21,0,0,0-16-28.53,199.16,199.16,0,0,0-31-37.32q-2.77-2.66-5.66-5.2c-.57-.51-1.86.81-1.3,1.3Z"/><path d="M180.51,140.34l-.1,0c-.28,0-.7.35-.65.65.5,3.5,2.42,7.71,5.71,9.42,2.8,1.45,6,.29,8.51-1.16,3-1.72,5.54-4.05,8.37-6,3.93-2.69,7.78-5.57,12.09-7.63l-.66-.13c2.18,4,1.78,8.94,2.6,13.3.44,2.35,1,4.71,1.52,7a22.94,22.94,0,0,0,2.63,7.13c.26.41.8.15,1.07-.13,5.21-5.48,9.67-11.67,15.28-16.77,1.27-1.16,3-3,4.73-3.25,1.43-.24,2.52,1.05,3.45,1.93a28.8,28.8,0,0,0,9,5.75c7,2.95,15.11,3.59,22.6,3.22a83.12,83.12,0,0,0,22.29-4.32c3.13-1.05,6.28-2.1,9.35-3.34,2.69-1.09,5.77-2.36,7.72-4.6.78-.89,0-1.75-.83-.84-1.77,2-4.64,3.11-7.07,4.09-2.76,1.11-5.58,2-8.39,3a83.11,83.11,0,0,1-22.76,4.49c-7.77.37-15.85-.43-23-3.59a25.07,25.07,0,0,1-5.08-2.85c-1.38-1.06-2.51-2.4-3.87-3.48-2.38-1.88-4.76-.35-6.82,1.32-6.57,5.34-11.47,12.39-17.28,18.5l1.07-.13a22.52,22.52,0,0,1-2.59-6.92c-.55-2.4-1.11-4.82-1.57-7.23-.84-4.35-.49-9.27-2.67-13.26-.14-.26-.43-.24-.67-.13-6.84,3.28-12.57,8.3-18.77,12.56-2.46,1.69-5.68,3.59-8.75,2.43-3.48-1.32-5.33-5.64-6.28-8.94l-.63.74a1.33,1.33,0,0,0,.93-.5c.42-.43,0-.79-.41-.41Z"/><path d="M287.73,264.29c4.17-6.61,9-12.92,15.32-17.67,5.46-4.11,12.3-7,19.25-6.13,5.32.68,11.37,4.13,9.33,10.37s-10.24,7.94-15.77,9.34a108.75,108.75,0,0,0-11.31,3.37c-4.28,1.61-8.79,3.68-11.88,7.14-.23.26-.13.62.24.38a62.35,62.35,0,0,1,12.64-6.61c3.51-1.24,7.11-2.15,10.71-3.08,6-1.54,13.64-3.6,16.34-9.85a8,8,0,0,0-.52-8c-1.63-2.22-4.39-3.42-7-4-6.77-1.57-13.86.63-19.57,4.3-7.64,4.92-13.78,12.47-18.06,20.42-.11.22.19.19.28.05Z"/><path d="M217.19,263.06c-1.08-2.68-3.37-4.86-5.47-6.76a58.76,58.76,0,0,0-8.13-6.17c-4.6-2.93-10.56-6.27-16.21-5-5.24,1.2-9.78,6-9.16,11.63.63,5.83,5.67,9.33,10.76,11.24a65.61,65.61,0,0,0,10.08,2.47c4.24.85,8.58,1.72,12.93,1.45.65,0,1.57-1.51.7-1.45a43.59,43.59,0,0,1-10.85-1.06c-2.88-.55-5.81-1-8.65-1.79-4.78-1.29-10.41-3.66-12.63-8.44a8.9,8.9,0,0,1,6-12.52c5.25-1.43,10.92,1.74,15.27,4.37a58.73,58.73,0,0,1,8.43,6.19c2.25,2,4.2,4.27,6.46,6.21.19.16.55-.2.47-.39Z"/><path d="M213.85,311.33c2-3.21,3-7,4.64-10.37a41.77,41.77,0,0,1,6.07-9.31,32.7,32.7,0,0,1,17.65-10.71c13-2.9,27.18,1.51,37.41,9.71a47.65,47.65,0,0,1,8.18,8.49,39,39,0,0,1,3.63,5.7c1,2,1.63,4.14,2.54,6.18.28.63,1.26-.29,1.23-.73-.31-3.84-2.66-7.62-4.8-10.72a48.64,48.64,0,0,0-7.73-8.73,49.42,49.42,0,0,0-17.9-10.06,43.49,43.49,0,0,0-20.32-1.57,34.49,34.49,0,0,0-18.39,9.51,41.63,41.63,0,0,0-7.41,10,47.38,47.38,0,0,0-2.53,5.69c-.87,2.29-1.48,4.67-2.53,6.89-.1.22.18.18.26.05Z"/><path d="M312.58,261.26c-.46-.28-1-.27-1.49-.59a2.63,2.63,0,0,1-.94-1.33,4.33,4.33,0,0,1,.9-4c1.54-1.91,4.17-3,6.46-3.63a15.21,15.21,0,0,1,7.54-.48c1.93.45,5.31,2.64,2.54,4.44-.09.06-.3.43,0,.41,2.32-.2,3.08-2.56,1.58-4.26s-4.42-2.08-6.66-2a21,21,0,0,0-8.22,2.21c-2.08,1.06-4.24,2.63-5,5a4.34,4.34,0,0,0,.35,3.72,2.16,2.16,0,0,0,2.92.67c.06,0,.13-.14.05-.19Z"/><path d="M186.19,265.9a13,13,0,0,1-3-2.59c-.55-.75-1.39-2.29-.58-3.14,1.36-1.45,4.89.29,6.32.86a35.72,35.72,0,0,1,7.08,3.53c1.25.85,3.35,2.35,2.52,4.12-.14.3.14.38.35.23,4.18-2.82-4.51-6.91-6.32-7.72a38.21,38.21,0,0,0-6.22-2.26c-1.65-.41-4.27-.08-4.74,1.91-.54,2.28,2.16,5.07,4.25,5.44.14,0,.5-.25.32-.38Z"/><path d="M189.81,308.81c-.93,1-.74,2.85-.66,4.12.14,2.24.53,4.44.61,6.69.24,6.29-.07,12.6.63,18.87.08.73,1.09,0,1.16-.43.64-3.53,1.57-7,2.43-10.47.6-2.48,1-4.92,1.37-7.44.32-2.17.64-4.94,2.23-6.59a5.12,5.12,0,0,1,4.93-1.58c3.27.91,5.23,4.7,6.61,7.5,1.61,3.27,2.8,6.73,4.32,10,2.95,6.43,6.11,12.93,10.8,18.28.13.16.5-.19.41-.35-3.57-6.14-7.06-12.3-10.08-18.74-1.65-3.53-2.9-7.25-4.74-10.68-1.5-2.79-3.71-6.49-7.11-7.13a6.07,6.07,0,0,0-4.55,1.22,8.67,8.67,0,0,0-3.25,5.29c-.71,2.82-.87,5.73-1.58,8.55-1,4.12-2.18,8.2-2.93,12.38l1.16-.42c-.63-5.73-.4-11.49-.61-17.23a45.33,45.33,0,0,0-.67-6.28c-.16-1-.32-2-.4-3,0-.73-.26-1.84.22-2.45.2-.26-.11-.4-.3-.19Z"/><path d="M215.57,333a13.22,13.22,0,0,0,2.78-2.66c1.43-1.6,2.84-3.22,4.24-4.84a129.54,129.54,0,0,1,8.82-9.62,13.56,13.56,0,0,1,1.43-1.2l.46-.29a1.06,1.06,0,0,0,.19-.12c.31-.25.19-.31.13-.15,0-.09.24-.13.24-.26s-.17-.59-.34-.64-.5.13-.66.21a7.07,7.07,0,0,0-1.4,1.1,98.35,98.35,0,0,0-8.41,9.14c-1.63,1.89-3.24,3.8-4.84,5.71a28.53,28.53,0,0,0-2.75,3.55c-.05.1,0,.11.11.07Z"/></g></g></svg>