<svg xmlns="http://www.w3.org/2000/svg" viewBox="0 0 500 500"><defs><style>.cls-1{isolation:isolate;}.cls-2{fill:#b1bbc4;mix-blend-mode:multiply;}.cls-3{fill:#fffae6;}.cls-4{fill:#ffc0c0;}.cls-5{fill:#ff6679;}.cls-6{fill:#ffc764;}.cls-7{fill:#8acdff;}</style></defs><title>Prancheta 2</title><g class="cls-1"><g id="Camada_1" data-name="Camada 1"><path class="cls-2" d="M374.93,401.84c-5.08-5.33-12.83-5.74-19.78-6.14-14.48-.85-28.74-1.91-43.28-1.92q-3.31,0-6.64,0c-13.89-3.12-28.75.31-42.87,3a49.9,49.9,0,0,0-9.8,1.71c-1.52.23-3.1.5-4.7.83-2.35-.34-4.45-.57-5.9-.77-5.15-.72-10.38-1.2-15.64-1.48-7.09-3.81-15.73-1.62-23.39-1a204.77,204.77,0,0,0-34.09,6c-9.81,1.82-20.07,3.62-29.09,7.3a12,12,0,0,0-4.32,3.84c-2.17,1.76-3.48,3.8-3.29,6.17.91,11.73,24.16,9.82,31.83,9.75,23.66-.23,47.06-.56,70.62-3,6.53-.68,17.68-1.58,24.64-6.11,14.37.71,28.78-.36,43.12-1.31,14.08-.94,28.19-1.53,42.28-2.39,9-.55,19.11-.11,26.86-5.31C373.84,409.49,377.6,404.65,374.93,401.84Z"/><path class="cls-3" d="M277.86,158.6l-1.2,2.6a171.53,171.53,0,0,0,10.46-14.89,98.18,98.18,0,0,1,11.26-15,148.88,148.88,0,0,1,14.95-14.12c5.21-4.34,10.68-8.9,16.58-12.26a1.27,1.27,0,0,1,1.43,0c.53.5.36,1.14-.13,1.78-.22,10.46,1.22,20.87,7.19,29.74,3.33,4.93,7.75,10.26,13.12,13.13,1.63.87,3.69,1.79,5.6,1.49a4.65,4.65,0,0,0,3.33-2c2.69-3.7,3.21-8.93,3.34-13.36.39-12.53-2.62-26.42-9.49-37-3-4.6-7-9-12.26-10.93A16.21,16.21,0,0,0,334.2,87c-2.58.4-4.55,2.17-6.61,3.7-2.7,2-5.32,4.14-7.81,6.4-15.93,14.49-27.46,32.61-37.33,51.56C280.93,152,279.41,155.29,277.86,158.6Z"/><path class="cls-4" d="M327.19,109.94c-3.14,2.26-6.3,4.45-9.32,6.88a156.74,156.74,0,0,0-16.46,15,116.76,116.76,0,0,0-12.8,16.82c-.56.86-1.14,1.8-1.73,2.75.14-.15.27-.31.42-.46a105.88,105.88,0,0,1,13.48-11.71,94.91,94.91,0,0,1,15.2-9.07,82.45,82.45,0,0,1,8.15-3.34,25.65,25.65,0,0,1,5.49-1.55,39.33,39.33,0,0,1,.11-17C328.67,109,327.52,109.7,327.19,109.94Z"/><path class="cls-3" d="M242,288.15c.49-.23,1-.44,1.49-.66-1.07-1-2.11-1.95-3.1-3C241,285.71,241.5,286.92,242,288.15Z"/><path class="cls-3" d="M276.47,161.6l-.35.75c.7-.15,1.39-.26,2.09-.34a12.43,12.43,0,0,1,.69-1.23,11.63,11.63,0,0,1-1.95,1.08C276.63,162,276.46,161.83,276.47,161.6Z"/><path d="M300.25,263.06c3.31.33,5.26,4.07,8.66,4.08,3,0,4.87-5.7,4.66-8.11-.39-4.74-6.59-6.46-10.44-4.6s-3.57,5.08-3.1,8.68A.79.79,0,0,1,300.25,263.06Z"/><path class="cls-4" d="M297.58,60c-4.14,4.09-6.94,9.31-9.59,14.42-2.74,5.28-5.67,10.45-7.86,16-5.56,14.06-8.41,29.38-10.18,44.35-.89,7.47-1.51,15-1.94,22.48-.21,3.78-.38,7.56-.53,11.35-.08,2.31-.12,4.67-.37,7,1.84-4.13,3.88-8.17,5.85-12.26,3-6.31,6-12.66,9-19q8.37-17.77,16.15-35.82c5.11-11.87,10-24,12.84-36.64.19-.85.39-1.77.59-2.72-.39-3.47-.22-7.76-2.35-10.53C306,54.44,300.68,56.92,297.58,60Z"/><path class="cls-3" d="M281.68,264c.56-.09.15.67-.19.75-15.6,3.81-32,3.31-48,2.56l-.89-.05a50.56,50.56,0,0,0,5.63,9.72c5.48-1.18,11-2.22,16.5-3.17,7.38-1.27,15-3.1,22.48-3.41.59,0-.06.83-.33.91-7.64,2.25-15.81,3.32-23.65,4.64-4.69.78-9.39,1.55-14.11,2.2a49.68,49.68,0,0,0,5.5,6c.73.67,1.5,1.29,2.26,1.93q3.41-1.44,6.82-2.77c7.8-3,16-6.56,24.2-8.24.62-.13.19.67-.1.81-7.93,3.9-16.73,6.31-25,9.42-1.58.6-3.13,1.21-4.69,1.82a67.43,67.43,0,0,0,62.5,11.28c16.88-5.56,31.95-17.86,39.27-34.11-3.26.23-6.51.47-9.76.77-.58,0,.05-.92.46-1q4.91-.53,9.82-1a54.55,54.55,0,0,0,2.23-6.41c-6.18,1.62-12.38,3.13-18.64,4.38-.23.05-.09-.27,0-.31,6.3-2.33,12.72-4.31,19.17-6.16,0-.1.06-.2.08-.3a55.38,55.38,0,0,0,1-6.38l-1,.42c-6.95,3.09-13.8,6.46-20.85,9.32-.43.18-.34-.34-.09-.5a151.69,151.69,0,0,1,22.17-11.93,57.29,57.29,0,0,0-3.94-24.29c-4.39-11.12-11.93-20.46-20.68-28.48a126,126,0,0,0-30.45-20.89A75.43,75.43,0,0,0,285,166.05a67.2,67.2,0,0,0-9.7-2,146.61,146.61,0,0,1-9.18,17.52c-.31.48-1.87,1-1.49,0,.21-.57.45-1.12.67-1.68a12.85,12.85,0,0,1-.66-3.84,255.07,255.07,0,0,1,3.27-50.21c2.56-15.63,6.21-31.31,13.79-45.34,5-9.31,10-22.93,20.91-26.87C306.68,52.19,311,52.87,313,57c-.07-4.21-1-8.22-3.53-11.19-3.89-4.5-10.22-4.12-15.07-1.38-5.51,3.11-9.75,8.22-13.31,13.36a132.9,132.9,0,0,0-18,38A175.57,175.57,0,0,0,256,141.66c-.36,15.39,1.32,30.55,3.09,45.8.05.51-1.16,1.47-1.33.79-.73-2.95-1.34-5.93-1.87-8.94a165,165,0,0,0-16.54,26.5c-4.22,8.35-8.45,17.26-10.2,26.52a59.94,59.94,0,0,0,2.73,32.93C248.52,266.19,265.17,266.66,281.68,264Zm46.21-28.81c2,1.49,3.8,7,.88,8.68s-5.29-1.57-5.73-4.52C322.47,235.55,325,232.92,327.89,235.14Zm-26.14,18.07c4-2.53,12.32-3.23,14.13,2.5,1.37,4.35-1.34,11.27-5.37,13.54a4.93,4.93,0,0,1-1.31.5,42.6,42.6,0,0,1,1.24,6.35c.39,2.21,1.26,4.7.76,6.91,0,.14-.34.48-.49.3-1.36-1.55-1.19-4.49-1.52-6.47-.37-2.22-1-4.61-1.2-6.92-3.64.16-8.05-2.46-8.67-5.76a.91.91,0,0,1,.12-.54C295.57,261.25,298.8,255.09,301.75,253.21Zm-25.06-9.13c2-3.07,5.23-1.45,6,2.27.58,2.93-.57,6.82-3.87,6.19S275.36,246.14,276.69,244.08Z"/><path class="cls-3" d="M269.55,301.94a149.11,149.11,0,0,0-8.36,19.66c-3.81,10.66-7,21.55-9.8,32.53a94.47,94.47,0,0,1-3,13.2c-1.44,8-1.73,16.18,2.12,23.8,4.92,9.73,14.61,15.74,24.82,18.79a74.47,74.47,0,0,0,21.36,3.38c7.81,0,15.54-1.69,23.08-3.66a.51.51,0,0,1,.4,0c6.78-3.4,14.65-4.58,21-8.85a60.17,60.17,0,0,0,11.23-10.26c4.67-5.23,9.23-10.57,13.71-16,5.4-6.51,10.66-13.15,15.55-20.06,4-5.61,8-11.52,10.56-17.95,1-2.64,2.74-8.1-1.72-8.48-8.76-.74-16.71,6.49-21.95,12.63-13.65,16-20.36,36.24-32.14,53.42a.6.6,0,0,1-.37.23h0c-.13,0-.23,0-.25-.15-4.13-4.75-5.83-10.91-8.17-16.65-2.52-6.19-5.37-12.83-10.27-17.56-14.38-13.89-30.66,9.66-36.28,21.2-.17.36-1.19.88-1,.13,2.38-9.73,9.67-19.38,18.12-24.71,6-3.77,13.13-5.87,19.45-1.6,6.07,4.1,9.59,11.41,12.4,18a87.76,87.76,0,0,1,6.33,20.12c5-8.33,9.22-17.16,13.69-25.82,0,0-.06-.1,0-.22,2.12-7.36,4.71-14.51,7-21.8,1.19-3.75,2-7.67,3.2-11.39a77.71,77.71,0,0,0,3-10.9,36.63,36.63,0,0,0,.4-12.7c-.41-2.33-1.3-6-3.77-7.06-4.77-2.06-8,5.16-9.24,8.74-6.2,17.82-7.35,36.85-11.5,55.14,0,.49-.05,1-.12,1.47s-1.23,1.35-1.37.51c-1.27-7.76-2.52-15.34-5.58-22.65-1.78-4.26-4.36-9.57-8.12-12.82a55.72,55.72,0,0,1,.84,8.35c.08,4.41.49,10.83-2.19,14.56-.3.41-1.12,1-1.49.37-1.12-1.89.13-5.14.29-7.2a61.77,61.77,0,0,0,.2-7.07,59.24,59.24,0,0,0-2.33-14.6,86,86,0,0,0-5.2-13.2c-2.1-4.29-4.95-8.37-6.52-12.89A68.81,68.81,0,0,1,269.55,301.94Zm31.25,30c-.43,4.08-.71,8.27-1.42,12.31-1.07,6.12-2.44,16.62-10.2,17.69-7.2,1-9.41-7.1-9.79-12.81a57,57,0,0,1,1.16-14.68c1-5,2.34-10.41,5.34-14.59.15-.21.92-.52.73,0-1.52,4.42-3.26,8.58-4,13.23a64.24,64.24,0,0,0-.9,13.5c.21,4.21,1.76,14.18,8.11,12.79,3.77-.83,4.73-4.51,5.56-7.89a47.85,47.85,0,0,0,1.53-9.13c.18-3.75.81-7.47,1-11.23.2-3.39-.39-6.44-.73-9.78-.08-.83,1.27-2.07,2.05-1.47C302.29,322.18,301.14,328.65,300.8,331.9Z"/><path class="cls-3" d="M337.44,315.61a13.09,13.09,0,0,0,2.41-14c-2-4.59-6.67-6.36-10.86-3.1a42,42,0,0,0-11.91,15.6,67.66,67.66,0,0,1,4,9.09C326.13,319.82,333.1,320.09,337.44,315.61Z"/><path class="cls-5" d="M236.53,367.27c-.71-6.84-1.24-13.67-2.22-20.48a268,268,0,0,0-9.49-42.32A347.4,347.4,0,0,0,211.31,268c-.33-.74-.67-1.48-1-2.22-2.59-.18-5.18-.34-7.77-.5,5.42,12.74,8.77,26,12.09,39.5,3.91,15.85,7.57,31.76,10.37,47.84,1.39,7.95,2.6,15.91,3.22,23.95.31,4.1.46,8.22.91,12.3.28,2.54,1,5,1.28,7.54a79.54,79.54,0,0,0,6.51-9.18,1.3,1.3,0,0,1,0-.4C237.9,380.27,237.21,373.83,236.53,367.27Z"/><path class="cls-6" d="M213.65,266.33a330.2,330.2,0,0,1,14.09,37.2,268.85,268.85,0,0,1,9.74,42.79c1,7,1.64,14.09,2.41,21.15a92.4,92.4,0,0,1,.85,12.71,88,88,0,0,0,5.47-14.53q.91-4.25,2-8.47a100.27,100.27,0,0,0,1.64-19.42,123,123,0,0,0-10.21-47.22c-3.83,1.63-7.62,3.34-11.38,5.16-.42.2-.25-.36,0-.5,3.54-2.07,7.21-3.95,10.94-5.72q-2.44-5.48-5.41-10.69c-1,.11-1.91.24-2.87.33-.34,0,0-.51.2-.55l2.24-.52c-.59-1-1.19-2-1.81-3q-2.61-4.21-5.51-8.21c-4.17-.26-8.34-.52-12.51-.82Z"/><path class="cls-5" d="M189.56,241.92a123.89,123.89,0,0,1,11.06,19c.42.91.81,1.84,1.21,2.76,2.55.08,5.1.17,7.65.29-2.11-4.53-4.4-9-6.94-13.29-3.15-5.34-6.43-11-10.51-15.73-3.21-2.14-6.46-4.24-9.71-6.41a.48.48,0,0,1-.22-.44c-.92-.36-1.83-.72-2.75-1.06a50.46,50.46,0,0,1,3.21,4.78C184.72,235.32,187.19,238.58,189.56,241.92Z"/><path class="cls-6" d="M117.4,309.75c-1.83-16.31-2-33.55,2.26-49.53,1.31-4.9,2.39-9.86,4.11-14.64l0-.1a80.06,80.06,0,0,0-5.21,9c-9,18.1-12.7,38.84-12.46,59,.26,21.37,4.54,43.17,14.72,62.13,7.81,14.54,19.56,27.35,34.11,35.06a74.75,74.75,0,0,1-8.27-11.43C130.62,372.25,120.9,340.88,117.4,309.75Z"/><path class="cls-6" d="M212.61,264.16q6,.31,11.94.68A121,121,0,0,0,210,248.61a128.73,128.73,0,0,0-15.57-12,89.28,89.28,0,0,1,10.11,12.71A139.77,139.77,0,0,1,212.61,264.16Z"/><path class="cls-5" d="M183,418.14a59.26,59.26,0,0,0,23.41-4.2,170.63,170.63,0,0,1-11-21.59c-3-7.55-5.11-15.49-7.36-23.31-4.7-16.34-9.14-32.78-13-49.35-3.82-16.4-7.87-32.89-10.88-49.45a209.29,209.29,0,0,1-3-23.53c-.52-7.85-.75-15.73-1.6-23.56a34.5,34.5,0,0,0-5.7.51,38.51,38.51,0,0,0-11.8,4.25,117.86,117.86,0,0,0-5.8,17.39c-3.63,14.63-4.56,30.25-4,45.29a198,198,0,0,0,7.36,45.4,238.5,238.5,0,0,0,17.45,44.65c3.57,6.93,7.44,13.76,11.68,20.31,4,6.15,8.37,12.05,14,16.82A.74.74,0,0,1,183,418.14Z"/><path class="cls-7" d="M132,312.88c-4.16-28.11-2.31-57.88,8.88-84.26A51.58,51.58,0,0,0,127.11,241c0,.11-.12.21-.17.32-2.38,4.9-3.41,10.27-4.49,15.57A151.48,151.48,0,0,0,119.22,279c-.93,16.93,1,33.64,4.53,50.19A237.27,237.27,0,0,0,138,375c5.93,13.58,13,28.5,24.45,38.28a.78.78,0,0,1,.22.8,64.31,64.31,0,0,0,10.51,3c1.47.28,2.94.49,4.41.66-5.23-5.17-9.42-11.31-13.24-17.58C148.08,373.53,136.6,343.87,132,312.88Z"/><path class="cls-7" d="M166.76,270.71c3.18,16.2,7,32.36,10.74,48.43,3.9,16.56,8.32,33,13.06,49.33,2.25,7.79,4.27,15.74,7.45,23.21a186.83,186.83,0,0,0,10.84,20.94.55.55,0,0,1,.06.28A59.28,59.28,0,0,0,227.19,400c-.26-3.57-1.14-7.05-1.37-10.63-.27-4.11-.48-8.23-.79-12.34-.59-8-1.79-15.84-3.14-23.7-2.76-16-6.33-31.91-10.1-47.72-3.3-13.86-6.7-27.53-12.5-40.55-4.88-.3-9.76-.55-14.65-.68-.45,0,0-.69.34-.7,4.54-.16,9.1-.16,13.66-.07-.28-.61-.54-1.22-.83-1.83a141.19,141.19,0,0,0-11.38-19.41c-3.64-5.24-6.49-10.79-9.72-16.23a52.6,52.6,0,0,0-16.13-3,208.59,208.59,0,0,1,2.73,22.58A234.35,234.35,0,0,0,166.76,270.71Z"/><path class="cls-2" d="M386.85,344.5c-7.1,12.12-17.27,21.67-25.72,32.79-1.21,1.59-2.51,3.09-3.86,4.57-.1-.2-.37-.27-.68,0-2.48,1.83-4.88,3.8-7.19,5.83-.44.38-1.07.91-1.72,1.51-.26-.14-.85.17-1,.41-3.49,4.66-11.65,8.87-16.59,11.53a83.08,83.08,0,0,1-22.7,7.86c-13.74,2.84-29.52,1.29-40.15-8.44a41,41,0,0,1-2.68-11.3c-1.44-11.55-.17-23.77,1.78-35.14,3.62-21.21,15.3-53.4,42.29-49.33.64,9.3,5.46,17.15,6.88,26.35,1.26,8.16-3.28,19.62,2.36,26.31.42.51,1.06.36,1.65,0,.09.25.16.5.26.76.27.7,1.22-.29,1.32-.64a.79.79,0,0,0,0-.13c0,.74.07,1.48.14,2.22.64,6.77,4.18,13.05,7.08,19a1.36,1.36,0,0,0,1.63.83,69.24,69.24,0,0,0,1.79,7.37c.36,1.19,1.34,1.26,2.41.79a8.92,8.92,0,0,0,.56,3,1.08,1.08,0,0,0,.14.36,1.47,1.47,0,0,0,.06.14c0,.21-.07.43-.1.64-.6,3.48,4.24,1,4.68-1.17a10.72,10.72,0,0,0,.4-2.62.59.59,0,0,0,0-.13c3.12-6,6.41-11.93,9.05-18.17.61-.8,1.17-1.63,1.68-2.43a2.43,2.43,0,0,0,.53-2.13,25.71,25.71,0,0,0,2.91-7.64A.63.63,0,0,0,354,357c.63-1.34,1.2-2.66,1.74-3.9,3.67-8.49,6.16-17.78,8.34-26.75,1.51-6.19,4-16.2-.21-21.72-.49-.63-1.54.62-1.53,1.11.18,10.52-.56,19.49-3.58,29.72q-1.83,6.17-3.88,12.27c-1.26,3.79-12.25,28.51-16.82,16.46a.55.55,0,0,0-.19-.26c-.12-.63-.24-1.25-.35-1.85-1.76-9.49-4.92-20.37-11.86-27.51a24.27,24.27,0,0,0-.51-3c-.31-1.3-2.38.6-2.38,1.42,0,1.4-.1,2.8-.2,4.2a16.28,16.28,0,0,0-1.45-6.35.47.47,0,0,0-.21-.21c-.06-.68-.12-1.38-.18-2a29.88,29.88,0,0,0-1.45-6.7,2.61,2.61,0,0,0,2.39.26c.21.32.64.47,1.42.28l.09,0a2.1,2.1,0,0,0,1,.05,16.71,16.71,0,0,0,5-1.68l2.88-.83a4.53,4.53,0,0,0,2.6-3.63,57,57,0,0,0,5.07-3.08c.61-.47,1.81-2,.64-2.56a1.61,1.61,0,0,0-.36-.1c2.28-2.15,3.91-4.69,3.26-7.17-.16-.61-1.06.07-1.22.3-1,1.46-1.52,3.11-2.53,4.6a16.56,16.56,0,0,1-7.12,5.43c-5.33,2.38-9.81.75-14-2.78-.36-.31-1.1.38-.92.78a8.46,8.46,0,0,0,.43.79,4.55,4.55,0,0,0-2,1.59c-1.91-3.76-4-7.44-5.7-11.16-.19-.41-.58-.34-.94-.09a16.21,16.21,0,0,0-3-1.58A74.17,74.17,0,0,0,326,291c0,.36.31.61.8.4,8-3.41,13.84-9.44,19.18-16.1,3.63-4.53,10.17-14.38,6.79-20.38a.35.35,0,0,0-.22-.15c4.67-14,4.94-29.39-2.75-41.8-.37-.61-1.24.32-1.14.82,4.21,21.68,1.4,41.92-11.71,60.12a64.11,64.11,0,0,1-26.11,20.7,89.26,89.26,0,0,1-13.78,4.55c-7.94-2.23-16.11-1.36-24.24-3a46,46,0,0,1-25.43-15.07c-7.2-8.09-11.52-19.42-14.05-29.79-3.43-14,1.29-26.68,3.89-40.21.16-.81-.88-.25-1.07.14-12,25.33-12,49,4.1,72.76,6.34,9.31,16.93,15.76,28.31,18.52,0,2.46-4.52,9.72-5.17,11.18-2.62,5.8-5.37,11.52-7.67,17.46q-2.78,7.19-4.91,14.53c1.65-14-1.69-28-5.41-41.51,0-.13-.11-.18-.19-.19a61,61,0,0,0-.44-8.61c-.22-1.82-2.58.25-2.69,1.28-.93,8.87-.74,17.56-3.19,26.23s-7.9,16.27-13.78,22.88c-10.81,12.15-25.47,20.49-41,24.69-27,7.29-65.73,2.52-75.67-27.3-.12-.37-.64.19-.66.4a21,21,0,0,0,4.81,14.72c6.79,27,39.3,66.23,70.8,61.72-.15.31-.16.62.26.69,9.44,1.55,21.52-4.48,29.82-8.69a51,51,0,0,0,20.69-20.13c.25-.43.48-.88.73-1.32A56.9,56.9,0,0,0,242,378.43a2.5,2.5,0,0,0,.62-.77c.43-.93.82-1.87,1.2-2.82a30.42,30.42,0,0,0,2-3.95,43.93,43.93,0,0,0,3,19.21c2.62,6.54,7.87,14.57,15.18,15.25,2.82,5.21,7.3,8.32,14.13,7.78a1.14,1.14,0,0,0,.54-.27c9.13,3.28,20.45,2.33,30,.34A100.39,100.39,0,0,0,331,405.72c-.41.39-.83.77-1.23,1.17s-.21,1.2.46.74l6.69-4.54a2.19,2.19,0,0,0,2.06-.06c1.82-.94,3.59-2,5.37-3v0a4.14,4.14,0,0,0,2.25-2.58,1.58,1.58,0,0,0-.12-1.07,93.17,93.17,0,0,0,16.1-14.95c5.07-6.14,9.31-13,14.34-19.22,4.4-5.44,8.6-11,11-17.62C388.27,343.56,387.15,344,386.85,344.5Z"/><path class="cls-2" d="M300.45,320.31c-.21-.32-.72.3-.72.52-.07,7-.69,13.82-1.29,20.8-.7,8.24-2.5,14.2-8,19.69.21-1-.64-1.63-1.74-.78-.13.1-.24.21-.36.31h0l0,0a9.19,9.19,0,0,0-1.18,1.15,9.82,9.82,0,0,0-.47-2.15c-.17-.46-.79.2-.85.41-.86,2.75-1.3,5.59-2.17,8.33-.92,2.93-2.17,5.78-3.27,8.65-.74,1.92,1.49,1.5,2.25.39a23.25,23.25,0,0,0,2.79-6c.41-1.25.74-2.7,1.19-4.11.06.08.07.17.15.24.48.5,1.43.15,1.87-.22a11.29,11.29,0,0,0,3-3.86c5.56-2.48,8.42-8.5,9.72-14.63C303,341.15,305,327.3,300.45,320.31Z"/><path class="cls-2" d="M308.56,56.86a2.09,2.09,0,0,0,.18-.55c.35-4.42-9.22,1.38-10.15,2.08a21.82,21.82,0,0,0-4.68,5.22c-5.07,5.06-9.14,11.83-12.3,17.45-5.93,10.51-8.67,22.81-10.93,34.54-2.31,12-5.4,25.77-4.45,38,.08,1,1.34-.13,1.5-.55,5.36-14.94,5.45-31.93,9.19-47.39,3.27-13.55,14.71-48.37,33.95-40.23.6.25,1.47-.56,1.55-1.12C313,59.89,311.29,57.52,308.56,56.86Z"/><path class="cls-2" d="M360.86,151.25c-2.39-3.06-7.28-3.95-10.42-6.29-4.24-3.16-7.07-8-9.41-12.66a71.9,71.9,0,0,1-5-14.35c-1-3.74-.73-9.3-3.37-12.27-.32-.36-.92.25-1.05.52a16,16,0,0,0-1.36,5.51c-.19-.51-.38-1-.61-1.48,0,0,0,0,0,0l.63-1.48c.93-2.14-1-2.81-2.62-1.68a69.4,69.4,0,0,0-6.17,5.06c-2.17,1.92-4.56,3.59-6.65,5.6h0a2.74,2.74,0,0,0-.54,1,37.8,37.8,0,0,0-8.35,5.42c-9.12,8.08-19.67,19.43-23.23,31.38-.26.87.89.32,1.14,0,6-7.37,11.26-15.32,17.6-22.43,4-4.48,8.5-8.74,13.93-11.4,6.4-3.14,9.27,1.07,13.71,4.67.87.7,2-.18,2.5-1.18,4,16.15,15.57,33.77,28.72,27.15C360.66,152.18,361.16,151.65,360.86,151.25Z"/><path d="M256.41,177.05a166.34,166.34,0,0,0-23.77,40.24c-2.36,5.62-4.56,11.48-5.48,17.54a68.36,68.36,0,0,0-.14,21.08,52.63,52.63,0,0,0,19.31,32.78,68.91,68.91,0,0,0,37.33,15,70.95,70.95,0,0,0,63.22-30.09A58.5,58.5,0,0,0,357.32,240a62.59,62.59,0,0,0-12.75-36.28c-8.38-11.23-19.45-20.53-31.25-28a110.69,110.69,0,0,0-17.56-9.19c-4.9-2-10.21-3.83-15.54-4a30.55,30.55,0,0,0-6.26.61c-.23,0-.48.55-.12.48a19.85,19.85,0,0,1,6.05.33,63.36,63.36,0,0,1,7.21,1.55,84.27,84.27,0,0,1,16.51,6.8,126.07,126.07,0,0,1,32.78,24.79A78.2,78.2,0,0,1,348,212.5a62.27,62.27,0,0,1,6.68,18.25,55.61,55.61,0,0,1-4.58,34.95,64.57,64.57,0,0,1-23.2,25.67,69.54,69.54,0,0,1-34.13,11,67.42,67.42,0,0,1-37.17-9.26c-11.44-6.66-20.86-16.56-25.23-29.21-4.17-12.06-4-25.89-.07-38a135.33,135.33,0,0,1,8.38-19.74,181.49,181.49,0,0,1,12-20.32q3-4.44,6.37-8.62c.41-.5-.27-.59-.57-.21Z"/><path d="M300,263.66c-1.14-2.68-1.44-5.67.64-8,2.29-2.54,6.15-3,9.31-2.11a5.88,5.88,0,0,1,4,3.37,6.85,6.85,0,0,1-.18,4.78c-.72,2.2-1.91,5.94-4.7,6.21a6.61,6.61,0,0,1-3.74-1.11,19.18,19.18,0,0,1-2.19-1.49c-.43-.33-.84-.68-1.28-1s-1.11-.5-1.64-.86c-.24-.16-.72.28-.52.52a14.3,14.3,0,0,0,1.16,1.61,16.2,16.2,0,0,0,1.37,1.11,19.71,19.71,0,0,0,2.4,1.56,6.94,6.94,0,0,0,4,1c3.3-.37,5-3.93,6-6.68a9.9,9.9,0,0,0,.79-5.67,6.17,6.17,0,0,0-3.69-4.16,10.5,10.5,0,0,0-11,1.88c-2.5,2.36-3.68,6.64-.84,9.17.05.05.15,0,.13-.11Z"/><path d="M323,239.3c.44,2.95,2.84,6.22,5.73,4.52s1.08-7.19-.88-8.68C325,232.92,322.47,235.55,323,239.3Z"/><path d="M282.67,246.35c.58,2.93-.57,6.82-3.87,6.19s-3.44-6.4-2.11-8.46C278.67,241,281.92,242.63,282.67,246.35Z"/><path d="M308.11,268.6a20.5,20.5,0,0,0,.53,3.1c.26,1.42.52,2.84.76,4.26.22,1.26.43,2.52.64,3.78a10.09,10.09,0,0,0,.77,3.42c.08.13.24-.06.25-.14a13.9,13.9,0,0,0-.45-3.79c-.21-1.21-.41-2.41-.63-3.62s-.43-2.45-.68-3.67a14.42,14.42,0,0,0-.88-3.52c-.08-.16-.32.07-.31.18Z"/><path d="M332.53,257.46c11-5.26,22-10.38,33.25-15.21,11.38-4.9,22.72-9.83,33.77-15.46q10-5.1,19.63-11c.12-.07.14-.35-.05-.24a329.74,329.74,0,0,1-34.88,17.56c-11.1,4.86-22.3,9.51-33.3,14.61a195,195,0,0,0-18.46,9.53c-.12.07-.16.33,0,.24Z"/><path d="M334.07,260.92c10.16-2.53,20.28-5.25,30.38-8s20.45-5.68,30.54-9c5.6-1.82,11.16-3.81,16.64-6,.1,0,.21-.32,0-.26-20,6.67-40.27,12.27-60.55,18-5.7,1.6-11.37,3.28-17,5.11-.07,0-.16.18,0,.15Z"/><path d="M340.3,264.71c13.73-1.33,27.55-1.71,41.22-3.51.08,0,.2-.22.08-.21-13.69,1.09-27.42,1.83-41.08,3.27-.2,0-.48.48-.22.45Z"/><path d="M281.63,264.15c-12.11,2.28-24.64,2.38-36.91,2.06-13.14-.34-26.23-1.37-39.35-1.95-6.82-.3-13.66-.53-20.48-.38-.15,0-.37.33-.16.33,25.74.2,51.39,4,77.16,2.76a113.8,113.8,0,0,0,19.65-2.47c.16,0,.35-.4.09-.35Z"/><path d="M277.13,270.59c-3.71.27-7.44,1.12-11.11,1.74l-11.65,2c-7.78,1.35-15.61,2.67-23.32,4.38-.1,0-.25.28-.1.26,7.6-1,15.18-2.34,22.72-3.65q5.72-1,11.42-2c4-.71,8-1.23,11.89-2.28.13,0,.42-.45.15-.43Z"/><path d="M277.88,275.21c-4.19,1.11-8.3,2.71-12.39,4.15s-8.32,3-12.44,4.57a196.1,196.1,0,0,0-24.83,11.4c-.11.07-.19.33,0,.24a243.71,243.71,0,0,1,24.63-10.8c4.26-1.62,8.56-3.18,12.85-4.72,4-1.45,8.19-2.74,12.13-4.46.15-.06.33-.46.05-.38Z"/><path d="M183.57,227.2c-12.65-6.67-27.72-8-40.65-1.35s-21.65,19.12-27.46,32c-7.17,15.85-10.46,33.37-11.08,50.69a142.81,142.81,0,0,0,8.38,54.78c7,18.72,18.85,35.86,36,46.56,15.14,9.46,33.75,13.09,51.11,8.32,18-4.93,32.07-18.16,40.86-34.26,8.7-15.94,12-34.38,11-52.41a127.52,127.52,0,0,0-16-54.4A122.9,122.9,0,0,0,196.39,234q-2.91-1.91-5.92-3.65c-2.19-1.27-4.53-2.14-6.8-3.26-.44-.22-1.26.77-.73,1,2.21,1.08,4.28,2.55,6.42,3.78s4.34,2.61,6.45,4a120.32,120.32,0,0,1,11.44,8.77A122.42,122.42,0,0,1,226.68,266a128.44,128.44,0,0,1,22,51.59c3.23,17.67,2.55,36.25-3.35,53.29s-17.24,32.88-33.42,41.42c-15.62,8.24-34.15,8.67-50.5,2.28-18.59-7.27-33.05-22.38-42-39.95-8.26-16.14-12.51-34.21-13.61-52.24a144.84,144.84,0,0,1,6-52.31c4.44-14.06,11.57-28.3,23.11-37.87A40,40,0,0,1,172.17,224,70.93,70.93,0,0,1,183,228C183.36,228.09,184,227.4,183.57,227.2Z"/><path d="M269.59,300.2c-5.77,9.41-9.54,20.11-13,30.53a327.35,327.35,0,0,0-9.5,33.95c-1.17,5.35-2.12,10.71-1.66,16.21a32.11,32.11,0,0,0,4.37,13.91c5.2,8.64,14.23,14,23.65,17a79,79,0,0,0,19.21,3.55,63,63,0,0,0,21.1-2.61c1.93-.57,3.84-1.26,5.73-1.94.3-.11.71-.89.18-.73a82.66,82.66,0,0,1-21.29,4,74.71,74.71,0,0,1-20.55-2.55c-9.58-2.43-19.09-7.07-25.14-15.15a30.73,30.73,0,0,1-5.57-12.86c-1-5.6-.44-11.2.68-16.73a325.34,325.34,0,0,1,8.47-32c2-6.44,4.2-12.83,6.68-19.1a113.88,113.88,0,0,1,7.16-15.35c.23-.38-.34-.35-.5-.08Z"/><path d="M280.73,381.21a53.82,53.82,0,0,1,13.52-19.57c4.37-3.89,10.54-7.81,16.68-6.49,4.61,1,8.07,4.62,10.66,8.36A73.46,73.46,0,0,1,329,378.46c2.1,5.3,3.84,10.81,6.88,15.68.09.15.34-.08.3-.22-1.57-5.25-3.23-10.43-5.22-15.54a80.21,80.21,0,0,0-7.7-15.7c-2.67-4-6.29-7.83-11.13-8.93-6.05-1.37-12.11,1.86-16.7,5.53a46.3,46.3,0,0,0-15.21,22c-.11.33.39.12.47-.06Z"/><path d="M336.2,394.08c4.57-6.82,8.18-14.25,12-21.51,4.55-8.69,9.21-17.37,14.86-25.39,4.83-6.85,10.65-13.91,18.39-17.56a18.72,18.72,0,0,1,9.21-2.08,3.4,3.4,0,0,1,3,1.91,7.16,7.16,0,0,1-.1,4.39A32.61,32.61,0,0,1,391,340.3a126.36,126.36,0,0,1-10.36,16.39c-8,11.17-16.85,21.81-25.92,32.15-2.24,2.55-4.44,5.25-6.92,7.57a42.15,42.15,0,0,1-9.08,6.61,68.71,68.71,0,0,1-10.68,4c-2.86.94-5.66,2-8.43,3.15-.18.07-.4.54-.06.46,8.44-2,17.29-4.35,24.32-9.66a44.46,44.46,0,0,0,5.71-4.9c1.25-1.33,2.47-2.69,3.69-4.06,9.06-10.2,17.71-20.82,25.76-31.84a170.11,170.11,0,0,0,11.43-17.34,50.23,50.23,0,0,0,3.38-7.11,13.73,13.73,0,0,0,1.08-5.39c-.25-4.19-4.65-4-7.8-3.42-8,1.51-14.44,7.33-19.53,13.31-12.34,14.48-19.66,32.44-28.78,48.94-.9,1.62-1.83,3.23-2.82,4.79-.16.25.14.29.26.1Z"/><path d="M338.41,368.68c2.73-15.61,4.75-31.33,8.54-46.74a100,100,0,0,1,3-10.33c1.27-3.46,3.24-7.55,6.78-9.13,4-1.78,6.45,2.66,7.26,5.9,1.51,6.07.53,12.66-1,18.61-.88,3.4-2,6.73-2.87,10.13s-2,7-3.13,10.4c-2.18,6.52-4.58,13-6.85,19.48-.08.25.29.09.34,0,2.76-6.1,5.39-12.19,7.56-18.53s3.82-12.8,5.69-19.22c1.8-6.2,2.94-12.61,2.09-19.07-.45-3.44-1.83-8.63-5.92-9.29s-7.89,4-9.58,7.25a46.59,46.59,0,0,0-3.19,8.81,247.41,247.41,0,0,0-5.69,26.42,233.07,233.07,0,0,0-3.44,25.5c0,.26.39,0,.41-.15Z"/><path d="M338.53,368.58c.4-6.36-1-12.95-2.92-19-1.71-5.38-4.09-11.33-8.06-15.48a9.11,9.11,0,0,0-5.73-3c-.18,0-.54.4-.29.49a10.75,10.75,0,0,1,4.57,3.29,31.54,31.54,0,0,1,4.38,6.34,65.28,65.28,0,0,1,6,17.46,78.11,78.11,0,0,1,1.35,10.22c0,.42.64-.05.65-.31Z"/><path d="M307.44,301.51c1.6,3.4,3.81,6.54,5.62,9.84a91,91,0,0,1,4.77,10.08,59.78,59.78,0,0,1,4.27,28.12c-.11,1.22-.26,2.43-.44,3.65a11.27,11.27,0,0,0-.25,3.27c.07.48.66,0,.77-.19a17.67,17.67,0,0,0,1.24-5.76c.23-2,.36-4,.39-6a59,59,0,0,0-1-11.41A68.49,68.49,0,0,0,315,311.92c-2.05-3.66-4.28-7.62-7.26-10.62-.09-.09-.29.11-.25.21Z"/><path d="M316.25,315.63c1.54-5.72,5.44-10.41,9.42-14.64,2.77-2.94,6.68-6.44,11-4.33,3.22,1.58,4.71,5.49,4.94,8.87a13.38,13.38,0,0,1-4.68,11.34c-5.07,4.08-12.17,3.89-17.31,7.82-.23.17-.37.74.09.53,5.66-2.63,12.46-3.29,17.45-7.22a15.19,15.19,0,0,0,5.77-12.34c-.1-3.73-1.63-7.94-5-9.89-3.94-2.28-8.34.17-11.24,3a52.54,52.54,0,0,0-6.79,7.95c-1.79,2.6-3.75,5.79-3.88,9,0,.17.24,0,.26-.1Z"/><path d="M286.05,319.89c-4.28,6.9-5.65,15.71-6,23.7-.23,4.93,0,10.71,2.92,14.91s9.06,3.34,11.71-.79a25.8,25.8,0,0,0,3-8.18,44.79,44.79,0,0,0,1.33-7.87c.16-3.76.87-7.47,1.16-11.21.23-3.08.75-7.55-1.4-10.09-.33-.39-1.05.42-.93.78,1.89,5.86.69,12,.09,17.93-.25,2.46-.38,4.87-.8,7.31a46.06,46.06,0,0,1-2,8.1c-.92,2.5-2.07,4.67-4.79,5.4a5.57,5.57,0,0,1-5.89-1.78c-2.85-3.29-3.41-8.47-3.39-12.65a69.82,69.82,0,0,1,1.17-12.91,55.93,55.93,0,0,1,4.16-12.6c.12-.26-.22-.22-.33-.05Z"/><path d="M258.7,187.64c-3.26-21.67-4.76-43.52-1.91-65.32,2.71-20.75,9.07-41.18,20.06-59.07,4.42-7.18,9.67-15,17.16-19.26,3.5-2,7.65-3.11,11.6-1.84a10.61,10.61,0,0,1,6.58,7c2.87,8.17.73,17.54-1.32,25.62-2.85,11.22-7.14,22-11.7,32.66-9.48,22.07-19.61,43.88-30.12,65.47-1.37,2.8-2.66,5.63-3.91,8.48-.27.62.53.36.73,0,6.38-11.35,11.64-23.4,17.06-35.23q7.65-16.69,15-33.49c4.75-10.81,9.33-21.74,12.67-33.07a114.69,114.69,0,0,0,3.74-16.79,35.74,35.74,0,0,0-.14-11.07c-.57-3.27-1.8-6.68-4.42-8.88a12,12,0,0,0-10.31-2.11c-8.28,1.87-14.52,9.12-19.24,15.71-12,16.76-19.4,36.62-23.14,56.8a196.39,196.39,0,0,0-.5,67q.63,3.89,1.46,7.73c.06.31.65-.12.62-.36Z"/><path d="M273.49,166.42a299.34,299.34,0,0,1,17.87-34.89,162.26,162.26,0,0,1,24.55-31.62,106.68,106.68,0,0,1,15.2-12.45,6.3,6.3,0,0,1,2.6-1.17,18.4,18.4,0,0,1,2-.24,17.11,17.11,0,0,1,3.85.16c5.14.82,9.44,4.09,12.7,8A49.67,49.67,0,0,1,360.63,110a74.58,74.58,0,0,1,3.81,18.39,45.43,45.43,0,0,1-1.07,15.85c-.9,3.22-2.55,6.82-5.9,7.6-4.43,1-9-2.71-12-5.46a48.86,48.86,0,0,1-9.79-12.46,42.81,42.81,0,0,1-5-18.48,63.89,63.89,0,0,1,.3-9.68c0-.28-.42,0-.46.17a43.06,43.06,0,0,0,.2,19.94,44.24,44.24,0,0,0,9.65,17.69c3.58,4,8.35,9,14,9.78,3.95.51,7.05-2.07,8.82-5.39,2.32-4.38,2.83-9.69,2.88-14.56a73,73,0,0,0-2.43-18.89,60.86,60.86,0,0,0-7.44-17.71c-2.95-4.58-6.91-8.84-12.06-10.91a17.66,17.66,0,0,0-7.71-1.24,9.49,9.49,0,0,0-4.44,1,92.23,92.23,0,0,0-8.15,5.9c-10.68,8.57-19.69,19.1-27.39,30.38a212.81,212.81,0,0,0-19.64,35.73c-1.25,2.91-2.47,5.84-3.62,8.8-.09.25.23.17.3,0Z"/><path d="M331.17,125.55a24.1,24.1,0,0,0-6,1.46c-1.93.64-3.84,1.36-5.71,2.15a90.76,90.76,0,0,0-11.65,6,100.27,100.27,0,0,0-20.91,17c-3.25,3.44-6.73,7.18-8.88,11.42-.21.41.29.44.51.19,2.76-3.15,5.14-6.61,8-9.74a95.1,95.1,0,0,1,9.19-9,93.19,93.19,0,0,1,22-14.07c2.25-1,4.55-1.94,6.89-2.74,2.16-.74,4.41-1.31,6.53-2.18.13,0,.42-.5.12-.48Z"/><path d="M266.17,179.46c.77-6.23.54-12.65.82-18.93s.69-12.41,1.29-18.59a243.32,243.32,0,0,1,6.07-36,121,121,0,0,1,5.38-16.61c1.85-4.47,4.2-8.67,6.41-13a104.36,104.36,0,0,1,6.75-11.81c2.35-3.39,5.32-7,9.29-8.51a7.11,7.11,0,0,1,5.56-.18,6.61,6.61,0,0,1,3.13,3.55c1.35,3.19,1.35,7.16,1.07,10.57,0,.3.44,0,.49-.12a15.65,15.65,0,0,0,.51-10.09c-.83-2.93-2.75-5.6-6-6-4-.47-7.92,2.19-10.67,4.82a47.79,47.79,0,0,0-8.15,11.28C283,79,278.19,88.37,275,98.36a205.27,205.27,0,0,0-7.59,37.15c-.9,7.35-1.49,14.73-1.82,22.13q-.24,5.55-.32,11.1a73.32,73.32,0,0,0,.32,11c.05.36.51-.06.54-.27Z"/><path d="M277,161.6c3.74-2.32,6.37-6.21,8.77-9.8,2.63-4,5-8.09,7.86-11.87a134.94,134.94,0,0,1,22.52-22.61c2.44-2,4.92-3.88,7.49-5.69,1.29-.91,2.56-1.85,3.84-2.77A15,15,0,0,0,331,106c.17-.22.15-.57-.19-.5a7.89,7.89,0,0,0-3,1.66L324,109.9c-2.28,1.63-4.53,3.25-6.73,5-4.09,3.27-8.09,6.67-11.89,10.29a122.4,122.4,0,0,0-10.74,11.57,117.87,117.87,0,0,0-8.21,12,63.41,63.41,0,0,1-9.58,12.57c-.2.19-.09.45.18.29Z"/><path d="M130.79,235.82c-3.45,1.83-5.23,5.91-6.51,9.39a116.06,116.06,0,0,0-3.56,13,138.88,138.88,0,0,0-3.51,40.34,227.27,227.27,0,0,0,6.58,41.13,226.34,226.34,0,0,0,13.14,38.88,188.67,188.67,0,0,0,10.29,19.81c3.69,6.18,7.94,12.06,13.47,16.72.5.42,1.59-.7,1.11-1.11a60.6,60.6,0,0,1-12.14-14.54,173.54,173.54,0,0,1-9.18-16.84,216.77,216.77,0,0,1-13.73-37.26c-7.26-26.74-11.48-55.22-6.1-82.7.91-4.64,1.92-9.34,3.2-13.9,1.21-4.34,2.87-10,7-12.49.2-.12.24-.56-.07-.39Z"/><path d="M142.07,226.41a134.92,134.92,0,0,0-10.22,37.79,172.7,172.7,0,0,0-.28,39.88,215.59,215.59,0,0,0,8.18,39.49,230.58,230.58,0,0,0,16,39.61c3.44,6.65,7.2,13.15,11.22,19.45s8.39,12.21,14,17c.52.45,1.67-.74,1.17-1.17a69.8,69.8,0,0,1-12.67-14.85c-3.65-5.48-7-11.19-10.15-17a233.23,233.23,0,0,1-16.65-38.31c-8.45-25.44-12.68-52.17-10.45-79,1.22-14.79,4.24-29.33,10.27-42.94.15-.35-.32-.23-.42,0Z"/><path d="M192.13,234.81a96.19,96.19,0,0,1,8.78,12,140.35,140.35,0,0,1,7.59,13.41,256.22,256.22,0,0,1,11.62,27.94c3.56,9.9,6.88,19.87,9.45,30.07a276.09,276.09,0,0,1,6.3,33.72c.72,5.82,1.18,11.68,1.79,17.52s1.12,11.45.07,17.12c-.19,1.07,1.3.3,1.45-.36,1.1-4.86.68-10,.21-14.94-.49-5.16-1-10.33-1.55-15.48a281.71,281.71,0,0,0-5.78-33.51,296.35,296.35,0,0,0-9.56-31.52A279,279,0,0,0,211,262.5a138.51,138.51,0,0,0-8.1-14.54,99.47,99.47,0,0,0-10.56-13.37c-.09-.09-.31.12-.22.22Z"/><path d="M176.08,224.68a50,50,0,0,1,4.51,7.32,78.33,78.33,0,0,0,4.41,7c3.37,4.91,6.76,9.75,9.65,15a149.22,149.22,0,0,1,13.08,32c1.66,5.88,3,11.85,4.43,17.79s2.89,12.09,4.25,18.15c2.79,12.37,5.35,24.8,7.32,37.34,1.08,6.87,1.91,13.74,2.36,20.68.23,3.5.35,7,.7,10.51s1.39,6.57,1.32,10c0,.91,1.4-.09,1.46-.7.28-3.1-.72-6-1.16-9.07s-.51-6.15-.72-9.2c-.43-6.37-1-12.68-2-19-1.84-12.31-4.26-24.52-7-36.66-2.74-12.3-5.74-24.54-8.86-36.75a152.08,152.08,0,0,0-12.45-32.73,138.42,138.42,0,0,0-10.09-16.18c-2-2.82-4-5.64-5.77-8.61-1.54-2.55-2.94-5.16-5.25-7.11-.12-.1-.36.14-.26.26Z"/><path d="M159.72,222c1.87,12.86,1.73,25.92,3.57,38.8s5,25.49,7.86,38.16,5.65,25.57,8.91,38.26,6.81,25.37,10.5,38a159.8,159.8,0,0,0,6.84,20,195.79,195.79,0,0,0,9.81,18.64c.31.52,1.29-.32,1-.75-3.12-5.34-6.14-10.74-8.78-16.34a122,122,0,0,1-6.5-17.59c-3.72-12.51-7.29-25.06-10.6-37.68s-6.37-25.62-9.17-38.52-6-25.44-8.22-38.34c-1.21-7.18-1.93-14.41-2.47-21.67a185.59,185.59,0,0,0-2.42-21.17c0-.18-.39.08-.37.23Z"/></g></g></svg>