<svg xmlns="http://www.w3.org/2000/svg" viewBox="0 0 500 500"><defs><style>.cls-1{isolation:isolate;}.cls-2{fill:#b1bbc4;mix-blend-mode:multiply;}.cls-3{fill:#fffae6;}.cls-4{fill:#ff6679;}.cls-5{fill:#ffc0c0;}.cls-6{fill:#8acdff;}.cls-7{fill:#ffc764;}</style></defs><title>Prancheta 3</title><g class="cls-1"><g id="Camada_1" data-name="Camada 1"><path class="cls-2" d="M349.51,426.23C347.93,417.55,329.79,415.5,323,414c-13.41-3-27.22-4.05-40.94-4.25-27.11-.38-54.25,3.85-80.85,8.66-9.81,1.78-27.76,3-31.56,14.34a4.75,4.75,0,0,0,.38,4.24,4.44,4.44,0,0,0,.24,1.1c2.84,7.66,22.55,7.22,28.71,7.42,30.88,1,61.67-.24,92.47-2.37C300.55,442.48,352.86,444.62,349.51,426.23Z"/><path class="cls-3" d="M195.25,315.19c2.19,2.31,4.86,4.35,8.23,4.09a13.54,13.54,0,0,0,8.22-3.47,7,7,0,0,0,.21-9.34c-2.35-3-6.28-4.77-10.07-3.63a9.35,9.35,0,0,0-6.4,6.62,53.12,53.12,0,0,1-1.66,5.74l.08,0C194.27,315,194.89,314.8,195.25,315.19Z"/><path class="cls-4" d="M269.52,312.77a22.52,22.52,0,0,0,11.41-.3c1.9-.54,4.35-1.11,5.79-2.59a5.79,5.79,0,0,1-1-3.89,6.83,6.83,0,0,1,.59-2.08,110.18,110.18,0,0,0-30.7-4C257.2,305.73,263.84,311.4,269.52,312.77Z"/><path class="cls-3" d="M274.42,298.51c0-.13-.07-.27-.11-.39-.52-1.34-1.13-2.62-1.76-3.91s-1.25-2.36-1.82-3.57a7.49,7.49,0,0,1-.29-1.09,64.4,64.4,0,0,1-35.28,2.4c-1.34-.3-2.69-.65-4-1-1.45,1.65-2.42,4.19-3.24,6-.61,1.34-1.13,3.1-1.87,4.65A119.47,119.47,0,0,1,274.42,298.51Z"/><path class="cls-3" d="M259,289.68c14.94-2.38,29.53-10,38.66-22.22-5.93-.74-11.85-1.55-17.78-2.17-.56-.05,0-.91.42-.88q9.09.78,18.18,1.89a50.54,50.54,0,0,0,2.73-4.31c.48-.87.9-1.75,1.32-2.63-9.17.72-18.35,1.33-27.54,1.28-.19,0,0-.29.11-.31,9.38-1.58,18.87-2.31,28.35-3a48.14,48.14,0,0,0,2.36-7c-3.79.81-7.58,1.61-11.36,2.47-6.74,1.53-13.44,3.34-20.24,4.58-.39.07-.13-.45.07-.54,10.16-4.34,21.22-6.84,32.14-9.11,2.84-14.36-.71-29.56-9-42.09a96.88,96.88,0,0,0-24-25,77.51,77.51,0,0,0-23.8-11.69,1,1,0,0,1-.41.2,29.07,29.07,0,0,0-8.88,2.55c-1,.47-2,1-3,1.49a3,3,0,0,1-1.73,1c-7.28,4.18-13.77,9.85-19.62,15.77a124.52,124.52,0,0,0-17.7,21.88,50.71,50.71,0,0,0-6.94,28.58,45.36,45.36,0,0,0,1.23,8.42c11.51,2.69,23.12,4.82,35,5.25.45,0,0,.68-.34.7-11.43.56-22.87-1.37-34.07-3.9a45.87,45.87,0,0,0,2.67,7.09q3,0,6,.1c6.78.16,13.9-.16,20.59.94.57.1-.07.81-.4.84-7.22.76-14.77.25-22,0l-3.2-.09a49.34,49.34,0,0,0,4,6.3q5.19-.9,10.4-1.63a80.48,80.48,0,0,1,11.15-1.18c.52,0,0,.72-.29.79-6.5,1.82-13.39,2.54-20.13,3.49a52.29,52.29,0,0,0,3.69,4.2C219.57,285.78,239.3,292.83,259,289.68Zm15-53.3c1.49,1.68,2.18,6.89-.74,7.92s-4.46-2.33-4.34-5.05C269.13,235.79,271.84,233.89,274.05,236.38Zm-47,6.94c-2.87-1.16-1.95-6.33-.4-7.95,2.31-2.39,4.94-.38,5,3.09C231.6,241.18,229.88,244.46,227,243.32Zm16.37,14a.79.79,0,0,1,.16-.43c-3.07-2.69,1.13-7.87,3.91-9,4.06-1.66,11.19-.75,12,4.53.68,4.23-3,9.72-6.79,11.45a4.19,4.19,0,0,1-1.51.37,43.81,43.81,0,0,1-.06,5.74c0,2.09.27,4.38-.52,6.33-.05.14-.34.37-.45.17-1-1.74-.21-4.86-.16-6.81s-.07-3.69.1-5.5C246.83,263.68,243.33,260.29,243.41,257.32Z"/><path d="M257.19,254.76c-.12-4.06-5.19-6.31-8.79-5.35-3.87,1-4.07,3.78-4.23,7.08a1,1,0,0,1,.24,0c3,.54,4,5,7.29,5.16C254.39,261.76,257.26,257.18,257.19,254.76Z"/><path class="cls-3" d="M184.42,61.37c3.58-5.28,11.15-2.87,14.81,1,6.54,6.92,9.4,16.7,12.68,25.41C217,101.21,222.45,114.44,227.1,128c.12.37.25.74.38,1.11-1-5-2-9.94-3.14-14.88-3.27-14.36-7.29-28.71-13.88-41.93A79.2,79.2,0,0,0,202.62,59c-3-3.87-7-8.09-12.22-8.22-8.22-.21-9.08,12-8.38,18.07a49.91,49.91,0,0,0,1.46,7.3,45.64,45.64,0,0,1-.69-5.93C182.66,67.29,182.73,63.86,184.42,61.37Z"/><path class="cls-3" d="M252.23,167.67c.64,0,1.27,0,1.89,0-1.15-3.56-.52-8-.17-11.52a134.55,134.55,0,0,1,2.55-16A220.77,220.77,0,0,1,267.2,106c4.3-10.56,9.68-21.12,16.88-30,2.22-2.75,5-6,8.35-7.34a5.85,5.85,0,0,1,4.61,0,8.71,8.71,0,0,0-2.22-5.1c-4-4.07-9.12-1.2-12.78,1.9C275.83,70.67,271.55,77.81,267.9,85a178.62,178.62,0,0,0-11.46,28.5,148.12,148.12,0,0,0-6.38,30.24c-.71,7.83-.8,16.42,2.18,23.83C252.26,167.6,252.23,167.64,252.23,167.67Z"/><path class="cls-5" d="M293.21,71.2a8.61,8.61,0,0,0-3.83,2.36,48.88,48.88,0,0,0-6.16,7.6,132.55,132.55,0,0,0-15.47,30.69A222.44,222.44,0,0,0,259,141.53a130.71,130.71,0,0,0-2.35,14.7c-.29,3.15-.35,6.31-.54,9.45.64-1.16,1.37-2.28,2.11-3.46,1.7-2.71,3.36-5.46,4.93-8.25q4.47-8,8.46-16.16c5.29-10.81,10.88-21.52,15.75-32.53a122.93,122.93,0,0,0,6.38-17.34c1.09-4,2.47-7.88,3.06-12,.13-.89.25-1.88.33-2.91C295.84,72.59,294.66,70.86,293.21,71.2Z"/><path class="cls-5" d="M234.37,172.7a.55.55,0,0,1,.16.53l.32-.2c-.08-2.58-.28-5.15-.57-7.7-.14-1-.31-1.94-.51-2.9-.7-3.22-1.5-6.42-2.43-9.59-1.86-6.39-4-12.72-6.1-19q-6.65-19.91-14.39-39.42c-3.56-8.94-5.95-18.83-11.47-26.83-2.27-3.29-5.17-6.38-9.26-7.15-2.66-.51-4.5.75-5.23,3.31-1.91,6.65.19,14.53,1.92,21,.74,2.76,1.57,5.51,2.47,8.24a375.47,375.47,0,0,0,20.51,43.87,245.92,245.92,0,0,0,13.44,22.38C226.49,163.92,230,168.92,234.37,172.7Z"/><path class="cls-4" d="M241.63,372.05c-.26.14-.71.19-.84-.16,0-.06,0-.12,0-.19-3.28,4.85-5.62,11.09-2.21,16.48a16.54,16.54,0,0,0,12,7.95c7.7,1,16.1-2.54,18.55-10.43,1.93-6.26.24-13.58-5-17.77-2.87-2.3-7.35-4.21-11.1-3.5a14.81,14.81,0,0,0-6.83,3.23C244.53,369,243.53,371.05,241.63,372.05Z"/><path class="cls-4" d="M277.9,351.4c7.81,5.35,19,6.36,26.13-.78,6.62-6.64,6.86-17.85-1.25-23.43a24,24,0,0,0-13.15-4.31,18,18,0,0,0-8.16,2c-2.12,1.12-3.89,2.7-6,3.87a1.07,1.07,0,0,1-.63.17C269.49,335.4,271.07,346.71,277.9,351.4Z"/><path class="cls-6" d="M242.53,340.17c2.61-3.86,3.31-9.71,0-13.44-4.88-5.51-12.14-4-17.67-.39a1.18,1.18,0,0,1-1,.25,12.63,12.63,0,0,0-2.3,8.47c.31,3.58,4.22,6.55,7.21,8C233.61,345.5,239.36,344.89,242.53,340.17Z"/><path class="cls-7" d="M252.46,428.16a131.59,131.59,0,0,0,14,.79c.52-3.16,2.67-5.65,5.11-7.84a33.71,33.71,0,0,1,11.57-7.06c9.16-3.17,21.6-3,29.28,3.62a.75.75,0,0,1,.09.15c1.28-.75,2.53-1.53,3.77-2.36,11-7.39,19.72-18,24-30.31a.86.86,0,0,1-.3.05c-3.53-.06-6.92-5.2-8.53-7.94a27.47,27.47,0,0,1-3.91-13c-.29-8.95,3.08-16.5,8.31-23.46-6.53-11.68-16.81-21.4-28.47-28.15a.69.69,0,0,1-.35-.51c-1.06,1.65-3.56,2.68-5.26,3a15.79,15.79,0,0,1-7.57-.43,16.28,16.28,0,0,1-6.1-3.27,15.79,15.79,0,0,1-5.28,2.8,25.6,25.6,0,0,1-12.5,1.32,18.15,18.15,0,0,1-10.82-5.95c-2.25-2.59-4.73-6.13-4.47-9.72a118,118,0,0,0-38.71,7.25c1.21,4.15-.57,8.48-4.07,11.28a18,18,0,0,1-10.31,4.05,11,11,0,0,1-6.52-2,29.7,29.7,0,0,1-8.11,17.28,32,32,0,0,1-21.39,9.69,35.44,35.44,0,0,0-2.7,19.14c2,13.4,10.71,24.66,21,33.38,2.54-3.53,7.51-5.35,11.63-5.79a29.79,29.79,0,0,1,15.68,3c10.26,4.86,18.18,13.79,19.36,25.41a1.81,1.81,0,0,1-.6,1.27A137.31,137.31,0,0,0,252.46,428.16Zm-47.12-65c-1.1,3.53-4.15,6.77-8.13,6.57-5.25-.26-8.63-5.46-6.23-10-.61.42-1.64.81-1.53-.12.58-5,8-8.4,12.36-6.1C205.27,355.31,206.49,359.48,205.34,363.14Zm96.29,31c-2.24,1.15-5.22,2.25-7.64.92a11.72,11.72,0,0,1-5.19-6.23,1.55,1.55,0,0,1,.48-1.5c-.59-4.73,2.59-9.75,7-11.58,4.68-1.94,11.69.05,13.14,5.49S306.17,391.8,301.63,394.14Zm-27.22-65.47a1.27,1.27,0,0,1,.16-1.34,10.39,10.39,0,0,1,1.75-1.88c4.76-3.75,11-6.59,17.19-5.59,4.94.8,10.23,2.56,13.89,6.14,8,7.87,4.9,20.71-3.33,27.18-3.9,3.07-9.11,5.26-14.16,4.75s-10.59-2.46-14.34-6C269.7,346.47,268.71,334.75,274.41,328.67Zm-14.54,33a17,17,0,0,1,9.75,6.55,19.56,19.56,0,0,1,.14,21.29c-4.92,7.72-15.15,11.67-23.92,8.48a14.71,14.71,0,0,1-10-11.66c-1-5.7,1.3-10.95,4.79-15.31.12-2.17,3.25-4.64,4.61-5.71C249.52,362,254.56,360.3,259.87,361.71ZM224.7,343.56a10.89,10.89,0,0,1-4.13-10.78c.39-2.2,1.14-5,2.89-6.7a1.44,1.44,0,0,1,.48-1.21c5.47-5.37,16.59-6.6,21.22.49,3.44,5.27,2.07,12.25-2,16.81A13,13,0,0,1,224.7,343.56Z"/><path class="cls-4" d="M297.14,377.6c-3.86,1.14-6.42,5.21-7.07,9.11.57-.32,1.15-.36,1.38.22,1.57,4.1,5.07,7.45,9.56,5.15,3.25-1.67,7.52-5.51,5.63-9.6C305.11,379.16,300.86,376.49,297.14,377.6Z"/><path class="cls-4" d="M188.25,334.52a24.66,24.66,0,0,0,4.29-11.6,12.15,12.15,0,0,0,.11-3,7.61,7.61,0,0,0-.43-1.3c-5.57,4-10.5,8.88-15.51,13.55a46.87,46.87,0,0,0-9.11,11.74c-.51.94-1,1.91-1.42,2.89C174.54,345.18,183.22,341.75,188.25,334.52Z"/><path class="cls-6" d="M210.36,399.8a30.32,30.32,0,0,0-13.79-3.66,18.64,18.64,0,0,0-7.34,1.39,36.82,36.82,0,0,0-4.69,2.7,100.88,100.88,0,0,0,8.15,6.17,128.7,128.7,0,0,0,35.19,16.7C226.52,412.84,219.44,404.41,210.36,399.8Z"/><path class="cls-6" d="M200.9,356.41c-3.44-2.31-6.89-.58-9.08,2.36.17,0,.29.08.17.35-3.33,7.61,10,12.42,11.4,3.78A6.56,6.56,0,0,0,200.9,356.41Z"/><path class="cls-3" d="M296.82,311.78a12.58,12.58,0,0,0,5.72.29c1.49-.35,2.52-1.48,3.92-1.86-.81-1.5-1.33-3.3-2.12-4.69-1.17-2-2.72-4.41-5-5.32-2.81-1.11-5.69-.16-8.07,1.53-1.27.9-2.82,2.23-2.35,4C289.83,309.1,293.69,311,296.82,311.78Z"/><path class="cls-4" d="M284.88,415.92A29.31,29.31,0,0,0,274,421.2c-2.43,1.94-5.36,4.63-6.49,7.74,14.29-.09,28.69-2.71,41.36-9.17a25,25,0,0,0-10.55-4.2A30.19,30.19,0,0,0,284.88,415.92Z"/><path class="cls-6" d="M330.16,363a26.6,26.6,0,0,0,4.34,12.55,26.13,26.13,0,0,0,3.87,4.64c.88.8,2,1.38,2.78,2.2a51.17,51.17,0,0,0,2.08-15.13,55.64,55.64,0,0,0-6.79-25.41c-1.31,2.69-3.22,5.09-4.31,7.89A29.62,29.62,0,0,0,330.16,363Z"/><path class="cls-2" d="M307,219.21c-.1-.56-1,.27-1,.62-.34,8.9.84,18.25-.79,27-1.78,9.52-8.09,17.57-14.79,24.2-10.56,10.46-24.63,13.19-38.33,17a76.14,76.14,0,0,1-21.54-4c-11.38-4.13-21.21-12.39-28.16-22.18-15-21-8.87-51.07,10.45-66.72.82-.66.73-2.06-.46-1.26-21.25,14.32-28.12,42.12-18.44,65.36,6.33,15.22,21,27,37.16,31.81a4.21,4.21,0,0,0-.65.55,2.52,2.52,0,0,0-1.18.93c-.09.14-.16.29-.24.43h0l0,.05a37.33,37.33,0,0,0-3.61,8.23,1.06,1.06,0,0,0,1.38,1.38c11.86-3.5,24.24-1.89,36.23-4.51l.17-.06,2.31.57a12.06,12.06,0,0,1,3.09,1.22A1.77,1.77,0,0,0,270,300c.26.1.54.19.8.3,2.1.93,6.4-3.36,4.38-5.16a2.83,2.83,0,0,0-1.66-.73,7.46,7.46,0,0,0-.19-1.15c-.36-1.33-.74-2.66-1.13-4-.17-.93-1.53-.66-2.07-.4l-.18.11a1.8,1.8,0,0,0-2.08-.16,23.09,23.09,0,0,0-2.38.63,1.75,1.75,0,0,0,.16-.2,65,65,0,0,0,30-17.2c5.82-5.76,11.18-13.42,13.5-21.36C312.3,239.71,309,230.05,307,219.21Z"/><path class="cls-2" d="M215.73,308.75c-.23-.25-.66.06-.83.21-3.18,2.86-5.34,5.49-9.92,5.89-3.78.33-7.57-1.61-11.1-2.49a.26.26,0,0,0-.28.24c-.15,1.92.08,3.2,1,4.21-.75-.54-1.48-1.09-2.14-1.64-.48-.39-1.36.42-1.29.93,1.78,14,20.69,9.1,24.41-1.23a1.45,1.45,0,0,0-.25-1.43C216.55,311.92,217,310.28,215.73,308.75ZM204.92,320a11,11,0,0,1-7.17-1.23A15.64,15.64,0,0,0,206,319a15,15,0,0,0,2.84-1A8,8,0,0,1,204.92,320Z"/><path class="cls-2" d="M305.27,310.69a3.54,3.54,0,0,0,1.26-1.91c.27-1.54-2.6-.93-3.24-.73a15,15,0,0,1-7,.61c-1.72-.32-6.69-3.35-5.3-5.75.82-1.39-1-1.36-1.72-.65a5.11,5.11,0,0,0-1.4,2.9,2.91,2.91,0,0,0-1.31-1.35c-.16-.08-.36.13-.43.26-5.67,11.25,10.52,14.69,18.06,10.83,1.29-.66,3.07-1.68,3.05-3.39C307.24,310.92,306.41,310.71,305.27,310.69Z"/><path class="cls-2" d="M341.82,383.2c2.22-3.28,3.24-6.71,2-10-.22-.58-1,.24-1.09.53-4.94,17.38-28,26.33-43.57,30.16-16.94,4.16-34.94,3.48-52.21,2.27S212.45,402,196.3,395.55c-16.51-6.6-26.68-16.56-33.63-32.64-.19-.44-.94.18-.88.52a44.11,44.11,0,0,0,6.31,17,23.06,23.06,0,0,0,6.09,10.67C188.56,411.62,216,422,239.48,427.16c16.2,3.59,42.42,6.5,59.47-2.38,18.36-4.66,38-24.46,43-41C342,383.47,341.94,383.3,341.82,383.2Z"/><path class="cls-2" d="M291.1,70.42c-8.31,5.14-12.48,15.68-16.71,24a173.79,173.79,0,0,0-13.45,36.72,149.75,149.75,0,0,0-3.1,18.1c-.82,6.76-2.88,14.16-1.57,20.9.17.89,1.49-.32,1.65-.61,3.05-6,3.36-12.3,4.11-18.88a180.81,180.81,0,0,1,6.12-30.77,160.13,160.13,0,0,1,10.07-25.41c2.17-4.45,12.09-27.8,18.29-19.25.64.89,1.94-.87,2-1.44C299,68.87,294.93,68.06,291.1,70.42Z"/><path class="cls-2" d="M226.58,137.37c-1.31-5.23-2.81-10.4-4.43-15.58-2.53-8.1-4.75-17-9.56-24.06-.13-.19-.37,0-.51.2-1.91-5.31-3.84-10.62-5.88-15.89-2.25-5.82-5.24-21-13.89-20.91,0-1.55-1.31-2.2-2.75-1.92a8,8,0,0,0-3.94,2.34,10.52,10.52,0,0,0-2.69,4.26,6,6,0,0,0-.06,1.69A3.27,3.27,0,0,0,183,69c.2.38.63.2.92,0a14,14,0,0,0,.28,7c.16.52,1-.24,1-.58a20.93,20.93,0,0,1,.38-6.11l6.67-4.12a20.44,20.44,0,0,1,3.85,4.91c2.09,3.41,3.08,7.59,4.22,11.38,3,10,7,19.77,10.15,29.77,3.64,11.56,8.33,22.72,12.69,34,3.3,8.54,8.82,17.81,8.74,27.14,0,3.24,4.84-.36,5-2.42C237.9,159.6,230.83,147.21,226.58,137.37Z"/><path d="M249.83,167.92c-5.25.5-10.2,2.71-14.71,5.36A92.4,92.4,0,0,0,220,184.67c-8.83,8-17.13,17.26-23.34,27.47a48.3,48.3,0,0,0-5.72,15,52.55,52.55,0,0,0-.49,21.52c2.85,14.44,12.88,26.53,25.07,34.35a61.6,61.6,0,0,0,33.12,9.69,65.41,65.41,0,0,0,32-8.38,59,59,0,0,0,22.9-22.76A52.89,52.89,0,0,0,309.25,228c-2.2-14.19-9.92-26.64-19.62-37a98.71,98.71,0,0,0-16.49-14.18,74.69,74.69,0,0,0-8.27-4.91,35.39,35.39,0,0,0-8.11-3.2,35.77,35.77,0,0,0-7-.65c-.22,0-.55.5-.24.51a22.89,22.89,0,0,1,6.68,1.75,68.83,68.83,0,0,1,7.68,3.22,82.88,82.88,0,0,1,16.31,11.15c10.66,9.15,20.22,20.77,24.95,34.14a53.64,53.64,0,0,1,.54,34.72,52.77,52.77,0,0,1-18.51,25.07,63.3,63.3,0,0,1-29.61,12,61.65,61.65,0,0,1-32.9-4.6c-12.34-5.44-23.53-15.28-29.4-27.52a46.07,46.07,0,0,1-4.49-20.05,49.66,49.66,0,0,1,10.73-32A139.68,139.68,0,0,1,213,192.54a123.91,123.91,0,0,1,14.21-13.08,60.94,60.94,0,0,1,15.09-9,27.92,27.92,0,0,1,7.13-1.78c.35,0,.85-.84.38-.79Z"/><path d="M244.07,257a7.45,7.45,0,0,1,.54-5.45,6.34,6.34,0,0,1,4.23-2.7c3.57-.68,8.93,1.23,9,5.48,0,1.95-1.21,3.79-2.31,5.31-.79,1.12-1.86,2.42-3.3,2.64a4.87,4.87,0,0,1-3.55-1.33,18.12,18.12,0,0,1-1.94-1.88c-.35-.4-.68-.82-1-1.21s-1-.64-1.39-1.07c-.2-.19-.67.25-.55.47.29.53.23.91.54,1.41a11.56,11.56,0,0,0,1,1.29,16.64,16.64,0,0,0,2.2,2.16,6.16,6.16,0,0,0,3.48,1.53c3.11.11,5.27-3.13,6.62-5.48,1.72-3,2.25-6.51-.86-8.82a9.48,9.48,0,0,0-10.23-.48c-2.7,1.65-4.75,5.43-2.54,8.24.05.06.14-.06.13-.11Z"/><path d="M269,239.25c-.12,2.72,1.45,6.07,4.34,5.05s2.23-6.24.74-7.92C271.84,233.89,269.13,235.79,269,239.25Z"/><path d="M231.59,238.46c0,2.72-1.71,6-4.55,4.86s-1.95-6.33-.4-7.95C229,233,231.58,235,231.59,238.46Z"/><path d="M250.45,262.85a53.09,53.09,0,0,0-.13,6.68c0,1.2-.07,2.41-.1,3.61a8.91,8.91,0,0,0,.1,3.26c0,.13.22-.06.24-.12a11.88,11.88,0,0,0,.26-3.21c0-1.27.07-2.55.09-3.82s0-2.34,0-3.51a12.77,12.77,0,0,0-.18-3c0-.16-.3.06-.31.14Z"/><path d="M274.26,257.2c10.84-2.67,21.66-5.36,32.58-7.71s21.93-4.79,32.74-7.88q9.92-2.84,19.58-6.49c.12-.05.23-.35,0-.28-21.71,7.55-44.34,11.26-66.61,16.7a169,169,0,0,0-18.3,5.39c-.11,0-.23.32,0,.27Z"/><path d="M275,260.56c9.48-.4,18.95-1.06,28.42-1.77,9.67-.73,19.35-1.48,29-2.65q8.07-1,16.06-2.49c.11,0,.26-.29.1-.27-19.1,2.34-38.28,3.81-57.46,5.38-5.36.44-10.71,1-16.05,1.64-.06,0-.15.17,0,.16Z"/><path d="M280,265.08c12.5,1.23,24.93,3.35,37.48,4.08.09,0,.23-.19.1-.21-12.44-1.5-24.88-3.21-37.36-4.32-.21,0-.5.42-.22.45Z"/><path d="M227.55,254.18c-11.33-.14-22.64-2.26-33.65-4.74-11.75-2.65-23.34-5.94-35.06-8.71C152.9,239.33,147,238,141,236.92c-.13,0-.34.29-.19.32,22.93,4.76,45.15,12.62,68.37,16.06a103.26,103.26,0,0,0,18.25,1.24c.15,0,.4-.36.17-.36Z"/><path d="M222.35,259.15a98.79,98.79,0,0,0-10.75-.45c-3.48-.1-7-.18-10.44-.26-7.13-.15-14.32-.35-21.46-.11-.11,0-.3.25-.13.26,7,.55,14.11.64,21.15.79l10.46.19c3.62.05,7.34.3,11,0,.17,0,.5-.39.21-.43Z"/><path d="M222.25,263.42c-3.83.18-7.68.9-11.47,1.44-4.09.58-8.17,1.22-12.24,1.95a174.41,174.41,0,0,0-24.29,5.9c-.11,0-.25.31-.07.25a230.34,230.34,0,0,1,23.92-5.27c4-.69,8-1.3,12-1.92s8.06-1,12-1.95c.14,0,.41-.42.15-.4Z"/><path d="M288.75,302.32A115.86,115.86,0,0,0,230.51,301a119,119,0,0,0-16.3,5c-.71.28-1.06,1.69,0,1.28A117.18,117.18,0,0,1,272,300.23a105.89,105.89,0,0,1,15.83,3.36c.59.17,1.57-1.07.91-1.27Z"/><path d="M192.2,316.41a86.57,86.57,0,0,0-9.83,8.11c-3.13,2.93-5.94,6.1-8.83,9.27a50.9,50.9,0,0,0-9.1,13.61,37.45,37.45,0,0,0-1.11,27.25c3.32,9.77,10,18.14,17.56,25a114.11,114.11,0,0,0,30.42,19.29,140.06,140.06,0,0,0,37.55,10.72,115.26,115.26,0,0,0,39.08-1A79.65,79.65,0,0,0,323.22,412a62.58,62.58,0,0,0,19.24-28.08,54.88,54.88,0,0,0,.31-33c-4.1-13.49-13.25-25.14-24.31-33.69a86.63,86.63,0,0,0-9.73-6.49c-.52-.3-1.55.9-.91,1.27,12.83,7.38,24.09,18.25,30.53,31.7a54.76,54.76,0,0,1,4.76,32.73,57.6,57.6,0,0,1-14.71,29.26,72.72,72.72,0,0,1-31.64,19.48c-12.38,3.89-25.58,4.95-38.49,4.09a137.38,137.38,0,0,1-37.57-8,123.5,123.5,0,0,1-32.14-17.1c-8.33-6.26-16-13.9-21-23.13-4.37-8.08-6.41-17.37-4.5-26.46A39.93,39.93,0,0,1,168.88,341c3.91-5.95,9.16-10.83,14.32-15.67a82.46,82.46,0,0,1,9.43-7.77c.83-.58.64-1.91-.43-1.17Z"/><path d="M232,289.45c-1.05-.06-1.87.84-2.49,1.58a22.91,22.91,0,0,0-2.71,4.41c-.84,1.66-1.6,3.36-2.34,5.07-.35.8-1.61,2.66-1.22,3.57.09.19.33.1.45,0,.91-.61,1.27-1.89,1.68-2.84.64-1.49,1.28-3,2-4.44a40.33,40.33,0,0,1,2.24-4.27,6.5,6.5,0,0,1,2.32-2.63c.12-.06.41-.45.11-.46Z"/><path d="M270.25,288.4a3,3,0,0,1,.43.76c.24.48.47,1,.74,1.45.71,1.26,1.39,2.51,2,3.8a31,31,0,0,1,1.69,3.88c.17.51.27,2.25.88,2.46.15.05.3-.06.41-.16.8-.72.43-1.93.14-2.79a30.19,30.19,0,0,0-1.88-4.28c-1-1.82-2.17-4.6-4.15-5.47-.15-.07-.45.24-.3.35Z"/><path d="M192.66,317c1.14-2.47,1.39-5.13,2.2-7.7a10.57,10.57,0,0,1,5.21-6.4,9.8,9.8,0,0,1,9.48.2,9.64,9.64,0,0,1,4.8,7c.36,3.5-1.81,6.26-4.75,7.89-2.6,1.44-5.8,2.48-8.77,1.86a9.53,9.53,0,0,1-3.88-1.84c-1.1-.84-1.95-2.28-3.37-2.43a.64.64,0,0,0-.57.57c0,1.48,1.56,2.54,2.67,3.36a10.66,10.66,0,0,0,3.71,1.84,13.68,13.68,0,0,0,8.73-1.2c3.78-1.64,7.36-4.72,7.83-9.05a9.92,9.92,0,0,0-4.17-8.85,11,11,0,0,0-10.6-1.25,13,13,0,0,0-6.83,6.32c-1.47,3-1.87,6.48-2.21,9.76,0,.33.46,0,.52-.13Z"/><path d="M308.88,310.93a20.14,20.14,0,0,0-2.47-7.2A13.51,13.51,0,0,0,302,298.5c-4.22-2.69-9.56-.35-12.93,2.7-2.49,2.25-3.53,5.47-1.43,8.34s5.7,4.29,9,4.87a13.66,13.66,0,0,0,6-.18c1.44-.41,4.05-1.46,4.27-3.19,0-.3-.16-.38-.42-.28-1.25.5-2.11,1.51-3.46,1.9a11.82,11.82,0,0,1-4.55.29,14.87,14.87,0,0,1-8.42-3.67c-1.86-1.76-2.73-4.27-.94-6.42,2.57-3.11,7.74-5.2,11.46-3a12.7,12.7,0,0,1,4.36,5c1.18,2.13,1.8,4.59,3.08,6.66.25.41.9-.17.87-.52Z"/><path d="M234,173.12c-4.12-3.23-7.37-7.73-10.37-12A219.55,219.55,0,0,1,211.4,141.5,388.55,388.55,0,0,1,189,94.62a161.83,161.83,0,0,1-6.54-19.27,34.48,34.48,0,0,1-.67-15.68c.71-3.6,2.21-8.14,6.11-9.36,4.47-1.38,8.9,1.22,12,4.23a49,49,0,0,1,8.34,11.68,140.17,140.17,0,0,1,7.32,15.6c5,12.71,8.26,26,11.07,39.39,1.39,6.61,2.65,13.25,4,19.87,1.49,7.09,3.07,14.17,4,21.36a103,103,0,0,1,.91,10.52c0,1,1.65,0,1.62-.78-.68-14.56-4.44-28.86-7.3-43.1-2.75-13.69-5.63-27.4-10.1-40.64a147.18,147.18,0,0,0-8-19.25,80.13,80.13,0,0,0-7-11.74c-2.7-3.63-6.22-7.45-10.75-8.62a9.83,9.83,0,0,0-10.5,3.32c-2.48,3.14-3.37,7.34-3.78,11.24a30.52,30.52,0,0,0,.06,7.64c.89,5.92,2.88,11.7,4.89,17.32a359.4,359.4,0,0,0,21.54,47.58c3.93,7.37,8.09,14.63,12.69,21.61,3.39,5.13,7,10.34,11.55,14.5a19.88,19.88,0,0,0,2.53,1.93c.41.26,1.24-.55.85-.85Z"/><path d="M252.07,167.7c-2.16-4.95-2.72-10.58-2.76-15.92a103.9,103.9,0,0,1,2.14-20.28,180.3,180.3,0,0,1,13.9-42.25,103.36,103.36,0,0,1,9.12-16.1A43.59,43.59,0,0,1,279,67.69c2.66-2.66,5.8-5.54,9.51-6.57,4-1.11,7.43,1.39,8.6,5.22s.59,7.94-.17,11.71-1.94,7.3-3,10.92a127.85,127.85,0,0,1-5.65,15.4c-4.26,9.85-9.25,19.37-13.88,29a282.4,282.4,0,0,1-15.54,28.88c-1.36,2.15-2.72,4.24-3.89,6.5-.21.42.31.44.52.2,3.66-4.14,6.39-9.11,9.13-13.89s5.43-9.93,7.94-15,4.8-10.18,7.26-15.24,4.94-10.1,7.25-15.22a185.44,185.44,0,0,0,10.07-28.22,39.26,39.26,0,0,0,1.66-11.79c-.14-3.42-1.15-7.08-4.25-9-3.31-2-7.24-.43-10.2,1.48a36.65,36.65,0,0,0-7.35,6.5,73.91,73.91,0,0,0-9.53,14.43,175,175,0,0,0-15.59,42.46A124.55,124.55,0,0,0,248.65,147c-.3,5.83-.21,12,1.67,17.61a24.51,24.51,0,0,0,1.39,3.36c.09.19.43-.1.36-.26Z"/><path d="M255.6,168.66c-.51-14.94,2.88-29.42,7.14-43.63,5-16.82,11.69-33.08,22.19-47.27a26.87,26.87,0,0,1,5.88-6.11,5.39,5.39,0,0,1,3.41-1.25c1.33.14,2.22,1.4,3.14,2.24.27.25.79-.27.76-.55a3.33,3.33,0,0,0-1.89-3,4.31,4.31,0,0,0-3.14,0c-2.54.83-4.68,2.88-6.46,4.8a61.69,61.69,0,0,0-5.2,6.74A117.61,117.61,0,0,0,274,92.73a163.94,163.94,0,0,0-11,26.67,210.81,210.81,0,0,0-6.72,24.93,127,127,0,0,0-1.88,13.6c-.28,3.61-.6,7.59.55,11.08.11.32.6-.15.59-.35Z"/><path d="M192.18,101.34a107.61,107.61,0,0,1-6.52-19.86,55.39,55.39,0,0,1-1.76-12.6c0-2.67.16-6.53,2.56-8.28,2.84-2.07,7.29,0,9.58,1.94,4.22,3.59,6.77,9,8.9,14s3.69,9.94,5.62,14.88c3.12,8,6.25,15.88,9.17,23.89,3.08,8.49,5.94,17.05,8.78,25.62,2.76,8.35,5.44,16.76,6.86,25.46.33,2.06.56,4.13.93,6.18.13.7,1.32-.32,1.32-.78a62,62,0,0,0-2.08-13.51c-1-4.39-2.31-8.72-3.68-13q-4.25-13.35-9-26.54t-9.94-26c-2.11-5.19-3.86-10.51-6-15.67s-4.71-10.74-8.85-14.68c-2.61-2.5-6.86-4.44-10.5-3.12-2.72,1-3.87,3.8-4.25,6.46a36.37,36.37,0,0,0,.75,11.76,103.51,103.51,0,0,0,3.48,13.21,63.25,63.25,0,0,0,3.75,9.6c.23.42.46.83.71,1.24,0,.08.2,0,.16-.12Z"/><path d="M191.51,359.06a6.61,6.61,0,0,0,3.23,9.6,7.27,7.27,0,0,0,8.22-1.93c3.66-4.15,2.82-11.91-3.22-13.2a8.11,8.11,0,0,0-6.17,1.29,9.82,9.82,0,0,0-2.78,2.63c-.41.6-1.15,1.68-.57,2.36.11.14.33-.06.39-.14.51-.61.78-1.35,1.25-2a7.33,7.33,0,0,1,2.29-2,6.64,6.64,0,0,1,4.92-.83,6.23,6.23,0,0,1,4.66,4.33c1.35,4.46-1.64,9.46-6.59,8.94-4.07-.43-7.45-5.11-5.31-9,.14-.25-.22-.22-.32-.06Z"/><path d="M183.87,400.59a21.27,21.27,0,0,1,9.88-4.74,25.32,25.32,0,0,1,11,.95,36.42,36.42,0,0,1,18.37,12.55,28.43,28.43,0,0,1,5.54,14.22c.08.91,1.52,0,1.46-.7-.81-9-6.06-16.73-13.33-21.82-6.34-4.44-14.42-7.44-22.25-6.26-4,.6-8.22,2.47-10.77,5.75,0,0,0,.09.06,0Z"/><path d="M241,370.78c-3.07,3.8-5.37,8.4-5,13.4a14.69,14.69,0,0,0,6.38,11.31c6.47,4.29,15.43,3.71,21.7-.68a19.13,19.13,0,0,0,8.07-15.56A17.13,17.13,0,0,0,264,364.38a15.72,15.72,0,0,0-11.59-2.05,18.38,18.38,0,0,0-6.7,3.42c-1.77,1.4-4.05,3.35-4.51,5.66-.09.46.44.32.64.12,1.48-1.52,2.63-3.27,4.31-4.61a16.12,16.12,0,0,1,5.52-2.92,14.28,14.28,0,0,1,9.87,1.22,16.22,16.22,0,0,1,8.92,12.42,17,17,0,0,1-5,14.65,18.69,18.69,0,0,1-19.39,3.41,15.46,15.46,0,0,1-9-9.37c-1.79-5.48.81-11.13,4.08-15.47.15-.19-.09-.22-.2-.08Z"/><path d="M225,325.14c-2.24.95-3.28,3.67-3.85,5.86-.71,2.74-.89,5.74.55,8.29,2.8,5,9.44,8.25,15,6.6,8.55-2.52,13.45-15,6.45-21.67-5.2-4.92-14-3.67-19,.95-.52.47-.21,1.26.47.75,4.59-3.46,11.15-5.09,16.2-1.63a10.45,10.45,0,0,1,4.32,10.18A12.69,12.69,0,0,1,239,344c-4.58,2.43-9.77.78-13.58-2.33a12.73,12.73,0,0,1-3.49-4.1,7.55,7.55,0,0,1-.58-3.9c.2-2.82,1.11-6.75,3.74-8.3.09-.05.17-.26,0-.19Z"/><path d="M165.5,347.32c12.83-.69,25.63-9.5,28.48-22.45.37-1.7,1.93-8-.65-8.36-.35-.05-.7.44-.64.75a15.11,15.11,0,0,0,.47,1.44,7.61,7.61,0,0,1,.16,2.28,27.62,27.62,0,0,1-.49,3.84,24.31,24.31,0,0,1-3.32,8.49,29.47,29.47,0,0,1-13.83,11.09A41.77,41.77,0,0,1,165.61,347c-.11,0-.27.29-.11.28Z"/><path d="M255.15,299.7c-.12,2.91,1.65,5.63,3.36,7.84a20.18,20.18,0,0,0,7.18,5.95c5.72,2.69,12.63,2.1,18.35-.28a11.73,11.73,0,0,0,3.74-2.23c.45-.43,1.61-1.74.64-2.17-.18-.08-.42.12-.51.25a6.13,6.13,0,0,1-2.75,2.45,19.85,19.85,0,0,1-3.65,1.38,23.65,23.65,0,0,1-11.54.64,18.93,18.93,0,0,1-9.23-5.24c-2.33-2.29-5-5.31-5.35-8.7,0-.16-.24,0-.24.11Z"/><path d="M275.42,327.84c-5.26,4.51-5.57,13.76-2.75,19.65,1.59,3.31,4.66,5.57,7.89,7.17a23.9,23.9,0,0,0,12,2.74,21.12,21.12,0,0,0,17.71-13.62,16.86,16.86,0,0,0-.09-12.17,16.59,16.59,0,0,0-7.42-7.77,24.75,24.75,0,0,0-13.64-3.29,22.51,22.51,0,0,0-14,6.79c-.48.53-.25,1.35.51.8a46.57,46.57,0,0,1,5.56-3.79,20,20,0,0,1,6.16-2.06A22.28,22.28,0,0,1,299,324.14a18.7,18.7,0,0,1,8,5.89,14.68,14.68,0,0,1,2.63,10.26c-.78,7.95-7.36,14-14.91,15.72A20.61,20.61,0,0,1,284,355a21.06,21.06,0,0,1-9.22-5.76c-2.46-2.85-3.29-6.84-3.22-10.51.07-3.84,1.16-8,4.06-10.69.17-.16,0-.31-.16-.16Z"/><path d="M336.77,339.81c-2.29,3.38-4.84,6.81-6.37,10.62a32.46,32.46,0,0,0-2.23,13.29,27.53,27.53,0,0,0,7.59,17.75c1.17,1.22,2.77,2.89,4.51,3.13.44.06,1.21-.75.84-1.15a20.43,20.43,0,0,0-2.31-1.69,21,21,0,0,1-2-1.88,26.75,26.75,0,0,1-3.37-4.42,27,27,0,0,1-3.94-12.59,30.41,30.41,0,0,1,2.13-13c1.46-3.53,4.06-6.46,5.48-10,.11-.26-.21-.21-.32-.05Z"/><path d="M289.78,387.81a12.14,12.14,0,0,1,4.71-9.4,8.11,8.11,0,0,1,9.27-.27c2.82,1.7,4.81,4.95,3.55,8.25s-4.49,5.79-7.66,6.83c-4.28,1.4-7.47-2.09-8.86-5.82-.26-.7-1.58.34-1.34,1,1.4,3.71,4.65,7.41,9,6.43a15.42,15.42,0,0,0,9.5-7.21,7.43,7.43,0,0,0-2.07-9.88,9.32,9.32,0,0,0-10.73-.82c-3.68,2.26-6.29,6.69-5.64,11.07,0,.18.29,0,.29-.14Z"/><path d="M267,430.18c.37-3.09,2.95-5.89,5.14-7.9A29.13,29.13,0,0,1,280,417a31.61,31.61,0,0,1,21.92-1.41,28,28,0,0,1,5.26,1.89,14.68,14.68,0,0,1,2.4,1.59c.67.54,1,.93,1.89.8a.59.59,0,0,0,.44-.51c.19-1.52-2.14-2.61-3.29-3.25a25.66,25.66,0,0,0-5.39-2,32.13,32.13,0,0,0-11.86-1.26,33,33,0,0,0-19.89,8.81c-2.5,2.34-4.9,5.14-5,8.71,0,.29.44,0,.46-.22Z"/></g></g></svg>