<svg xmlns="http://www.w3.org/2000/svg" viewBox="0 0 500 500"><defs><style>.cls-1{isolation:isolate;}.cls-2{fill:#b1bbc4;mix-blend-mode:multiply;}.cls-3{fill:#ffc764;}.cls-4{fill:#fffae6;}.cls-5{fill:#ffc0c0;}.cls-6{fill:#ff6679;}</style></defs><title>Prancheta 5</title><g class="cls-1"><g id="Camada_1" data-name="Camada 1"><path class="cls-2" d="M279.64,401c-20.27-2.39-40.58-2.65-60.91-2.05-19.33-2.55-39.51-.68-58.53,2.47-.95.16-2.42.37-4.19.65-.75.12-1.5.24-2.24.39-8.55,1.52-21.19,4.71-20.52,11.67.51,5.32,6.28,6.91,10.81,7.61,11.08,1.71,22.07,3.57,33.24,4.67a555,555,0,0,0,77.79,2.16c11.62-.5,23.19-1.62,34.7-3.18,6.17-.83,14.55-1.13,19.56-5.35C324.73,407.05,286.5,401.81,279.64,401Z"/><path d="M340,261.07c2.37-2.24,5.25-6.78,2.28-9.67-1.8-1.76-4.19-1.26-6.07.1a18.18,18.18,0,0,0-5.47,7.34c-1,2.28-2.1,5.26-1.41,7.77,1.29,4.75,6.61,1.21,8.51-1,.09-.11.12-.34-.1-.24-2.06,1-5.87,4.3-7.2.65-.68-1.89.09-4.31.77-6.09a19.3,19.3,0,0,1,3.91-6.47c1.28-1.33,3.17-2.73,5.08-1.86,4.26,1.94,1.29,6.76-.54,9.32-.16.22.08.31.24.15Z"/><path class="cls-3" d="M225.58,351.45c1.37,1.49,2.68,3,3.95,4.6-1.35-6.71-2-13.48-2.85-20.31-.54-4.21-1.35-9.08-4-12.59-.62-.84-2.26-3.16-3.61-2.39-1,.58-1.51,2.19-1.79,3.24-1.89,7.2.9,14.8,4.44,21.06C223,347.22,224.29,349.32,225.58,351.45Z"/><path class="cls-3" d="M232.15,358.92c5.43-4.54,10.59-9.39,15.76-14.22,2.37-2.21,5.08-4.69,6.49-7.66.37-.79,1.23-2.83-.09-3.3a5.85,5.85,0,0,0-3.79.4c-10.06,3.53-14.09,15.86-18.4,24.62Z"/><path class="cls-3" d="M231.66,355.6c2.14-6.06,4.24-12.09,6.76-18,1.48-3.5,3.22-7.66,2.64-11.56-.63-4.23-4.27-5.33-6.82-1.54-3.48,5.18-4,11.85-3.85,17.93A114.66,114.66,0,0,0,231.66,355.6Z"/><path class="cls-3" d="M220.27,360.28a39.88,39.88,0,0,0-9.47-2.14,35.33,35.33,0,0,0-9.9-.23c-1.48.24-6.39,1.53-5.45,3.93,2.13,5.48,11.72,3.4,15.93,2.55,4.49-.91,9.05-1.45,13.57-2.2C223.39,361.56,221.85,360.88,220.27,360.28Z"/><path class="cls-3" d="M218.74,349.06c-3.43-3.33-7.29-7.3-11.75-9.23-2.49-1.07-5,.18-4,3.28s3.56,5.42,6.2,7.26c5.95,4.13,12.87,7,19.52,9.87A98.55,98.55,0,0,0,218.74,349.06Z"/><path class="cls-4" d="M187.44,267.85a5.21,5.21,0,0,0-4.93.59,12.4,12.4,0,0,0-5,12.14c.7,4.82,3.82,9.6,8.49,11.39a10.55,10.55,0,0,0,7.05.42,12.1,12.1,0,0,0,4-2.2,7.7,7.7,0,0,1,2-1.4c-4.18-4.5-6.51-10.3-7.69-16.38C190,270.94,189.52,268.7,187.44,267.85Z"/><path class="cls-4" d="M176.22,110.3c7.45-6.93,17.58-13.71,28.05-14.13l.13,0c.74-.43,1.5-.84,2.27-1.21-12.95-8.1-30.6,2.06-41.37,9.65-13.44,9.47-23.36,22.6-31.78,36.6a201.81,201.81,0,0,0-16.41,33.94c-3.47,9.36-6.57,19.28-7.25,29.31-.49,7.31-.58,19.73,7.54,23.3,9,4,15.57-8,18.66-14.62a146.82,146.82,0,0,0,6.94-17c1.26-3.93,2.33-7.9,3.33-11.9-6.46.06-12.92.15-19.37.48-.38,0,0-.57.29-.6,6.44-.72,12.92-1.07,19.42-1.27.5-2.07,1-4.15,1.45-6.23,2.92-13.11,5.39-26.4,10.07-39A71.89,71.89,0,0,1,176.22,110.3Z"/><path class="cls-3" d="M207.38,371.22c-2.7,1.47-5.93,3.4-7.2,6.35-1.44,3.34.68,6.06,4.24,6,11.16-.07,18.6-10.72,24-19.72C221.21,365.69,213.94,367.63,207.38,371.22Z"/><path class="cls-3" d="M231,364.06c-1.4,3.89-2.46,8-3.47,11.93a19.8,19.8,0,0,0-.81,7.45c.24,1.79,1,6,3.16,6.57,2.91.82,2.79-11.48,2.71-13.24A95.14,95.14,0,0,0,231,364.06Z"/><path d="M236.91,171.68c-.66-4.14-6.48-5.1-9.57-3-2.86,2-2.29,4.59-1.7,7.46a.65.65,0,0,1,.23-.06c2.86.15,4.94,3.31,7.92,2.93C236.11,178.75,237.2,173.48,236.91,171.68Z"/><path class="cls-4" d="M256.44,296.12c1.56-9.94,3.64-19.81,4.53-29.87.64-7.2,1.34-14.44,1-21.68-.25-6.09-.78-17.27-8.45-18.88-3.41-.72-5,2.84-5.86,5.53a54.91,54.91,0,0,0-2.16,11c-1.23,11.17-.26,22.71.71,33.88q.92,10.56,2.58,21c.5,3.06.58,7.08,2.2,9.82.42.71,1.13,1.77,2.11,1.69s1.62-1.27,2-2.21a.26.26,0,0,1,0-.16c.33-3.33.78-6.63,1.3-9.93A.83.83,0,0,1,256.44,296.12Zm-5.7-44c-3.25-2.58-2.86-9.06-1.75-12.58l0,0c-.31-1.73.92-3.93,2-5,1.9-1.86,4.89-2.6,7-.46,2.74,2.81,1.85,8.93.8,12.25C257.93,249.12,254.49,255.15,250.74,252.16Z"/><path class="cls-4" d="M277,284a29.73,29.73,0,0,1-5.61,9.86,18.78,18.78,0,0,1-3.92,3.49,80.22,80.22,0,0,1,31,20.74c3.13.1,6.74-3.73,8.49-5.58,4.68-5,9.12-10.08,13.35-15.44,3.58-4.52,6.95-9.23,10.69-13.62s7.66-8.62,10.49-13.57c2.47-4.32,4.64-10.21,2.3-15.08a11.36,11.36,0,0,1-3.87,6.41c-.33.28-.55-.05-.36-.36,1.05-1.73,3.27-4.67,2.27-6.81a3.54,3.54,0,0,0-3.31-2.25c-2.54.27-4.49,3.3-5.58,5.34-1.17,2.22-2.45,5-2.18,7.59.49,4.54,4.61,1,7,.47.3-.07.26.23.16.4-1.83,3-8.42,6.5-9.25.81-.58-3.93,1.61-8.47,3.85-11.57a21,21,0,0,1,1.51-1.87c-4.56,2.26-7.72,6.16-10.67,10.23A140.66,140.66,0,0,0,314,278.35c-2.87,5.27-5.58,10.62-8.26,16-2.39,4.79-4.63,9.79-7.78,14.13-.2.28-1.21.69-1,0,.12-.32.26-.63.38-.94.36-2.79.31-5.61.43-8.42.16-3.6.34-7.2.38-10.81a102.46,102.46,0,0,0-2-22.78c-1.26-5.73-3.11-12.56-7.65-16.62-4-3.57-8.89-2.93-13.51-1.21a93.25,93.25,0,0,1,2.72,10.8C279.36,267.22,280.07,275.51,277,284Z"/><path class="cls-4" d="M269.75,219.84a74.43,74.43,0,0,0,9-3.17,99.29,99.29,0,0,0,10.51-5,4.9,4.9,0,0,1-2.68-1.06c-2.52-2.1-2.13-5.22-.77-7.89,1.6-3.13,5.29-5.29,8.45-6.46,2-.73,6.5-1.37,7.95.67a7.86,7.86,0,0,0-.82-3.29c-3.19-6.56-13.44-1.64-17.89.81a94,94,0,0,0-14.39,10.4c-3.76,3.15-6.93,6.86-10.51,10.16,1.51,2.16,3,4.37,4.36,6.62C265.14,220.84,267.47,220.47,269.75,219.84Z"/><path class="cls-4" d="M224.13,210.47a59.69,59.69,0,0,1-15.3-1.8,41.13,41.13,0,0,0-4.35,6.6,121.6,121.6,0,0,0-9.66,28.34,66.82,66.82,0,0,0-1.66,19.83c.46,6.08,1.51,12.53,4.55,17.92,9.45,16.81,31.67,14.43,48,12.07,0-.33-.09-.67-.13-1q-1-7.6-1.66-15.25c-.41-5.1-.73-10.21-.9-15.32-.16-4.54-.62-9.32-.19-13.85a88,88,0,0,1,2-13.73c1.23-4.87,4.71-13.29,11.3-10.35s7.61,11.55,8,18c.41,7.48-.24,14.94-.91,22.39a255,255,0,0,1-4.42,30.22c2,.53,4,1.14,6,1.83,2.5-1.91,4.93-3.49,6.69-6.31a32,32,0,0,0,4-10.24c1.76-8.24.08-17.11-2-25.14A122.79,122.79,0,0,0,263.47,229c-4.38-8.42-9.51-16.41-14-24.78A59.68,59.68,0,0,1,224.13,210.47Zm9.19,63.8c-5.47,6.05-13.19-.67-16.21-5.84a73.53,73.53,0,0,1-6.88-17.14,48,48,0,0,1-1.91-17.46c0-.18.44-.51.45-.21.17,11,4.56,21.27,9.38,31,1.66,3.35,4.09,6.74,7.47,8.55,2.78,1.48,5.89,1.8,7.24-1.61,1.75-4.41.27-9.59-1.09-13.93a52.6,52.6,0,0,0-4.38-10.68A116,116,0,0,0,219,234.78c-2.39-3.14-5.23-6-5.81-10,0-.34.55-1,.91-.78a14.45,14.45,0,0,1,4.62,4.49c1.64,2.2,3.32,4.37,4.94,6.58,3,4.07,6.21,8.33,8,13.1A67.06,67.06,0,0,1,235.77,262C236.42,266.21,236.38,270.9,233.32,274.27Z"/><path class="cls-5" d="M298.36,198.24a6.91,6.91,0,0,0-3.8-.07c-2.55.68-5.63,2.08-7.24,4.28s-2.06,5.34.33,7a5.08,5.08,0,0,0,3.82.84c4-2.54,9-6.38,10.37-10.89h0C300.3,199.54,299.75,198.66,298.36,198.24Z"/><path class="cls-5" d="M252.87,235.63c-1.32.76-1.84,3.8-2.5,5.13-.07.15-.33.4-.51.25a2.77,2.77,0,0,1-.52-.63c-.18,2.78-.13,6.08,1.16,8.46.71,1.31,2.33,2.59,3.89,1.71,1-.6,1.58-2.11,1.9-3.2.83-2.82,1.26-6.29.34-9.16C256.2,236.86,254.56,234.67,252.87,235.63Z"/><path class="cls-3" d="M248.8,357.76c2.35-.39,5.74-1,7.16-3.21,1.62-2.49-1-4.2-3.27-4.28-6.86-.27-13.42,4.83-18.82,9.08,2.61-.09,5.2-.42,7.8-.77C244,358.26,246.45,358.15,248.8,357.76Z"/><path class="cls-6" d="M258.19,297.22c-.67,2.94-1.4,5.85-2.21,8.73a.76.76,0,0,1-.15.21c-.19,1.64-1.1,3.56-2.92,3.88-2.39.42-4.15-1.6-4.81-3.72a72.26,72.26,0,0,1-2.24-12.13,66.21,66.21,0,0,1-18.63,3.7A49.64,49.64,0,0,1,210.72,296a1.68,1.68,0,0,1-.34.15c-21.88,4.68-42.51,15.81-57.26,32.82-3.34,3.85-6.5,7.37-8.7,12a34,34,0,0,0,1.17,32.34c8.48,15.33,24.68,25.6,40.49,32.06a125.86,125.86,0,0,0,59.91,9c20.16-2.06,40.64-10,53.32-26.51,10.91-14.19,14.59-33,8.1-49.93C299.35,316.92,279.34,303.05,258.19,297.22Zm5.68,79.51c-3.15,3.31-10.29-.41-13.53-1.83a67.1,67.1,0,0,1-7.7-4.06,50,50,0,0,1,4.22,5.07c2.51,3.55,6.23,10,2.68,14-3.86,4.35-10.2-2.86-11.85-5.87a36.91,36.91,0,0,1-2.81-6.83c0,1.11,0,2.22-.06,3.34-.2,3.55-.48,11.07-5.28,11.77-2.06.3-3.39-2-4-3.61a16.63,16.63,0,0,1-.88-9.13c.61-3.41,1.75-6.7,2.67-10,.11-.42.24-.84.36-1.27A55,55,0,0,1,219,378.84a28.86,28.86,0,0,1-9.24,5.94c-2.74,1-6.67,2-9.46.62-7.55-3.58.26-12.22,4.49-14.85a54.64,54.64,0,0,1,8.27-4.15c-2.4.47-4.79,1-7.23,1.31-3.83.47-14.9.2-12.75-6.47,2-6.1,10.68-6.43,15.77-6l2.74.24a32.48,32.48,0,0,1-7.36-4.91c-2.27-2.12-4.6-5.16-4.05-8.48a6.59,6.59,0,0,1,5.68-5.39c1.84-.33,3.79.9,5.26,1.85a52.81,52.81,0,0,1,7.17,5.64c.56.52,1.1,1.05,1.65,1.58-.29-.53-.59-1-.86-1.58-3.15-6.32-6.2-15.44-2.45-22.22.85-1.53,2.62-3.69,4.66-2.82,3.44,1.48,5.14,6.33,6,9.65a69,69,0,0,1,1.5,9.78,35.26,35.26,0,0,1,1.9-10c.94-2.57,2.52-5.76,4.93-7.26,2.19-1.37,4.62-1.53,6.22.77,1.9,2.75,1.07,7.16.16,10.11-1.24,4.05-3.14,7.85-4.71,11.77-.56,1.39-1.07,2.8-1.57,4.22a52.9,52.9,0,0,1,4-6.58A27.46,27.46,0,0,1,246,334.9c2.21-1.54,5.31-3.31,8.11-3.18,6.95.31-1.42,10.14-3.09,11.81-2.9,2.93-5.92,5.79-9,8.59.81-.47,1.63-.94,2.48-1.35,3.18-1.54,9.81-4.35,12.87-1,3.5,3.8-2.44,8-5.67,9.07s-6.42,1.08-9.68,1.52l-.7.1c4.87.63,9.71,1.51,14.14,3.6a17.35,17.35,0,0,1,7.9,6.63C264.42,372.47,265.57,375,263.87,376.73Z"/><path class="cls-3" d="M262.15,373.91a12.86,12.86,0,0,0-2.67-4,21.51,21.51,0,0,0-8.64-5c-5.3-1.72-10.82-2.3-16.32-3a74.22,74.22,0,0,0,15.91,10.24,58.3,58.3,0,0,0,6.84,2.72c1.32.41,3.85,1.43,5.29.83a1.13,1.13,0,0,0,0-.42A5.76,5.76,0,0,0,262.15,373.91Z"/><path class="cls-3" d="M234.49,366.25a104.45,104.45,0,0,0,3.57,12.5,20.37,20.37,0,0,0,4.49,7.4c.6.57,5.74,4.53,6.09,2,.73-5.21-3.39-10.36-6.61-14C239.61,371.45,237,368.92,234.49,366.25Z"/><path class="cls-4" d="M253.07,169.31c-.37.18-.26-.29-.08-.44,8.14-6.37,17.46-11.33,26.72-16.11a47.87,47.87,0,0,0-3.53-15.31,59.13,59.13,0,0,0-18.59-23.77,91,91,0,0,0-26.7-14.62,71.8,71.8,0,0,0-9.43-2.56c-1.7-.2-3.4-.44-5.08-.76a45.35,45.35,0,0,0-7.44-.47,1.35,1.35,0,0,1-1,.44,19.21,19.21,0,0,0-1.79.81c-.73.39-1.42.84-2.11,1.28a1.43,1.43,0,0,1-.44.31l-.14,0c-6.57,4.42-11.64,11.24-15.85,17.77a130.5,130.5,0,0,0-12.65,25.22,61.61,61.61,0,0,0-2.94,9.94,46.84,46.84,0,0,0-.25,13.22,47.71,47.71,0,0,0,5.37,17.88c11.08-.46,22.1-1.47,32.92-4.12.47-.12.1.55-.16.64-10.25,3.33-21.1,4.45-31.88,5a40,40,0,0,0,4.31,5.95c1.79-.48,3.59-.94,5.39-1.4,6.23-1.57,12.59-3.59,19-4.39.45-.06,0,.67-.18.75-6.19,2.32-12.82,3.68-19.22,5.32l-3.87,1,.05.05a50,50,0,0,0,5.3,4.79c6.07-3,12.38-6.1,18.81-8,.54-.15.13.58-.09.7-5.52,3.23-11.6,5.62-17.49,8.21a57.67,57.67,0,0,0,50.64,8.58c16-5,30.11-16.94,36.12-32.65-5.52.81-11.05,1.56-16.54,2.49-.59.1-.17-.73.2-.8,5.56-1,11.14-1.95,16.73-2.8a43.69,43.69,0,0,0,1.51-5.08c.19-.8.32-1.6.46-2.41-8.09,2.93-16.22,5.77-24.48,8.13-.2.06-.07-.22,0-.27,8.07-3.67,16.41-6.67,24.75-9.68a48.65,48.65,0,0,0,.43-7.23c-3.2,1.66-6.39,3.32-9.56,5C264.51,163.06,258.88,166.38,253.07,169.31Zm-46.29-.82c-2.9-.32-3.36-5.25-2.36-7.1,1.49-2.76,4.38-1.59,5.26,1.55C210.38,165.41,209.64,168.81,206.78,168.49Zm28.64,18.13c.49,1.88,1.39,3.9,1.08,5.84,0,.14-.28.39-.42.26-1.36-1.33-1.45-4.33-1.91-6.15-.41-1.66-1-3.39-1.29-5.12-3.12.37-7.1-1.68-7.81-4.4a.59.59,0,0,1,.09-.44c-3.48-1.85-1.13-7.13,1.28-9,3.24-2.53,10.42-3.52,12.34,1.25,1.48,3.69-.52,9.47-3.71,11.79a4.23,4.23,0,0,1-1.14.58A35.77,35.77,0,0,1,235.42,186.62ZM249,157.76c-2.36,1.65-4.63-1-5.2-3.49-.73-3.18,1.25-5.59,3.88-3.88C249.42,151.54,251.36,156.09,249,157.76Z"/><path class="cls-4" d="M331.15,118.06c-19.5-15.26-43.89-24.32-67.92-29.39-11.5-2.42-23.52-4.18-35.3-3.3-4.81.36-14.19,1.26-14,7.68a30.34,30.34,0,0,1,8.76.33c2.23.22,4.46.53,6.69.84,5.17.72,10.33,1.58,15.44,2.65a149.57,149.57,0,0,1,30,9.22c10.17,4.5,19,10.89,27.3,18.23q5.67,5,11.16,10.26c3.77-2.25,7.49-4.57,11.13-7,.38-.25.43.2.15.4-3.42,2.57-6.93,5-10.5,7.37q5.63,5.38,11.08,10.91a79.21,79.21,0,0,0,9.81,8.77c3,2.14,7.65,5.34,11.55,4a9.3,9.3,0,0,0,6.11-8.64c.22-5.37-2.17-10.66-5.05-15.07A73.52,73.52,0,0,0,331.15,118.06Z"/><path class="cls-5" d="M343.84,251.75c-.35-1.23-1.94-1.25-3-.86,0-.79-.39-1.4-1.55-1-5.28,1.8-8.75,8-10.11,13.12-.92,3.42.71,6,4.36,4.53,3.11-1.28,5.65-4.24,7.58-6.88C342.92,258.2,344.72,254.86,343.84,251.75Z"/><path class="cls-2" d="M346,257.86a.89.89,0,0,0-.69-.67c.5-.55.75-1.2.21-1.66-11.36-9.61-39.87,53.85-49.86,57.69-1,.38-3.83,3.36-2.16,4.43,3.68,2.35,5.28,2.92,8.82.52a1.2,1.2,0,0,0,.55-.95,2.68,2.68,0,0,0,.42-.48,32.87,32.87,0,0,1,2-2.66,6.22,6.22,0,0,0,2.73-.42,7.48,7.48,0,0,0,2.37-1.12,4.15,4.15,0,0,0,2.16-2.52,1.26,1.26,0,0,0-1.63-1.63,2.47,2.47,0,0,0-.29.1c3.34-3.19,6.81-6.27,9.56-10.06,1.87-2.59,3.55-5.3,5.19-8a3.19,3.19,0,0,0,3.19-1.07C335.5,281.56,348.71,269.51,346,257.86Z"/><path class="cls-2" d="M302.45,197.16a4.6,4.6,0,0,0,0-1.65c.09-.16.21-.32.3-.48,1.42-2.62,1.39-5.88-2.35-5-.39.09-1,.6-.91,1.06,1.13,6.67-7.82,11-12.86,14.34q-4,2.59-8.08,4.93c-2.19,1.25-4.41,2.4-6.69,3.46-4.59,2.15-7.79.68-12.2-.06-.15,0-.34.21-.3.36a.76.76,0,0,1,.06.16,3.1,3.1,0,0,0-.55.38c-2.73,2.53.69,5.68,2.42,7.67a1.42,1.42,0,0,0,1.39.25,58.43,58.43,0,0,0,13.46-5,23.59,23.59,0,0,0,9.45-3.61c6.68-3.27,12.82-7.87,16.68-14.3l.11-.14h0c.11-.19.24-.35.35-.54C303.41,197.83,303.11,197.29,302.45,197.16Z"/><path class="cls-2" d="M285.89,296.48c-1.85-6.15-1.57-13-1.95-19.31-.58-9.93-1.11-20.62-8.12-28.37-.23-.26-.83.31-.68.59.6,1.15,1.12,2.29,1.6,3.44-.56.19-1.28.81-1.31,1.36-.05.95-.07,1.91-.08,2.87a42,42,0,0,0-1.18-4.54.36.36,0,0,0-.28-.27,43.24,43.24,0,0,0-2.23-8.94c-.17-.48-.9.22-.89.53.24,13.25-.69,23.85-8.56,34.93-2.32,3.27-8.32,12.21-5,16.48,1.93,2.49,4.13,2.93,6.12,1.94a1.18,1.18,0,0,0,.27,0,12.34,12.34,0,0,0,1.58-.17,1.27,1.27,0,0,0,.41,1.45,17,17,0,0,0,7.48,3.34,3.73,3.73,0,0,0,2.8-.82,23.3,23.3,0,0,0,4.1,5.11c.86.81,2.08.46,3.09-.36a7.75,7.75,0,0,0,5,4.07,1.29,1.29,0,0,0,1.39-1.18C289.64,304.19,287.18,300.73,285.89,296.48Z"/><path class="cls-2" d="M278.44,167.08c9.06-28.34-10.31-56.27-37.53-64.74-.31-.1-.8.39-.58.68,6.49,8.69,17.08,13.43,24,22,8.63,10.63,11.59,24.53,9.88,37.91-1.38,10.79-8,20.49-15.48,28.06-8.38,8.53-18.89,11.51-30.17,13.53-8.28.79-16.45.74-24.6-2.47-12.17-4.79-21-15.82-25.9-27.59-5.79-14.07-2.32-28.54,4.18-41.66a140,140,0,0,1,12-20.16c4.23-5.83,9.84-10.44,14.57-15.82.73-.84.39-1.92-.76-1.2-13,8.18-21.09,21.16-28.38,34.3-7.69,13.85-11.86,27.69-8.14,43.38A47,47,0,0,0,208,208.92a3,3,0,0,0-.63.86c-.13.38-.31.75-.45,1.13a1,1,0,0,0-.38.17c-2.19,1.77-3.29,5-4.67,7.42-1,1.73-3.18,4.56-2.14,6.64-1.26,2-2.42,4.08-3.51,6.23-1,1.94.3,2.25,1.69,1.75A63.56,63.56,0,0,0,194,244.8c-2.89,12.4-2.94,25.82,2,37.6a4.32,4.32,0,0,0-2,1.57c-4.53,7.09-14.63,2.65-17.51-3.34-.2-.4-.73.16-.8.38-1.59,5.31,1.53,9.75,6.88,10.61a14.94,14.94,0,0,0,3.53.09,1.75,1.75,0,0,0-.23,1.29c.42,1.65,3.11.88,4.43.48.12.5.56.78,1.55.52,2.82-.75,4.9-2.6,7.19-4.34a4.78,4.78,0,0,0,.68-.62c10.23,13.15,29.9,6.29,44.1,6.62,2.56.06,6.21-5.57,2.72-5.65-14.47-.33-29,6.43-41-5-7.92-7.57-9.27-19.75-9.08-30.08.27-14.82,4.62-29.12,16.88-38.35,8.15-6.14,32.19-13.53,40.6-4.66.53.56,1.84-.67,1.52-1.28a8.94,8.94,0,0,0-4.66-4C263.07,197.56,278.46,183.08,278.44,167.08Z"/><path class="cls-2" d="M204.94,93.93c-28.2,4.58-44.69,24.47-53.92,50.25-5.92,16.53-8.7,34.2-12.82,51.22-1.85,7.63-3.69,15-7.79,21.79-2.21,3.64-5.4,7.68-10,8.18-2.88.31-6.42-2.39-9.27-2.9-.7-.13-1.86.65-1.72,1.47,1.65,9.87,12.61,7.21,18.37,2.49,9.19-7.53,12.55-19.67,15.32-30.73,4.2-8.59,6.23-17.69,8.23-27.12,1.24-5.84,5-15.76,3.84-22.14,1.18-3.75,2.48-7.47,4-11.13,4.12-10.27,10.31-19.6,19-26.58,7.63-6.14,17.65-8.29,26.5-12.06C205.66,96.21,207,93.59,204.94,93.93Z"/><path class="cls-2" d="M351.32,155.4c-3.36-1.85-6.82-1.32-10.42-3.93s-6.86-6.33-10.07-9.61c-9.37-9.58-18.87-19.33-29.81-27.13-9.76-7-21.27-10.92-32.76-13.89C256.6,97.82,244,94.92,232,94c-.34,0-1,.59-.67.92,8.23,8.44,25.34,8.59,36.29,11.66a95.17,95.17,0,0,1,33.27,16.67c3.58,11.43,16.46,19.59,27,25.58,1.58,1.58,3.18,3.16,4.8,4.7,4.53,4.32,12.81,10.69,18.26,4.55C351.61,157.35,352.44,156,351.32,155.4Z"/><path class="cls-2" d="M313.47,354.19c-.33-1.06-1.84.44-2,.95-9.06,36.92-59.56,41.11-90.54,38.5-17-1.43-34.13-5.85-50.28-11.38-13-4.45-25.37-11.2-30.48-24.62-.18-.47-.93.25-.85.62a23.63,23.63,0,0,0,2.81,7.23c-.69.16-1.5,1.15-1.23,1.72,6.93,14.76,16.71,25.77,31,31.67,2.5,4.43,7.23,6.09,12.32,7.71a179.78,179.78,0,0,0,26.36,6.48c13.93,2.14,30.53,4.19,44.64-.05,12.76-1.46,25-7,35.41-14.74a51.86,51.86,0,0,0,14-15.94c1.65-2.89,6.35-9.86,4.41-13.62C312.76,364,315,358.94,313.47,354.19Z"/><path d="M210.84,294.29A109.43,109.43,0,0,0,165,315.37a83,83,0,0,0-17.2,17.86c-3.29,4.83-6.11,9.81-7.48,15.54-2.42,10.11.17,20.35,5.78,28.93,6.54,10,16.37,17.55,26.69,23.31a127.09,127.09,0,0,0,39.18,13.73,117.75,117.75,0,0,0,42.6.18c14-2.65,27.53-8.49,38.24-18.06,9.28-8.31,16.2-19.37,18.72-31.64a52.21,52.21,0,0,0-5.56-35.66c-7.77-14-21.11-24.5-35.78-30.56a90.75,90.75,0,0,0-12-4c-.6-.15-1.57,1.1-.91,1.27,16.19,4.15,31.27,12.73,41.84,25.84a53.31,53.31,0,0,1,12.19,34.43,54,54,0,0,1-12.64,32.9c-8.84,10.72-21.27,18-34.49,22-13.4,4-27.66,4.83-41.53,3.48a128.84,128.84,0,0,1-39.75-10.34c-11.16-4.94-21.88-11.62-30.19-20.66-6.9-7.5-12.09-17-12.2-27.39a35.12,35.12,0,0,1,3.38-15.08c3-6.4,7.66-11.72,12.55-16.73A104.21,104.21,0,0,1,199,298.63a115.17,115.17,0,0,1,11.57-3.06c.59-.12,1.25-1.47.32-1.28Z"/><path d="M208.42,94.48c-4.53,1.73-8.41,4.91-11.77,8.35A84.47,84.47,0,0,0,186,116.56a124.52,124.52,0,0,0-14.29,30.09,49.79,49.79,0,0,0,1.23,31.4c4.36,11.71,13.6,20.43,24.7,25.82a58.41,58.41,0,0,0,36.7,4.9,62,62,0,0,0,30.86-16.12A54.87,54.87,0,0,0,281.45,163a50.91,50.91,0,0,0-7.28-35.53c-6.58-10.55-16.92-18.56-27.72-24.45a88.62,88.62,0,0,0-16.82-7.14c-4.8-1.46-10.09-2.77-15.14-2.45a32.89,32.89,0,0,0-6,1.12c-.23.06-.47.57-.12.49a19.24,19.24,0,0,1,5.77-.16,65.78,65.78,0,0,1,7,.76,73.79,73.79,0,0,1,15.75,4.85c11.21,4.75,21.89,11.66,30.09,20.73a51.8,51.8,0,0,1,13.57,33.09,49.61,49.61,0,0,1-10.48,31.11,59,59,0,0,1-27.34,19.67,57.39,57.39,0,0,1-35.3.9c-11.8-3.54-23.06-10.72-29.64-21.33a45.19,45.19,0,0,1-6.05-16.27,50.46,50.46,0,0,1-.32-16.63,62.87,62.87,0,0,1,3.6-11.91,135.72,135.72,0,0,1,6.93-15,114,114,0,0,1,9.5-15,54.72,54.72,0,0,1,11.19-11.5,26.36,26.36,0,0,1,5.8-3.23c.39-.15.58-.92,0-.69Z"/><path d="M225.67,176.62c-1-2.24-1.54-4.72.05-6.84,1.75-2.32,5-3,7.72-2.4a5,5,0,0,1,3.64,2.73,6.37,6.37,0,0,1,0,4.35c-.48,1.81-1.26,4.88-3.53,5.15a6.09,6.09,0,0,1-3.3-.84,20.83,20.83,0,0,1-2-1.18c-.33-.22-.65-.46-1-.66s-1-.3-1.46-.55c-.22-.13-.66.34-.47.55.44.46.51.91,1,1.33s.83.59,1.26.86a16.09,16.09,0,0,0,2.15,1.19,6.06,6.06,0,0,0,3.55.59c2.76-.53,4-3.5,4.75-5.9a9.05,9.05,0,0,0,.43-5.09,5.31,5.31,0,0,0-3.58-3.51,9.2,9.2,0,0,0-9.24,2.31c-2,2.19-2.91,6.06-.16,8,.05,0,.16,0,.13-.11Z"/><path d="M243.77,154.27c.57,2.5,2.84,5.14,5.2,3.49s.45-6.22-1.32-7.37C245,148.68,243,151.09,243.77,154.27Z"/><path d="M209.68,162.94c.7,2.47,0,5.87-2.9,5.55s-3.36-5.25-2.36-7.1C205.91,158.63,208.8,159.8,209.68,162.94Z"/><path d="M232.88,180.32a41.62,41.62,0,0,0,1.53,6.08c.28,1.1.55,2.21.82,3.31a7.71,7.71,0,0,0,.94,2.92c.07.1.23-.1.23-.17a10.49,10.49,0,0,0-.58-3.17l-.78-3.08c-.26-1-.52-2-.8-3a12,12,0,0,0-1.05-3.08c-.09-.15-.32.06-.31.18Z"/><path d="M253.07,169.2c9.1-5.16,18.2-10.29,27.48-15.15s18.67-9.82,27.68-15.33c5.56-3.41,11-7,16.26-10.87.15-.11.12-.36-.08-.22C306.6,140,287,149,268.13,159.6A160.22,160.22,0,0,0,253,169c-.11.08-.16.35,0,.24Z"/><path d="M254.61,172.06c8.52-2.79,17-5.77,25.4-8.81s17-6.15,25.4-9.6q7.13-2.94,14.07-6.32c.12-.06.2-.33,0-.24-16.67,6.95-33.62,13.08-50.57,19.28-4.8,1.76-9.56,3.58-14.28,5.54,0,0-.12.18,0,.15Z"/><path d="M260.23,174.9c11.64-2,23.44-3.24,35-5.71.1,0,.2-.22,0-.2-11.64,1.79-23.35,3.35-34.94,5.47-.21,0-.43.5-.11.44Z"/><path d="M210,178.21c-10.16,2.7-20.79,3.62-31.25,4.15-11.37.57-22.76.52-34.13.93-5.81.2-11.63.45-17.41,1-.14,0-.36.34-.16.33,22-1.47,44.23.1,66.2-2.67a96.59,96.59,0,0,0,16.66-3.42c.15,0,.34-.41.09-.35Z"/><path d="M206.51,184c-3.27.49-6.52,1.48-9.73,2.28s-6.42,1.6-9.63,2.42c-6.52,1.65-13.08,3.29-19.51,5.27-.1,0-.25.29-.06.25,6.49-1.3,12.93-3,19.34-4.62,3.14-.8,6.28-1.6,9.42-2.42,3.35-.87,6.8-1.61,10.07-2.76.16-.06.43-.47.1-.42Z"/><path d="M207.5,187.92c-3.42,1.13-6.73,2.76-10,4.2-3.63,1.59-7.24,3.23-10.82,4.95a165.62,165.62,0,0,0-20.38,11.35c-.13.09-.11.3.08.19a210.55,210.55,0,0,1,20.52-10.88c3.38-1.59,6.79-3.13,10.2-4.66s7.06-2.94,10.38-4.77c.12-.06.33-.47.05-.38Z"/><path d="M249.41,203.84c7.71,12.88,16,25.42,21.36,39.55a99.73,99.73,0,0,1,5.56,21.82,48.23,48.23,0,0,1,.62,9.52,35.86,35.86,0,0,1-1.58,8.14,29.29,29.29,0,0,1-4.3,8.76,20.1,20.1,0,0,1-7,5.63c-.13.08-.53.58-.14.58,2.58,0,4.77-1.79,6.49-3.56a25.81,25.81,0,0,0,4.79-7.19,34.72,34.72,0,0,0,3.41-16.46c-1-15.82-6.33-30.86-14.06-44.6a176.73,176.73,0,0,0-14.93-22.35c-.06-.08-.23.08-.18.16Z"/><path d="M273.61,248.09c3.88-2,8.53-3.53,12.72-1.59,3.85,1.79,6.2,5.8,7.76,9.56a62.23,62.23,0,0,1,4,16.42,119.92,119.92,0,0,1,.73,18.37c-.19,5.79-.28,11.8-1.41,17.5-.05.23.27.06.31-.08,3.05-11.51,3.41-23.47,2.13-35.28A65.75,65.75,0,0,0,296,255.74c-1.59-4-4-8.17-7.9-10.3-4.85-2.63-10.34-.63-14.49,2.37-.13.09-.19.4.05.28Z"/><path d="M297.75,308.39a167.61,167.61,0,0,0,7.93-15c2.79-5.6,5.61-11.18,8.67-16.64a124.52,124.52,0,0,1,9.74-15.2c3.09-4,6.43-7.84,11.29-9.69,3.59-1.37,7.7-1.05,9.24,3,2,5.24-.05,11-2.8,15.57-3,5-7,9.31-10.7,13.74-3.89,4.62-7.4,9.56-11.17,14.28a135.7,135.7,0,0,1-13.71,15.43c-2.24,2.06-7.05,6.62-10.11,3.44-.13-.13-.43.17-.31.31,2.11,2.63,5.73.76,8-.71,4.82-3.18,8.76-7.77,12.46-12.14,4.57-5.38,8.87-11,13.14-16.61,3.65-4.82,7.89-9.15,11.41-14.07,3.33-4.66,6.3-10.07,6-16-.2-4.15-2-8.38-6.72-8.47-4.32-.08-9.13,2.69-12,5.71a84.81,84.81,0,0,0-11,14.61c-6.84,11.1-12.31,23-18.11,34.62-.61,1.23-1.17,2.47-1.73,3.73-.18.41.34.33.5.08Z"/><path d="M209.13,208c-3,2.22-5,5.7-6.8,9a84.91,84.91,0,0,0-5.46,12.93c-3.15,9.16-5.72,18.87-6,28.6a60.34,60.34,0,0,0,2.19,18.18,28.61,28.61,0,0,0,5.76,10.89c5,5.78,12.43,8.52,19.89,9.39,9.51,1.11,18.95-.48,28.05-3.17.15,0,.36-.4.09-.35-7.78,1.5-15.93,2.6-23.86,2.24-7.36-.34-15-2.21-20.62-7.17-7.24-6.36-9.44-16.37-9.94-25.61-.55-9.94,1.54-19.6,4.38-29.06a118.9,118.9,0,0,1,5.3-14.48,39.72,39.72,0,0,1,7-11.22c.08-.08,0-.21-.07-.12Z"/><path d="M208.42,233.78c-.76,9.41,2.25,18.89,5.92,27.43,2.43,5.64,5.61,12.64,12.07,14.6,6,1.81,9.3-4.56,9.17-9.66a42.24,42.24,0,0,0-2.23-11.33,52.63,52.63,0,0,0-3.77-9.39A92.51,92.51,0,0,0,222,234.18c-2.55-3.39-4.91-7.07-8-10-.21-.2-.61.23-.53.45,1.1,3.22,3.29,5.75,5.32,8.44,2.33,3.07,4.67,6.15,6.81,9.37a56,56,0,0,1,7.82,18.61c.77,3.43,1.36,7.07,0,10.41-1,2.35-2.84,3.75-5.43,3.22-6-1.22-9.29-7.6-11.65-12.58-4.2-8.89-7.8-18.52-7.63-28.49,0-.15-.23,0-.24.12Z"/><path d="M257.44,215.86c2.88-3.16,5.66-6.35,8.85-9.22a118.63,118.63,0,0,1,11.2-8.79c5.18-3.64,11-7.48,17.5-8,2.44-.2,5.06.27,6.51,2.43,1.67,2.5,1.45,5.93.24,8.56-2.65,5.73-8.93,9.52-14.3,12.36a108.28,108.28,0,0,1-10.29,4.69,67.12,67.12,0,0,1-7.81,2.66c-2.7.72-5.47,1.13-8.16,1.92-.16.05-.51.45-.18.5a17.61,17.61,0,0,0,7.31-.73,67.3,67.3,0,0,0,7.21-2.33,109.65,109.65,0,0,0,11-4.86c5.91-3,12.32-6.91,15.81-12.75a11.68,11.68,0,0,0,1.6-8.82,6.53,6.53,0,0,0-5.44-5.06c-2.92-.48-6,.32-8.75,1.3a37.78,37.78,0,0,0-8.17,4,138,138,0,0,0-14.2,10.58c-3.76,3.24-7.91,7-10.2,11.45-.11.23.17.24.29.1Z"/><path d="M255.78,306a303.19,303.19,0,0,0,7.4-46.79,128,128,0,0,0,.5-15.54c-.19-4.88-.62-10.28-2.95-14.66-1.62-3-5.3-6.07-9-4.86s-5.33,5.92-6.24,9.34a77.82,77.82,0,0,0-2,13.15,90.56,90.56,0,0,0-.05,10.29q.15,6.75.58,13.5c.58,9.23,1.53,18.46,3,27.6.33,2.06.68,4.13,1.1,6.17a9,9,0,0,0,1.86,4.36,3,3,0,0,0,4.54.22,4.78,4.78,0,0,0,1.18-2.77c0-.25-.3-.05-.34.09-.32,1.08-.93,2.66-2.23,2.86a2.67,2.67,0,0,1-2.43-1.48,13.18,13.18,0,0,1-1.55-5q-.58-3.19-1.09-6.4c-1.31-8.3-2.19-16.67-2.76-25.05-.81-11.79-1.67-23.88.79-35.54a30.16,30.16,0,0,1,1.89-6.15c.67-1.49,1.61-3.17,3.16-3.9,3.39-1.58,7.12,1.82,8.54,4.59,2.14,4.18,2.59,9.18,2.79,13.8a121,121,0,0,1-.37,14.63,392.73,392.73,0,0,1-5.78,41.27c-.4,2.13-.72,4.27-1,6.41C255.26,306.47,255.73,306.21,255.78,306Z"/><path d="M192.31,272.11c.11-3.77-2.71-7.21-6.64-6.67-3.78.52-6.88,3.67-8.62,6.87-4.39,8.09-.33,19.66,8.82,22.19a12.16,12.16,0,0,0,7.14-.19c2.43-.83,5.59-2.59,6.68-5,.11-.24-.06-.47-.32-.32-2,1.15-3.42,2.88-5.61,3.75a10.88,10.88,0,0,1-5.84.58,13.65,13.65,0,0,1-9.14-6.73,15.13,15.13,0,0,1-1.44-11.85c1-3.19,3.38-6.39,6.62-7.52a5,5,0,0,1,4.44.36c1.79,1.16,2.37,3.12,3.36,4.88.16.28.55-.13.55-.32Z"/><path d="M249.09,239.56a16.66,16.66,0,0,0,.28,9.86c1,2.75,3.87,3.88,6.2,1.8s3.16-5.76,3.43-8.79c.22-2.5.37-6.56-2-8.16a4.12,4.12,0,0,0-5.62.6c-1.39,1.47-2.44,4.07-1.41,6,.08.16.29-.05.31-.15.44-1.65.71-3.89,2-5.17s3.28-.55,4.25.64c1.37,1.69,1.28,4.64,1.14,6.67-.15,2.43-.65,5.55-2.35,7.43-1.9,2.1-4.45.45-5.31-1.73a18.49,18.49,0,0,1-.66-9.05c0-.17-.2,0-.22.06Z"/><path d="M293.62,210.07c-2.22.71-4.6,1.13-6.5-.59-2.05-1.85-1.65-4.87-.19-6.95a13.86,13.86,0,0,1,7-4.65,8.92,8.92,0,0,1,3.83-.47c1.57.22,2.67,1.34,4.16,1.75a.45.45,0,0,0,.49-.49c-1.09-3.54-6.06-2.78-8.67-1.79-2.9,1.09-6,3-7.6,5.77-1.35,2.31-1.79,5.49.41,7.44a5.81,5.81,0,0,0,7.12.16s.12-.22,0-.18Z"/><path d="M208.85,94.4c-7.29-6.25-17.74-4.25-25.93-1.1a91.22,91.22,0,0,0-25.41,15.48c-8,6.7-14.47,15.19-20.3,23.76A203,203,0,0,0,116.77,171c-4.38,10.88-8.22,22.45-9.14,34.21-.66,8.36-.38,22.48,9.68,25.39,4.85,1.4,9.39-1.46,12.62-4.85a46.91,46.91,0,0,0,8.33-12.94,154.17,154.17,0,0,0,7.89-20.11c2.27-7.59,3.95-15.34,5.62-23.07,3.16-14.62,6.07-29.93,13.69-43,6.59-11.32,16.5-21,28.78-26a74.06,74.06,0,0,1,9.43-2.94c.35-.09,1-1.11.38-1-12.3,1.28-23.66,9.29-31.66,18.34A72.84,72.84,0,0,0,162,130.42a105,105,0,0,0-7.22,20.18c-4,14.9-6.22,30.26-10.92,45a137.89,137.89,0,0,1-7.61,18.55c-2.24,4.57-5,9.33-9,12.56a10.49,10.49,0,0,1-6.4,2.64,9.55,9.55,0,0,1-6.41-2.64c-3.56-3.29-4.72-8.5-5.14-13.14-.95-10.6,1.63-21.24,4.84-31.26a195.58,195.58,0,0,1,17.5-38.7c6.21-10.62,13.38-21,22-29.82a88.46,88.46,0,0,1,21.18-15.5c8.07-4.35,18.31-8.62,27.58-5.89a17.69,17.69,0,0,1,5.7,2.87c.4.3,1.22-.53.85-.85Z"/><path d="M213.77,94c-1.65-8.14,11.23-9,16.41-9.24,14.06-.7,28.37,1.89,41.93,5.35a184.35,184.35,0,0,1,42.12,16.06c9.66,5.22,18.9,11.55,26.55,19.47,5.09,5.28,9.89,11.55,11.81,18.76,1.2,4.49,1,9.77-2.64,13.09a8.5,8.5,0,0,1-8.76,1.91c-4.9-1.62-9.08-5.29-12.79-8.75-3.91-3.64-7.64-7.48-11.47-11.19-5.56-5.38-11.1-10.78-17-15.84a108.07,108.07,0,0,0-17.89-13,107.71,107.71,0,0,0-18.38-7.89,200.71,200.71,0,0,0-40.34-8.5,76.06,76.06,0,0,0-9.53-.58c-.33,0-1.08.87-.57,1,6.59,1.19,13.3,1.65,19.92,2.71a200.51,200.51,0,0,1,21.71,4.64,130.7,130.7,0,0,1,20,7.18A91.86,91.86,0,0,1,293.73,121c11.12,8.87,21.1,19.13,31.24,29.08,3.77,3.71,7.84,7.42,12.59,9.82a13,13,0,0,0,6.63,1.66,10.16,10.16,0,0,0,4.61-1.72,13.44,13.44,0,0,0,6-13c-.67-6.95-4.69-13.32-9-18.57C339,120.06,330.32,113.5,321.25,108A172.88,172.88,0,0,0,279.84,90.5c-14.46-4.16-29.74-7.23-44.85-7.13-5,0-10.16.35-14.9,2-2.68.91-5.76,2.48-6.77,5.34a5.6,5.6,0,0,0,.07,3.55c.07.21.42-.1.38-.27Z"/><path d="M232.27,360.14c-2.27-.3-3.77-3-4.82-4.74-1.2-2-2.38-4-3.63-6-3.49-5.57-6.61-11.52-7.38-18.15a18.4,18.4,0,0,1,.51-7.2c.43-1.53,1.42-4.4,3.53-3.64a6,6,0,0,1,2.52,2.33,19.19,19.19,0,0,1,2.37,4.83,44.36,44.36,0,0,1,1.9,9.76c.83,7.82,1.7,15.58,3.72,23.19.12.45.95-.19.9-.53-1.45-9.53-3.29-19.84-.75-29.34a19.85,19.85,0,0,1,3-6.52c1.28-1.77,3.7-3.65,5.77-1.86s1.81,5.28,1.39,7.68a39.09,39.09,0,0,1-3,8.78c-1.37,3.11-2.67,6.24-3.8,9.44-1.28,3.65-2.4,7.36-3.72,11-.22.62.73.2.88-.11,3.75-7.52,6.78-16.21,13.25-21.93a16.94,16.94,0,0,1,5.42-3.3c1.31-.47,4.55-1.62,5.08.46s-1.5,4.32-2.59,5.71a48.35,48.35,0,0,1-6,6.14c-5.09,4.58-10,9.35-15.25,13.7-.47.39-.38,1.23.26.73,5.07-3.92,10.44-8.27,16.67-10.14,2.34-.7,7.65-1.55,8.43,1.84.44,1.91-1.4,3.4-2.85,4.23a16,16,0,0,1-5.82,1.75c-2.29.32-4.59.47-6.88.79a70.73,70.73,0,0,1-9,.83c-.47,0-1.28,1-.54,1.13,5.21.76,10.48,1.17,15.63,2.39S258,366.62,261.21,371a11.44,11.44,0,0,1,1.63,3.09c.15.45.44,1.31.14,1.76-.55.82-2.65.33-3.4.18a46.2,46.2,0,0,1-10.64-3.95,75.73,75.73,0,0,1-15.85-10.56c-.46-.38-1.39.56-1,1,5.19,6.48,12.7,11.61,16,19.45a11.29,11.29,0,0,1,1.07,5.9c-.33,2-2.4,1.58-3.81,1-4.15-1.8-6.54-6.34-8-10.38-2.11-5.8-3-12-5.11-17.78-.23-.65-1.26.32-1.16.83,1.66,8.1,3,16.75,1.4,25-.24,1.21-.66,3.44-2,4s-2.54-1.4-3-2.39c-2-4.21-1.42-8.68-.18-13,1.34-4.74,2.47-9.67,4.45-14.2.41-.94-.79-.52-1.09,0-4.77,8.13-10.4,17.57-19.33,21.64a16.48,16.48,0,0,1-7.3,1.61c-2.08-.09-4.47-1.06-4.92-3.33-.51-2.59,1.53-5.17,3.33-6.78a28.08,28.08,0,0,1,6.35-4.05c6.49-3.2,13.42-5.08,20.41-6.83.6-.14,1.29-1.52.33-1.31-5.32,1.19-10.77,1.62-16.12,2.66-4.29.83-8.83,2.07-13.21,1.23-1.92-.37-4.72-1.35-5.31-3.46-.56-1.94,1.65-3.39,3.14-4.09a16.06,16.06,0,0,1,6.73-1.1,53.91,53.91,0,0,1,7.92.67,37,37,0,0,1,8.53,2.16,74.09,74.09,0,0,0,7.91,3c.59.16,1.69-1,1-1.34-6.21-2.76-12.59-5.4-18.48-8.81-3.77-2.19-10-6.15-9.43-11.29a3.21,3.21,0,0,1,4-2.71,13,13,0,0,1,3.87,2,67.67,67.67,0,0,1,10,8.59,95.75,95.75,0,0,1,10.49,12.17c.39.55,1.68-.64,1.25-1.25a96.44,96.44,0,0,0-10.5-12.16,63,63,0,0,0-11-9.2,9.44,9.44,0,0,0-4-1.66,5.6,5.6,0,0,0-4.87,2.58c-3,4.87,2.61,10.06,6.24,12.5a74.09,74.09,0,0,0,9.51,5.18c3.92,1.9,7.9,3.66,11.88,5.43l1-1.34a82.79,82.79,0,0,1-8.31-3.2,37.82,37.82,0,0,0-8-2,52.75,52.75,0,0,0-9.22-.72,16.13,16.13,0,0,0-6.69,1.33,8.31,8.31,0,0,0-4.15,3.86c-.81,1.91.19,3.64,1.81,4.73,4,2.7,9.57,1.78,14,.92,6.53-1.26,13.18-1.94,19.66-3.39l.33-1.31c-7,1.75-13.94,3.65-20.45,6.82-4.49,2.18-10.28,5.57-11.24,11a4.57,4.57,0,0,0,2.74,5.19c2.24,1,4.94.64,7.24.07,5.3-1.32,9.75-4.87,13.36-8.83a88.48,88.48,0,0,0,10.57-15.16h-1.09c-2,4.63-3.19,9.66-4.56,14.51-1.32,4.65-2,9.69.47,14.11.62,1.11,1.58,2.4,3,2.33a3.85,3.85,0,0,0,2.8-2,14,14,0,0,0,1.63-5.68,46.83,46.83,0,0,0,.33-7.1,93.58,93.58,0,0,0-2.1-16.33l-1.16.83c2.11,5.81,3,12,5.11,17.78,1.56,4.27,4.19,9.18,8.72,10.86a4.2,4.2,0,0,0,4.17-.34c1.42-1.18,1.42-3.1,1.22-4.78-.53-4.46-3.37-8.34-6.2-11.66-3.51-4.1-7.64-7.66-11-11.87l-1,1A76.75,76.75,0,0,0,247.55,373c3.66,1.77,7.56,3.58,11.59,4.29,1.32.24,3,.42,4.1-.45s1.14-2.39.67-3.7c-1.89-5.29-7.22-8.3-12.27-9.92-6.24-2-12.8-2.39-19.25-3.31l-.54,1.13a64.2,64.2,0,0,0,8.52-.85c2.52-.35,5.07-.53,7.6-.89,3.52-.49,8.4-1.88,9.76-5.65,1.29-3.57-2.76-5-5.59-4.81-3.73.23-7.29,2-10.46,3.88a102.5,102.5,0,0,0-10.15,7.16l.26.73c5.26-4.34,10.1-9.09,15.17-13.63a52.83,52.83,0,0,0,6.54-6.67c1.24-1.61,2.81-3.63,2.9-5.76.2-4.61-7.07-1.31-8.95-.18-4,2.42-7,6.28-9.39,10.26-2.79,4.63-4.87,9.63-7.27,14.46l.87-.11c1.31-3.64,2.43-7.35,3.71-11,1.2-3.4,2.63-6.68,4-10a34.16,34.16,0,0,0,2.9-9.28c.28-2.3.3-5.27-1.48-7-3.57-3.56-7.73,2.26-9.09,5.1-2.28,4.78-2.76,10.27-2.69,15.49A132.17,132.17,0,0,0,231,360.43l.89-.53c-2.09-7.83-2.87-15.8-3.78-23.83a39.34,39.34,0,0,0-2.29-10.29c-.89-2.19-2.43-5.65-5-6.32-4-1.06-5.22,6.21-5.39,8.73-.45,6.87,2.68,13.73,6.11,19.49,1.63,2.74,3.37,5.43,5,8.15,1.19,1.93,2.91,4.67,5.4,4.92.28,0,.69-.56.3-.61Z"/></g></g></svg>